G04 #@! TF.GenerationSoftware,KiCad,Pcbnew,(5.1.10)-1*
G04 #@! TF.CreationDate,2021-11-05T11:55:09+00:00*
G04 #@! TF.ProjectId,RasperryPi ECG Hat,52617370-6572-4727-9950-692045434720,rev?*
G04 #@! TF.SameCoordinates,Original*
G04 #@! TF.FileFunction,Paste,Top*
G04 #@! TF.FilePolarity,Positive*
%FSLAX46Y46*%
G04 Gerber Fmt 4.6, Leading zero omitted, Abs format (unit mm)*
G04 Created by KiCad (PCBNEW (5.1.10)-1) date 2021-11-05 11:55:09*
%MOMM*%
%LPD*%
G01*
G04 APERTURE LIST*
%ADD10C,0.010000*%
%ADD11R,4.000000X1.000000*%
%ADD12R,0.800000X0.900000*%
%ADD13R,0.450000X1.750000*%
G04 APERTURE END LIST*
D10*
G04 #@! TO.C,ADS1293*
G36*
X92902000Y-89569000D02*
G01*
X91002000Y-89569000D01*
X91002000Y-87669000D01*
X92902000Y-87669000D01*
X92902000Y-89569000D01*
G37*
X92902000Y-89569000D02*
X91002000Y-89569000D01*
X91002000Y-87669000D01*
X92902000Y-87669000D01*
X92902000Y-89569000D01*
G04 #@! TD*
G04 #@! TO.C,D3*
G36*
G01*
X78843750Y-43775000D02*
X79356250Y-43775000D01*
G75*
G02*
X79575000Y-43993750I0J-218750D01*
G01*
X79575000Y-44431250D01*
G75*
G02*
X79356250Y-44650000I-218750J0D01*
G01*
X78843750Y-44650000D01*
G75*
G02*
X78625000Y-44431250I0J218750D01*
G01*
X78625000Y-43993750D01*
G75*
G02*
X78843750Y-43775000I218750J0D01*
G01*
G37*
G36*
G01*
X78843750Y-45350000D02*
X79356250Y-45350000D01*
G75*
G02*
X79575000Y-45568750I0J-218750D01*
G01*
X79575000Y-46006250D01*
G75*
G02*
X79356250Y-46225000I-218750J0D01*
G01*
X78843750Y-46225000D01*
G75*
G02*
X78625000Y-46006250I0J218750D01*
G01*
X78625000Y-45568750D01*
G75*
G02*
X78843750Y-45350000I218750J0D01*
G01*
G37*
G04 #@! TD*
G04 #@! TO.C,R13*
G36*
G01*
X64216500Y-38422000D02*
X64216500Y-38052000D01*
G75*
G02*
X64351500Y-37917000I135000J0D01*
G01*
X64621500Y-37917000D01*
G75*
G02*
X64756500Y-38052000I0J-135000D01*
G01*
X64756500Y-38422000D01*
G75*
G02*
X64621500Y-38557000I-135000J0D01*
G01*
X64351500Y-38557000D01*
G75*
G02*
X64216500Y-38422000I0J135000D01*
G01*
G37*
G36*
G01*
X63196500Y-38422000D02*
X63196500Y-38052000D01*
G75*
G02*
X63331500Y-37917000I135000J0D01*
G01*
X63601500Y-37917000D01*
G75*
G02*
X63736500Y-38052000I0J-135000D01*
G01*
X63736500Y-38422000D01*
G75*
G02*
X63601500Y-38557000I-135000J0D01*
G01*
X63331500Y-38557000D01*
G75*
G02*
X63196500Y-38422000I0J135000D01*
G01*
G37*
G04 #@! TD*
G04 #@! TO.C,R9*
G36*
G01*
X92215000Y-37330000D02*
X92585000Y-37330000D01*
G75*
G02*
X92720000Y-37465000I0J-135000D01*
G01*
X92720000Y-37735000D01*
G75*
G02*
X92585000Y-37870000I-135000J0D01*
G01*
X92215000Y-37870000D01*
G75*
G02*
X92080000Y-37735000I0J135000D01*
G01*
X92080000Y-37465000D01*
G75*
G02*
X92215000Y-37330000I135000J0D01*
G01*
G37*
G36*
G01*
X92215000Y-38350000D02*
X92585000Y-38350000D01*
G75*
G02*
X92720000Y-38485000I0J-135000D01*
G01*
X92720000Y-38755000D01*
G75*
G02*
X92585000Y-38890000I-135000J0D01*
G01*
X92215000Y-38890000D01*
G75*
G02*
X92080000Y-38755000I0J135000D01*
G01*
X92080000Y-38485000D01*
G75*
G02*
X92215000Y-38350000I135000J0D01*
G01*
G37*
G04 #@! TD*
G04 #@! TO.C,D2*
G36*
G01*
X93105500Y-66450750D02*
X93105500Y-66963250D01*
G75*
G02*
X92886750Y-67182000I-218750J0D01*
G01*
X92449250Y-67182000D01*
G75*
G02*
X92230500Y-66963250I0J218750D01*
G01*
X92230500Y-66450750D01*
G75*
G02*
X92449250Y-66232000I218750J0D01*
G01*
X92886750Y-66232000D01*
G75*
G02*
X93105500Y-66450750I0J-218750D01*
G01*
G37*
G36*
G01*
X91530500Y-66450750D02*
X91530500Y-66963250D01*
G75*
G02*
X91311750Y-67182000I-218750J0D01*
G01*
X90874250Y-67182000D01*
G75*
G02*
X90655500Y-66963250I0J218750D01*
G01*
X90655500Y-66450750D01*
G75*
G02*
X90874250Y-66232000I218750J0D01*
G01*
X91311750Y-66232000D01*
G75*
G02*
X91530500Y-66450750I0J-218750D01*
G01*
G37*
G04 #@! TD*
G04 #@! TO.C,R2*
G36*
G01*
X93153000Y-84015000D02*
X92783000Y-84015000D01*
G75*
G02*
X92648000Y-83880000I0J135000D01*
G01*
X92648000Y-83610000D01*
G75*
G02*
X92783000Y-83475000I135000J0D01*
G01*
X93153000Y-83475000D01*
G75*
G02*
X93288000Y-83610000I0J-135000D01*
G01*
X93288000Y-83880000D01*
G75*
G02*
X93153000Y-84015000I-135000J0D01*
G01*
G37*
G36*
G01*
X93153000Y-85035000D02*
X92783000Y-85035000D01*
G75*
G02*
X92648000Y-84900000I0J135000D01*
G01*
X92648000Y-84630000D01*
G75*
G02*
X92783000Y-84495000I135000J0D01*
G01*
X93153000Y-84495000D01*
G75*
G02*
X93288000Y-84630000I0J-135000D01*
G01*
X93288000Y-84900000D01*
G75*
G02*
X93153000Y-85035000I-135000J0D01*
G01*
G37*
G04 #@! TD*
D11*
G04 #@! TO.C,Y1*
X95254000Y-96866000D03*
X87126000Y-96866000D03*
G04 #@! TD*
G04 #@! TO.C,C4*
G36*
G01*
X87943500Y-73196800D02*
X87943500Y-72856800D01*
G75*
G02*
X88083500Y-72716800I140000J0D01*
G01*
X88363500Y-72716800D01*
G75*
G02*
X88503500Y-72856800I0J-140000D01*
G01*
X88503500Y-73196800D01*
G75*
G02*
X88363500Y-73336800I-140000J0D01*
G01*
X88083500Y-73336800D01*
G75*
G02*
X87943500Y-73196800I0J140000D01*
G01*
G37*
G36*
G01*
X86983500Y-73196800D02*
X86983500Y-72856800D01*
G75*
G02*
X87123500Y-72716800I140000J0D01*
G01*
X87403500Y-72716800D01*
G75*
G02*
X87543500Y-72856800I0J-140000D01*
G01*
X87543500Y-73196800D01*
G75*
G02*
X87403500Y-73336800I-140000J0D01*
G01*
X87123500Y-73336800D01*
G75*
G02*
X86983500Y-73196800I0J140000D01*
G01*
G37*
G04 #@! TD*
G04 #@! TO.C,C6*
G36*
G01*
X92920000Y-92670000D02*
X92920000Y-92330000D01*
G75*
G02*
X93060000Y-92190000I140000J0D01*
G01*
X93340000Y-92190000D01*
G75*
G02*
X93480000Y-92330000I0J-140000D01*
G01*
X93480000Y-92670000D01*
G75*
G02*
X93340000Y-92810000I-140000J0D01*
G01*
X93060000Y-92810000D01*
G75*
G02*
X92920000Y-92670000I0J140000D01*
G01*
G37*
G36*
G01*
X93880000Y-92670000D02*
X93880000Y-92330000D01*
G75*
G02*
X94020000Y-92190000I140000J0D01*
G01*
X94300000Y-92190000D01*
G75*
G02*
X94440000Y-92330000I0J-140000D01*
G01*
X94440000Y-92670000D01*
G75*
G02*
X94300000Y-92810000I-140000J0D01*
G01*
X94020000Y-92810000D01*
G75*
G02*
X93880000Y-92670000I0J140000D01*
G01*
G37*
G04 #@! TD*
G04 #@! TO.C,Y2*
X83926000Y-53900000D03*
X92054000Y-53900000D03*
G04 #@! TD*
G04 #@! TO.C,ADS1293*
G36*
G01*
X90587000Y-90632100D02*
X90587000Y-91475900D01*
G75*
G02*
X90578900Y-91484000I-8100J0D01*
G01*
X90325100Y-91484000D01*
G75*
G02*
X90317000Y-91475900I0J8100D01*
G01*
X90317000Y-90632100D01*
G75*
G02*
X90325100Y-90624000I8100J0D01*
G01*
X90578900Y-90624000D01*
G75*
G02*
X90587000Y-90632100I0J-8100D01*
G01*
G37*
G36*
G01*
X89947000Y-88492100D02*
X89947000Y-88745900D01*
G75*
G02*
X89938900Y-88754000I-8100J0D01*
G01*
X89095100Y-88754000D01*
G75*
G02*
X89087000Y-88745900I0J8100D01*
G01*
X89087000Y-88492100D01*
G75*
G02*
X89095100Y-88484000I8100J0D01*
G01*
X89938900Y-88484000D01*
G75*
G02*
X89947000Y-88492100I0J-8100D01*
G01*
G37*
G36*
G01*
X93587000Y-90632100D02*
X93587000Y-91475900D01*
G75*
G02*
X93578900Y-91484000I-8100J0D01*
G01*
X93325100Y-91484000D01*
G75*
G02*
X93317000Y-91475900I0J8100D01*
G01*
X93317000Y-90632100D01*
G75*
G02*
X93325100Y-90624000I8100J0D01*
G01*
X93578900Y-90624000D01*
G75*
G02*
X93587000Y-90632100I0J-8100D01*
G01*
G37*
G36*
G01*
X93087000Y-85762100D02*
X93087000Y-86605900D01*
G75*
G02*
X93078900Y-86614000I-8100J0D01*
G01*
X92825100Y-86614000D01*
G75*
G02*
X92817000Y-86605900I0J8100D01*
G01*
X92817000Y-85762100D01*
G75*
G02*
X92825100Y-85754000I8100J0D01*
G01*
X93078900Y-85754000D01*
G75*
G02*
X93087000Y-85762100I0J-8100D01*
G01*
G37*
G36*
G01*
X94817000Y-86992100D02*
X94817000Y-87245900D01*
G75*
G02*
X94808900Y-87254000I-8100J0D01*
G01*
X93965100Y-87254000D01*
G75*
G02*
X93957000Y-87245900I0J8100D01*
G01*
X93957000Y-86992100D01*
G75*
G02*
X93965100Y-86984000I8100J0D01*
G01*
X94808900Y-86984000D01*
G75*
G02*
X94817000Y-86992100I0J-8100D01*
G01*
G37*
G36*
G01*
X92087000Y-90632100D02*
X92087000Y-91475900D01*
G75*
G02*
X92078900Y-91484000I-8100J0D01*
G01*
X91825100Y-91484000D01*
G75*
G02*
X91817000Y-91475900I0J8100D01*
G01*
X91817000Y-90632100D01*
G75*
G02*
X91825100Y-90624000I8100J0D01*
G01*
X92078900Y-90624000D01*
G75*
G02*
X92087000Y-90632100I0J-8100D01*
G01*
G37*
G36*
G01*
X93587000Y-85762100D02*
X93587000Y-86605900D01*
G75*
G02*
X93578900Y-86614000I-8100J0D01*
G01*
X93325100Y-86614000D01*
G75*
G02*
X93317000Y-86605900I0J8100D01*
G01*
X93317000Y-85762100D01*
G75*
G02*
X93325100Y-85754000I8100J0D01*
G01*
X93578900Y-85754000D01*
G75*
G02*
X93587000Y-85762100I0J-8100D01*
G01*
G37*
G36*
G01*
X91587000Y-85762100D02*
X91587000Y-86605900D01*
G75*
G02*
X91578900Y-86614000I-8100J0D01*
G01*
X91325100Y-86614000D01*
G75*
G02*
X91317000Y-86605900I0J8100D01*
G01*
X91317000Y-85762100D01*
G75*
G02*
X91325100Y-85754000I8100J0D01*
G01*
X91578900Y-85754000D01*
G75*
G02*
X91587000Y-85762100I0J-8100D01*
G01*
G37*
G36*
G01*
X93087000Y-90632100D02*
X93087000Y-91475900D01*
G75*
G02*
X93078900Y-91484000I-8100J0D01*
G01*
X92825100Y-91484000D01*
G75*
G02*
X92817000Y-91475900I0J8100D01*
G01*
X92817000Y-90632100D01*
G75*
G02*
X92825100Y-90624000I8100J0D01*
G01*
X93078900Y-90624000D01*
G75*
G02*
X93087000Y-90632100I0J-8100D01*
G01*
G37*
G36*
G01*
X89947000Y-87492100D02*
X89947000Y-87745900D01*
G75*
G02*
X89938900Y-87754000I-8100J0D01*
G01*
X89095100Y-87754000D01*
G75*
G02*
X89087000Y-87745900I0J8100D01*
G01*
X89087000Y-87492100D01*
G75*
G02*
X89095100Y-87484000I8100J0D01*
G01*
X89938900Y-87484000D01*
G75*
G02*
X89947000Y-87492100I0J-8100D01*
G01*
G37*
G36*
G01*
X94817000Y-88492100D02*
X94817000Y-88745900D01*
G75*
G02*
X94808900Y-88754000I-8100J0D01*
G01*
X93965100Y-88754000D01*
G75*
G02*
X93957000Y-88745900I0J8100D01*
G01*
X93957000Y-88492100D01*
G75*
G02*
X93965100Y-88484000I8100J0D01*
G01*
X94808900Y-88484000D01*
G75*
G02*
X94817000Y-88492100I0J-8100D01*
G01*
G37*
G36*
G01*
X89947000Y-89992100D02*
X89947000Y-90245900D01*
G75*
G02*
X89938900Y-90254000I-8100J0D01*
G01*
X89095100Y-90254000D01*
G75*
G02*
X89087000Y-90245900I0J8100D01*
G01*
X89087000Y-89992100D01*
G75*
G02*
X89095100Y-89984000I8100J0D01*
G01*
X89938900Y-89984000D01*
G75*
G02*
X89947000Y-89992100I0J-8100D01*
G01*
G37*
G36*
G01*
X89947000Y-86992100D02*
X89947000Y-87245900D01*
G75*
G02*
X89938900Y-87254000I-8100J0D01*
G01*
X89095100Y-87254000D01*
G75*
G02*
X89087000Y-87245900I0J8100D01*
G01*
X89087000Y-86992100D01*
G75*
G02*
X89095100Y-86984000I8100J0D01*
G01*
X89938900Y-86984000D01*
G75*
G02*
X89947000Y-86992100I0J-8100D01*
G01*
G37*
G36*
G01*
X92587000Y-90632100D02*
X92587000Y-91475900D01*
G75*
G02*
X92578900Y-91484000I-8100J0D01*
G01*
X92325100Y-91484000D01*
G75*
G02*
X92317000Y-91475900I0J8100D01*
G01*
X92317000Y-90632100D01*
G75*
G02*
X92325100Y-90624000I8100J0D01*
G01*
X92578900Y-90624000D01*
G75*
G02*
X92587000Y-90632100I0J-8100D01*
G01*
G37*
G36*
G01*
X94817000Y-89992100D02*
X94817000Y-90245900D01*
G75*
G02*
X94808900Y-90254000I-8100J0D01*
G01*
X93965100Y-90254000D01*
G75*
G02*
X93957000Y-90245900I0J8100D01*
G01*
X93957000Y-89992100D01*
G75*
G02*
X93965100Y-89984000I8100J0D01*
G01*
X94808900Y-89984000D01*
G75*
G02*
X94817000Y-89992100I0J-8100D01*
G01*
G37*
G36*
G01*
X94817000Y-87492100D02*
X94817000Y-87745900D01*
G75*
G02*
X94808900Y-87754000I-8100J0D01*
G01*
X93965100Y-87754000D01*
G75*
G02*
X93957000Y-87745900I0J8100D01*
G01*
X93957000Y-87492100D01*
G75*
G02*
X93965100Y-87484000I8100J0D01*
G01*
X94808900Y-87484000D01*
G75*
G02*
X94817000Y-87492100I0J-8100D01*
G01*
G37*
G36*
G01*
X91087000Y-90632100D02*
X91087000Y-91475900D01*
G75*
G02*
X91078900Y-91484000I-8100J0D01*
G01*
X90825100Y-91484000D01*
G75*
G02*
X90817000Y-91475900I0J8100D01*
G01*
X90817000Y-90632100D01*
G75*
G02*
X90825100Y-90624000I8100J0D01*
G01*
X91078900Y-90624000D01*
G75*
G02*
X91087000Y-90632100I0J-8100D01*
G01*
G37*
G36*
G01*
X91087000Y-85762100D02*
X91087000Y-86605900D01*
G75*
G02*
X91078900Y-86614000I-8100J0D01*
G01*
X90825100Y-86614000D01*
G75*
G02*
X90817000Y-86605900I0J8100D01*
G01*
X90817000Y-85762100D01*
G75*
G02*
X90825100Y-85754000I8100J0D01*
G01*
X91078900Y-85754000D01*
G75*
G02*
X91087000Y-85762100I0J-8100D01*
G01*
G37*
G36*
G01*
X89947000Y-88992100D02*
X89947000Y-89245900D01*
G75*
G02*
X89938900Y-89254000I-8100J0D01*
G01*
X89095100Y-89254000D01*
G75*
G02*
X89087000Y-89245900I0J8100D01*
G01*
X89087000Y-88992100D01*
G75*
G02*
X89095100Y-88984000I8100J0D01*
G01*
X89938900Y-88984000D01*
G75*
G02*
X89947000Y-88992100I0J-8100D01*
G01*
G37*
G36*
G01*
X90587000Y-85762100D02*
X90587000Y-86605900D01*
G75*
G02*
X90578900Y-86614000I-8100J0D01*
G01*
X90325100Y-86614000D01*
G75*
G02*
X90317000Y-86605900I0J8100D01*
G01*
X90317000Y-85762100D01*
G75*
G02*
X90325100Y-85754000I8100J0D01*
G01*
X90578900Y-85754000D01*
G75*
G02*
X90587000Y-85762100I0J-8100D01*
G01*
G37*
G36*
G01*
X89947000Y-89492100D02*
X89947000Y-89745900D01*
G75*
G02*
X89938900Y-89754000I-8100J0D01*
G01*
X89095100Y-89754000D01*
G75*
G02*
X89087000Y-89745900I0J8100D01*
G01*
X89087000Y-89492100D01*
G75*
G02*
X89095100Y-89484000I8100J0D01*
G01*
X89938900Y-89484000D01*
G75*
G02*
X89947000Y-89492100I0J-8100D01*
G01*
G37*
G36*
G01*
X94817000Y-87992100D02*
X94817000Y-88245900D01*
G75*
G02*
X94808900Y-88254000I-8100J0D01*
G01*
X93965100Y-88254000D01*
G75*
G02*
X93957000Y-88245900I0J8100D01*
G01*
X93957000Y-87992100D01*
G75*
G02*
X93965100Y-87984000I8100J0D01*
G01*
X94808900Y-87984000D01*
G75*
G02*
X94817000Y-87992100I0J-8100D01*
G01*
G37*
G36*
G01*
X89947000Y-87992100D02*
X89947000Y-88245900D01*
G75*
G02*
X89938900Y-88254000I-8100J0D01*
G01*
X89095100Y-88254000D01*
G75*
G02*
X89087000Y-88245900I0J8100D01*
G01*
X89087000Y-87992100D01*
G75*
G02*
X89095100Y-87984000I8100J0D01*
G01*
X89938900Y-87984000D01*
G75*
G02*
X89947000Y-87992100I0J-8100D01*
G01*
G37*
G36*
G01*
X91587000Y-90632100D02*
X91587000Y-91475900D01*
G75*
G02*
X91578900Y-91484000I-8100J0D01*
G01*
X91325100Y-91484000D01*
G75*
G02*
X91317000Y-91475900I0J8100D01*
G01*
X91317000Y-90632100D01*
G75*
G02*
X91325100Y-90624000I8100J0D01*
G01*
X91578900Y-90624000D01*
G75*
G02*
X91587000Y-90632100I0J-8100D01*
G01*
G37*
G36*
G01*
X92587000Y-85762100D02*
X92587000Y-86605900D01*
G75*
G02*
X92578900Y-86614000I-8100J0D01*
G01*
X92325100Y-86614000D01*
G75*
G02*
X92317000Y-86605900I0J8100D01*
G01*
X92317000Y-85762100D01*
G75*
G02*
X92325100Y-85754000I8100J0D01*
G01*
X92578900Y-85754000D01*
G75*
G02*
X92587000Y-85762100I0J-8100D01*
G01*
G37*
G36*
G01*
X92087000Y-85762100D02*
X92087000Y-86605900D01*
G75*
G02*
X92078900Y-86614000I-8100J0D01*
G01*
X91825100Y-86614000D01*
G75*
G02*
X91817000Y-86605900I0J8100D01*
G01*
X91817000Y-85762100D01*
G75*
G02*
X91825100Y-85754000I8100J0D01*
G01*
X92078900Y-85754000D01*
G75*
G02*
X92087000Y-85762100I0J-8100D01*
G01*
G37*
G36*
G01*
X94817000Y-88992100D02*
X94817000Y-89245900D01*
G75*
G02*
X94808900Y-89254000I-8100J0D01*
G01*
X93965100Y-89254000D01*
G75*
G02*
X93957000Y-89245900I0J8100D01*
G01*
X93957000Y-88992100D01*
G75*
G02*
X93965100Y-88984000I8100J0D01*
G01*
X94808900Y-88984000D01*
G75*
G02*
X94817000Y-88992100I0J-8100D01*
G01*
G37*
G36*
G01*
X94817000Y-89492100D02*
X94817000Y-89745900D01*
G75*
G02*
X94808900Y-89754000I-8100J0D01*
G01*
X93965100Y-89754000D01*
G75*
G02*
X93957000Y-89745900I0J8100D01*
G01*
X93957000Y-89492100D01*
G75*
G02*
X93965100Y-89484000I8100J0D01*
G01*
X94808900Y-89484000D01*
G75*
G02*
X94817000Y-89492100I0J-8100D01*
G01*
G37*
G04 #@! TD*
G04 #@! TO.C,C2*
G36*
G01*
X84420500Y-73963300D02*
X84420500Y-74303300D01*
G75*
G02*
X84280500Y-74443300I-140000J0D01*
G01*
X84000500Y-74443300D01*
G75*
G02*
X83860500Y-74303300I0J140000D01*
G01*
X83860500Y-73963300D01*
G75*
G02*
X84000500Y-73823300I140000J0D01*
G01*
X84280500Y-73823300D01*
G75*
G02*
X84420500Y-73963300I0J-140000D01*
G01*
G37*
G36*
G01*
X83460500Y-73963300D02*
X83460500Y-74303300D01*
G75*
G02*
X83320500Y-74443300I-140000J0D01*
G01*
X83040500Y-74443300D01*
G75*
G02*
X82900500Y-74303300I0J140000D01*
G01*
X82900500Y-73963300D01*
G75*
G02*
X83040500Y-73823300I140000J0D01*
G01*
X83320500Y-73823300D01*
G75*
G02*
X83460500Y-73963300I0J-140000D01*
G01*
G37*
G04 #@! TD*
G04 #@! TO.C,C5*
G36*
G01*
X89291500Y-76219300D02*
X88951500Y-76219300D01*
G75*
G02*
X88811500Y-76079300I0J140000D01*
G01*
X88811500Y-75799300D01*
G75*
G02*
X88951500Y-75659300I140000J0D01*
G01*
X89291500Y-75659300D01*
G75*
G02*
X89431500Y-75799300I0J-140000D01*
G01*
X89431500Y-76079300D01*
G75*
G02*
X89291500Y-76219300I-140000J0D01*
G01*
G37*
G36*
G01*
X89291500Y-77179300D02*
X88951500Y-77179300D01*
G75*
G02*
X88811500Y-77039300I0J140000D01*
G01*
X88811500Y-76759300D01*
G75*
G02*
X88951500Y-76619300I140000J0D01*
G01*
X89291500Y-76619300D01*
G75*
G02*
X89431500Y-76759300I0J-140000D01*
G01*
X89431500Y-77039300D01*
G75*
G02*
X89291500Y-77179300I-140000J0D01*
G01*
G37*
G04 #@! TD*
G04 #@! TO.C,C17*
G36*
G01*
X93403500Y-61400000D02*
X93403500Y-61060000D01*
G75*
G02*
X93543500Y-60920000I140000J0D01*
G01*
X93823500Y-60920000D01*
G75*
G02*
X93963500Y-61060000I0J-140000D01*
G01*
X93963500Y-61400000D01*
G75*
G02*
X93823500Y-61540000I-140000J0D01*
G01*
X93543500Y-61540000D01*
G75*
G02*
X93403500Y-61400000I0J140000D01*
G01*
G37*
G36*
G01*
X92443500Y-61400000D02*
X92443500Y-61060000D01*
G75*
G02*
X92583500Y-60920000I140000J0D01*
G01*
X92863500Y-60920000D01*
G75*
G02*
X93003500Y-61060000I0J-140000D01*
G01*
X93003500Y-61400000D01*
G75*
G02*
X92863500Y-61540000I-140000J0D01*
G01*
X92583500Y-61540000D01*
G75*
G02*
X92443500Y-61400000I0J140000D01*
G01*
G37*
G04 #@! TD*
G04 #@! TO.C,C18*
G36*
G01*
X77684500Y-39198500D02*
X77684500Y-38858500D01*
G75*
G02*
X77824500Y-38718500I140000J0D01*
G01*
X78104500Y-38718500D01*
G75*
G02*
X78244500Y-38858500I0J-140000D01*
G01*
X78244500Y-39198500D01*
G75*
G02*
X78104500Y-39338500I-140000J0D01*
G01*
X77824500Y-39338500D01*
G75*
G02*
X77684500Y-39198500I0J140000D01*
G01*
G37*
G36*
G01*
X76724500Y-39198500D02*
X76724500Y-38858500D01*
G75*
G02*
X76864500Y-38718500I140000J0D01*
G01*
X77144500Y-38718500D01*
G75*
G02*
X77284500Y-38858500I0J-140000D01*
G01*
X77284500Y-39198500D01*
G75*
G02*
X77144500Y-39338500I-140000J0D01*
G01*
X76864500Y-39338500D01*
G75*
G02*
X76724500Y-39198500I0J140000D01*
G01*
G37*
G04 #@! TD*
G04 #@! TO.C,C19*
G36*
G01*
X91868000Y-61060000D02*
X91868000Y-61400000D01*
G75*
G02*
X91728000Y-61540000I-140000J0D01*
G01*
X91448000Y-61540000D01*
G75*
G02*
X91308000Y-61400000I0J140000D01*
G01*
X91308000Y-61060000D01*
G75*
G02*
X91448000Y-60920000I140000J0D01*
G01*
X91728000Y-60920000D01*
G75*
G02*
X91868000Y-61060000I0J-140000D01*
G01*
G37*
G36*
G01*
X90908000Y-61060000D02*
X90908000Y-61400000D01*
G75*
G02*
X90768000Y-61540000I-140000J0D01*
G01*
X90488000Y-61540000D01*
G75*
G02*
X90348000Y-61400000I0J140000D01*
G01*
X90348000Y-61060000D01*
G75*
G02*
X90488000Y-60920000I140000J0D01*
G01*
X90768000Y-60920000D01*
G75*
G02*
X90908000Y-61060000I0J-140000D01*
G01*
G37*
G04 #@! TD*
G04 #@! TO.C,C20*
G36*
G01*
X74998500Y-38858500D02*
X74998500Y-39198500D01*
G75*
G02*
X74858500Y-39338500I-140000J0D01*
G01*
X74578500Y-39338500D01*
G75*
G02*
X74438500Y-39198500I0J140000D01*
G01*
X74438500Y-38858500D01*
G75*
G02*
X74578500Y-38718500I140000J0D01*
G01*
X74858500Y-38718500D01*
G75*
G02*
X74998500Y-38858500I0J-140000D01*
G01*
G37*
G36*
G01*
X75958500Y-38858500D02*
X75958500Y-39198500D01*
G75*
G02*
X75818500Y-39338500I-140000J0D01*
G01*
X75538500Y-39338500D01*
G75*
G02*
X75398500Y-39198500I0J140000D01*
G01*
X75398500Y-38858500D01*
G75*
G02*
X75538500Y-38718500I140000J0D01*
G01*
X75818500Y-38718500D01*
G75*
G02*
X75958500Y-38858500I0J-140000D01*
G01*
G37*
G04 #@! TD*
G04 #@! TO.C,C21*
G36*
G01*
X94870000Y-64120000D02*
X94530000Y-64120000D01*
G75*
G02*
X94390000Y-63980000I0J140000D01*
G01*
X94390000Y-63700000D01*
G75*
G02*
X94530000Y-63560000I140000J0D01*
G01*
X94870000Y-63560000D01*
G75*
G02*
X95010000Y-63700000I0J-140000D01*
G01*
X95010000Y-63980000D01*
G75*
G02*
X94870000Y-64120000I-140000J0D01*
G01*
G37*
G36*
G01*
X94870000Y-65080000D02*
X94530000Y-65080000D01*
G75*
G02*
X94390000Y-64940000I0J140000D01*
G01*
X94390000Y-64660000D01*
G75*
G02*
X94530000Y-64520000I140000J0D01*
G01*
X94870000Y-64520000D01*
G75*
G02*
X95010000Y-64660000I0J-140000D01*
G01*
X95010000Y-64940000D01*
G75*
G02*
X94870000Y-65080000I-140000J0D01*
G01*
G37*
G04 #@! TD*
G04 #@! TO.C,C22*
G36*
G01*
X77482500Y-43748000D02*
X77482500Y-44088000D01*
G75*
G02*
X77342500Y-44228000I-140000J0D01*
G01*
X77062500Y-44228000D01*
G75*
G02*
X76922500Y-44088000I0J140000D01*
G01*
X76922500Y-43748000D01*
G75*
G02*
X77062500Y-43608000I140000J0D01*
G01*
X77342500Y-43608000D01*
G75*
G02*
X77482500Y-43748000I0J-140000D01*
G01*
G37*
G36*
G01*
X76522500Y-43748000D02*
X76522500Y-44088000D01*
G75*
G02*
X76382500Y-44228000I-140000J0D01*
G01*
X76102500Y-44228000D01*
G75*
G02*
X75962500Y-44088000I0J140000D01*
G01*
X75962500Y-43748000D01*
G75*
G02*
X76102500Y-43608000I140000J0D01*
G01*
X76382500Y-43608000D01*
G75*
G02*
X76522500Y-43748000I0J-140000D01*
G01*
G37*
G04 #@! TD*
G04 #@! TO.C,JP1*
G36*
G01*
X91267500Y-99665500D02*
X91267500Y-100035500D01*
G75*
G02*
X91132500Y-100170500I-135000J0D01*
G01*
X90862500Y-100170500D01*
G75*
G02*
X90727500Y-100035500I0J135000D01*
G01*
X90727500Y-99665500D01*
G75*
G02*
X90862500Y-99530500I135000J0D01*
G01*
X91132500Y-99530500D01*
G75*
G02*
X91267500Y-99665500I0J-135000D01*
G01*
G37*
G36*
G01*
X92287500Y-99665500D02*
X92287500Y-100035500D01*
G75*
G02*
X92152500Y-100170500I-135000J0D01*
G01*
X91882500Y-100170500D01*
G75*
G02*
X91747500Y-100035500I0J135000D01*
G01*
X91747500Y-99665500D01*
G75*
G02*
X91882500Y-99530500I135000J0D01*
G01*
X92152500Y-99530500D01*
G75*
G02*
X92287500Y-99665500I0J-135000D01*
G01*
G37*
G04 #@! TD*
G04 #@! TO.C,JP2*
G36*
G01*
X97535500Y-89493000D02*
X97535500Y-89123000D01*
G75*
G02*
X97670500Y-88988000I135000J0D01*
G01*
X97940500Y-88988000D01*
G75*
G02*
X98075500Y-89123000I0J-135000D01*
G01*
X98075500Y-89493000D01*
G75*
G02*
X97940500Y-89628000I-135000J0D01*
G01*
X97670500Y-89628000D01*
G75*
G02*
X97535500Y-89493000I0J135000D01*
G01*
G37*
G36*
G01*
X96515500Y-89493000D02*
X96515500Y-89123000D01*
G75*
G02*
X96650500Y-88988000I135000J0D01*
G01*
X96920500Y-88988000D01*
G75*
G02*
X97055500Y-89123000I0J-135000D01*
G01*
X97055500Y-89493000D01*
G75*
G02*
X96920500Y-89628000I-135000J0D01*
G01*
X96650500Y-89628000D01*
G75*
G02*
X96515500Y-89493000I0J135000D01*
G01*
G37*
G04 #@! TD*
G04 #@! TO.C,JP3*
G36*
G01*
X98075500Y-90239000D02*
X98075500Y-90609000D01*
G75*
G02*
X97940500Y-90744000I-135000J0D01*
G01*
X97670500Y-90744000D01*
G75*
G02*
X97535500Y-90609000I0J135000D01*
G01*
X97535500Y-90239000D01*
G75*
G02*
X97670500Y-90104000I135000J0D01*
G01*
X97940500Y-90104000D01*
G75*
G02*
X98075500Y-90239000I0J-135000D01*
G01*
G37*
G36*
G01*
X97055500Y-90239000D02*
X97055500Y-90609000D01*
G75*
G02*
X96920500Y-90744000I-135000J0D01*
G01*
X96650500Y-90744000D01*
G75*
G02*
X96515500Y-90609000I0J135000D01*
G01*
X96515500Y-90239000D01*
G75*
G02*
X96650500Y-90104000I135000J0D01*
G01*
X96920500Y-90104000D01*
G75*
G02*
X97055500Y-90239000I0J-135000D01*
G01*
G37*
G04 #@! TD*
G04 #@! TO.C,JP4*
G36*
G01*
X96517500Y-85185000D02*
X96517500Y-84815000D01*
G75*
G02*
X96652500Y-84680000I135000J0D01*
G01*
X96922500Y-84680000D01*
G75*
G02*
X97057500Y-84815000I0J-135000D01*
G01*
X97057500Y-85185000D01*
G75*
G02*
X96922500Y-85320000I-135000J0D01*
G01*
X96652500Y-85320000D01*
G75*
G02*
X96517500Y-85185000I0J135000D01*
G01*
G37*
G36*
G01*
X97537500Y-85185000D02*
X97537500Y-84815000D01*
G75*
G02*
X97672500Y-84680000I135000J0D01*
G01*
X97942500Y-84680000D01*
G75*
G02*
X98077500Y-84815000I0J-135000D01*
G01*
X98077500Y-85185000D01*
G75*
G02*
X97942500Y-85320000I-135000J0D01*
G01*
X97672500Y-85320000D01*
G75*
G02*
X97537500Y-85185000I0J135000D01*
G01*
G37*
G04 #@! TD*
G04 #@! TO.C,JP5*
G36*
G01*
X90729500Y-101178500D02*
X90729500Y-100808500D01*
G75*
G02*
X90864500Y-100673500I135000J0D01*
G01*
X91134500Y-100673500D01*
G75*
G02*
X91269500Y-100808500I0J-135000D01*
G01*
X91269500Y-101178500D01*
G75*
G02*
X91134500Y-101313500I-135000J0D01*
G01*
X90864500Y-101313500D01*
G75*
G02*
X90729500Y-101178500I0J135000D01*
G01*
G37*
G36*
G01*
X91749500Y-101178500D02*
X91749500Y-100808500D01*
G75*
G02*
X91884500Y-100673500I135000J0D01*
G01*
X92154500Y-100673500D01*
G75*
G02*
X92289500Y-100808500I0J-135000D01*
G01*
X92289500Y-101178500D01*
G75*
G02*
X92154500Y-101313500I-135000J0D01*
G01*
X91884500Y-101313500D01*
G75*
G02*
X91749500Y-101178500I0J135000D01*
G01*
G37*
G04 #@! TD*
G04 #@! TO.C,JP6*
G36*
G01*
X97055500Y-85902000D02*
X97055500Y-86272000D01*
G75*
G02*
X96920500Y-86407000I-135000J0D01*
G01*
X96650500Y-86407000D01*
G75*
G02*
X96515500Y-86272000I0J135000D01*
G01*
X96515500Y-85902000D01*
G75*
G02*
X96650500Y-85767000I135000J0D01*
G01*
X96920500Y-85767000D01*
G75*
G02*
X97055500Y-85902000I0J-135000D01*
G01*
G37*
G36*
G01*
X98075500Y-85902000D02*
X98075500Y-86272000D01*
G75*
G02*
X97940500Y-86407000I-135000J0D01*
G01*
X97670500Y-86407000D01*
G75*
G02*
X97535500Y-86272000I0J135000D01*
G01*
X97535500Y-85902000D01*
G75*
G02*
X97670500Y-85767000I135000J0D01*
G01*
X97940500Y-85767000D01*
G75*
G02*
X98075500Y-85902000I0J-135000D01*
G01*
G37*
G04 #@! TD*
G04 #@! TO.C,L1*
G36*
G01*
X85824500Y-73211800D02*
X85824500Y-72841800D01*
G75*
G02*
X85959500Y-72706800I135000J0D01*
G01*
X86229500Y-72706800D01*
G75*
G02*
X86364500Y-72841800I0J-135000D01*
G01*
X86364500Y-73211800D01*
G75*
G02*
X86229500Y-73346800I-135000J0D01*
G01*
X85959500Y-73346800D01*
G75*
G02*
X85824500Y-73211800I0J135000D01*
G01*
G37*
G36*
G01*
X84804500Y-73211800D02*
X84804500Y-72841800D01*
G75*
G02*
X84939500Y-72706800I135000J0D01*
G01*
X85209500Y-72706800D01*
G75*
G02*
X85344500Y-72841800I0J-135000D01*
G01*
X85344500Y-73211800D01*
G75*
G02*
X85209500Y-73346800I-135000J0D01*
G01*
X84939500Y-73346800D01*
G75*
G02*
X84804500Y-73211800I0J135000D01*
G01*
G37*
G04 #@! TD*
G04 #@! TO.C,L2*
G36*
G01*
X91420000Y-60285000D02*
X91420000Y-59915000D01*
G75*
G02*
X91555000Y-59780000I135000J0D01*
G01*
X91825000Y-59780000D01*
G75*
G02*
X91960000Y-59915000I0J-135000D01*
G01*
X91960000Y-60285000D01*
G75*
G02*
X91825000Y-60420000I-135000J0D01*
G01*
X91555000Y-60420000D01*
G75*
G02*
X91420000Y-60285000I0J135000D01*
G01*
G37*
G36*
G01*
X92440000Y-60285000D02*
X92440000Y-59915000D01*
G75*
G02*
X92575000Y-59780000I135000J0D01*
G01*
X92845000Y-59780000D01*
G75*
G02*
X92980000Y-59915000I0J-135000D01*
G01*
X92980000Y-60285000D01*
G75*
G02*
X92845000Y-60420000I-135000J0D01*
G01*
X92575000Y-60420000D01*
G75*
G02*
X92440000Y-60285000I0J135000D01*
G01*
G37*
G04 #@! TD*
G04 #@! TO.C,L3*
G36*
G01*
X76730000Y-37985000D02*
X76730000Y-37615000D01*
G75*
G02*
X76865000Y-37480000I135000J0D01*
G01*
X77135000Y-37480000D01*
G75*
G02*
X77270000Y-37615000I0J-135000D01*
G01*
X77270000Y-37985000D01*
G75*
G02*
X77135000Y-38120000I-135000J0D01*
G01*
X76865000Y-38120000D01*
G75*
G02*
X76730000Y-37985000I0J135000D01*
G01*
G37*
G36*
G01*
X75710000Y-37985000D02*
X75710000Y-37615000D01*
G75*
G02*
X75845000Y-37480000I135000J0D01*
G01*
X76115000Y-37480000D01*
G75*
G02*
X76250000Y-37615000I0J-135000D01*
G01*
X76250000Y-37985000D01*
G75*
G02*
X76115000Y-38120000I-135000J0D01*
G01*
X75845000Y-38120000D01*
G75*
G02*
X75710000Y-37985000I0J135000D01*
G01*
G37*
G04 #@! TD*
G04 #@! TO.C,R1*
G36*
G01*
X92264000Y-92770000D02*
X91894000Y-92770000D01*
G75*
G02*
X91759000Y-92635000I0J135000D01*
G01*
X91759000Y-92365000D01*
G75*
G02*
X91894000Y-92230000I135000J0D01*
G01*
X92264000Y-92230000D01*
G75*
G02*
X92399000Y-92365000I0J-135000D01*
G01*
X92399000Y-92635000D01*
G75*
G02*
X92264000Y-92770000I-135000J0D01*
G01*
G37*
G36*
G01*
X92264000Y-93790000D02*
X91894000Y-93790000D01*
G75*
G02*
X91759000Y-93655000I0J135000D01*
G01*
X91759000Y-93385000D01*
G75*
G02*
X91894000Y-93250000I135000J0D01*
G01*
X92264000Y-93250000D01*
G75*
G02*
X92399000Y-93385000I0J-135000D01*
G01*
X92399000Y-93655000D01*
G75*
G02*
X92264000Y-93790000I-135000J0D01*
G01*
G37*
G04 #@! TD*
G04 #@! TO.C,R3*
G36*
G01*
X95285000Y-84015000D02*
X94915000Y-84015000D01*
G75*
G02*
X94780000Y-83880000I0J135000D01*
G01*
X94780000Y-83610000D01*
G75*
G02*
X94915000Y-83475000I135000J0D01*
G01*
X95285000Y-83475000D01*
G75*
G02*
X95420000Y-83610000I0J-135000D01*
G01*
X95420000Y-83880000D01*
G75*
G02*
X95285000Y-84015000I-135000J0D01*
G01*
G37*
G36*
G01*
X95285000Y-85035000D02*
X94915000Y-85035000D01*
G75*
G02*
X94780000Y-84900000I0J135000D01*
G01*
X94780000Y-84630000D01*
G75*
G02*
X94915000Y-84495000I135000J0D01*
G01*
X95285000Y-84495000D01*
G75*
G02*
X95420000Y-84630000I0J-135000D01*
G01*
X95420000Y-84900000D01*
G75*
G02*
X95285000Y-85035000I-135000J0D01*
G01*
G37*
G04 #@! TD*
G04 #@! TO.C,R4*
G36*
G01*
X98075500Y-92471000D02*
X98075500Y-92841000D01*
G75*
G02*
X97940500Y-92976000I-135000J0D01*
G01*
X97670500Y-92976000D01*
G75*
G02*
X97535500Y-92841000I0J135000D01*
G01*
X97535500Y-92471000D01*
G75*
G02*
X97670500Y-92336000I135000J0D01*
G01*
X97940500Y-92336000D01*
G75*
G02*
X98075500Y-92471000I0J-135000D01*
G01*
G37*
G36*
G01*
X97055500Y-92471000D02*
X97055500Y-92841000D01*
G75*
G02*
X96920500Y-92976000I-135000J0D01*
G01*
X96650500Y-92976000D01*
G75*
G02*
X96515500Y-92841000I0J135000D01*
G01*
X96515500Y-92471000D01*
G75*
G02*
X96650500Y-92336000I135000J0D01*
G01*
X96920500Y-92336000D01*
G75*
G02*
X97055500Y-92471000I0J-135000D01*
G01*
G37*
G04 #@! TD*
G04 #@! TO.C,R5*
G36*
G01*
X97055500Y-91355000D02*
X97055500Y-91725000D01*
G75*
G02*
X96920500Y-91860000I-135000J0D01*
G01*
X96650500Y-91860000D01*
G75*
G02*
X96515500Y-91725000I0J135000D01*
G01*
X96515500Y-91355000D01*
G75*
G02*
X96650500Y-91220000I135000J0D01*
G01*
X96920500Y-91220000D01*
G75*
G02*
X97055500Y-91355000I0J-135000D01*
G01*
G37*
G36*
G01*
X98075500Y-91355000D02*
X98075500Y-91725000D01*
G75*
G02*
X97940500Y-91860000I-135000J0D01*
G01*
X97670500Y-91860000D01*
G75*
G02*
X97535500Y-91725000I0J135000D01*
G01*
X97535500Y-91355000D01*
G75*
G02*
X97670500Y-91220000I135000J0D01*
G01*
X97940500Y-91220000D01*
G75*
G02*
X98075500Y-91355000I0J-135000D01*
G01*
G37*
G04 #@! TD*
G04 #@! TO.C,R10*
G36*
G01*
X94262500Y-38823000D02*
X94262500Y-38453000D01*
G75*
G02*
X94397500Y-38318000I135000J0D01*
G01*
X94667500Y-38318000D01*
G75*
G02*
X94802500Y-38453000I0J-135000D01*
G01*
X94802500Y-38823000D01*
G75*
G02*
X94667500Y-38958000I-135000J0D01*
G01*
X94397500Y-38958000D01*
G75*
G02*
X94262500Y-38823000I0J135000D01*
G01*
G37*
G36*
G01*
X93242500Y-38823000D02*
X93242500Y-38453000D01*
G75*
G02*
X93377500Y-38318000I135000J0D01*
G01*
X93647500Y-38318000D01*
G75*
G02*
X93782500Y-38453000I0J-135000D01*
G01*
X93782500Y-38823000D01*
G75*
G02*
X93647500Y-38958000I-135000J0D01*
G01*
X93377500Y-38958000D01*
G75*
G02*
X93242500Y-38823000I0J135000D01*
G01*
G37*
G04 #@! TD*
G04 #@! TO.C,R11*
G36*
G01*
X97055500Y-88007000D02*
X97055500Y-88377000D01*
G75*
G02*
X96920500Y-88512000I-135000J0D01*
G01*
X96650500Y-88512000D01*
G75*
G02*
X96515500Y-88377000I0J135000D01*
G01*
X96515500Y-88007000D01*
G75*
G02*
X96650500Y-87872000I135000J0D01*
G01*
X96920500Y-87872000D01*
G75*
G02*
X97055500Y-88007000I0J-135000D01*
G01*
G37*
G36*
G01*
X98075500Y-88007000D02*
X98075500Y-88377000D01*
G75*
G02*
X97940500Y-88512000I-135000J0D01*
G01*
X97670500Y-88512000D01*
G75*
G02*
X97535500Y-88377000I0J135000D01*
G01*
X97535500Y-88007000D01*
G75*
G02*
X97670500Y-87872000I135000J0D01*
G01*
X97940500Y-87872000D01*
G75*
G02*
X98075500Y-88007000I0J-135000D01*
G01*
G37*
G04 #@! TD*
G04 #@! TO.C,R12*
G36*
G01*
X98075500Y-86954500D02*
X98075500Y-87324500D01*
G75*
G02*
X97940500Y-87459500I-135000J0D01*
G01*
X97670500Y-87459500D01*
G75*
G02*
X97535500Y-87324500I0J135000D01*
G01*
X97535500Y-86954500D01*
G75*
G02*
X97670500Y-86819500I135000J0D01*
G01*
X97940500Y-86819500D01*
G75*
G02*
X98075500Y-86954500I0J-135000D01*
G01*
G37*
G36*
G01*
X97055500Y-86954500D02*
X97055500Y-87324500D01*
G75*
G02*
X96920500Y-87459500I-135000J0D01*
G01*
X96650500Y-87459500D01*
G75*
G02*
X96515500Y-87324500I0J135000D01*
G01*
X96515500Y-86954500D01*
G75*
G02*
X96650500Y-86819500I135000J0D01*
G01*
X96920500Y-86819500D01*
G75*
G02*
X97055500Y-86954500I0J-135000D01*
G01*
G37*
G04 #@! TD*
G04 #@! TO.C,R14*
G36*
G01*
X63196500Y-40835000D02*
X63196500Y-40465000D01*
G75*
G02*
X63331500Y-40330000I135000J0D01*
G01*
X63601500Y-40330000D01*
G75*
G02*
X63736500Y-40465000I0J-135000D01*
G01*
X63736500Y-40835000D01*
G75*
G02*
X63601500Y-40970000I-135000J0D01*
G01*
X63331500Y-40970000D01*
G75*
G02*
X63196500Y-40835000I0J135000D01*
G01*
G37*
G36*
G01*
X64216500Y-40835000D02*
X64216500Y-40465000D01*
G75*
G02*
X64351500Y-40330000I135000J0D01*
G01*
X64621500Y-40330000D01*
G75*
G02*
X64756500Y-40465000I0J-135000D01*
G01*
X64756500Y-40835000D01*
G75*
G02*
X64621500Y-40970000I-135000J0D01*
G01*
X64351500Y-40970000D01*
G75*
G02*
X64216500Y-40835000I0J135000D01*
G01*
G37*
G04 #@! TD*
G04 #@! TO.C,R15*
G36*
G01*
X63260000Y-43375000D02*
X63260000Y-43005000D01*
G75*
G02*
X63395000Y-42870000I135000J0D01*
G01*
X63665000Y-42870000D01*
G75*
G02*
X63800000Y-43005000I0J-135000D01*
G01*
X63800000Y-43375000D01*
G75*
G02*
X63665000Y-43510000I-135000J0D01*
G01*
X63395000Y-43510000D01*
G75*
G02*
X63260000Y-43375000I0J135000D01*
G01*
G37*
G36*
G01*
X64280000Y-43375000D02*
X64280000Y-43005000D01*
G75*
G02*
X64415000Y-42870000I135000J0D01*
G01*
X64685000Y-42870000D01*
G75*
G02*
X64820000Y-43005000I0J-135000D01*
G01*
X64820000Y-43375000D01*
G75*
G02*
X64685000Y-43510000I-135000J0D01*
G01*
X64415000Y-43510000D01*
G75*
G02*
X64280000Y-43375000I0J135000D01*
G01*
G37*
G04 #@! TD*
G04 #@! TO.C,R16*
G36*
G01*
X64280000Y-45788000D02*
X64280000Y-45418000D01*
G75*
G02*
X64415000Y-45283000I135000J0D01*
G01*
X64685000Y-45283000D01*
G75*
G02*
X64820000Y-45418000I0J-135000D01*
G01*
X64820000Y-45788000D01*
G75*
G02*
X64685000Y-45923000I-135000J0D01*
G01*
X64415000Y-45923000D01*
G75*
G02*
X64280000Y-45788000I0J135000D01*
G01*
G37*
G36*
G01*
X63260000Y-45788000D02*
X63260000Y-45418000D01*
G75*
G02*
X63395000Y-45283000I135000J0D01*
G01*
X63665000Y-45283000D01*
G75*
G02*
X63800000Y-45418000I0J-135000D01*
G01*
X63800000Y-45788000D01*
G75*
G02*
X63665000Y-45923000I-135000J0D01*
G01*
X63395000Y-45923000D01*
G75*
G02*
X63260000Y-45788000I0J135000D01*
G01*
G37*
G04 #@! TD*
G04 #@! TO.C,R17*
G36*
G01*
X63323500Y-48328000D02*
X63323500Y-47958000D01*
G75*
G02*
X63458500Y-47823000I135000J0D01*
G01*
X63728500Y-47823000D01*
G75*
G02*
X63863500Y-47958000I0J-135000D01*
G01*
X63863500Y-48328000D01*
G75*
G02*
X63728500Y-48463000I-135000J0D01*
G01*
X63458500Y-48463000D01*
G75*
G02*
X63323500Y-48328000I0J135000D01*
G01*
G37*
G36*
G01*
X64343500Y-48328000D02*
X64343500Y-47958000D01*
G75*
G02*
X64478500Y-47823000I135000J0D01*
G01*
X64748500Y-47823000D01*
G75*
G02*
X64883500Y-47958000I0J-135000D01*
G01*
X64883500Y-48328000D01*
G75*
G02*
X64748500Y-48463000I-135000J0D01*
G01*
X64478500Y-48463000D01*
G75*
G02*
X64343500Y-48328000I0J135000D01*
G01*
G37*
G04 #@! TD*
D12*
G04 #@! TO.C,U1*
X86645000Y-74593800D03*
X87595000Y-76593800D03*
X85695000Y-76593800D03*
G04 #@! TD*
G04 #@! TO.C,U3*
X92214500Y-62770000D03*
X93164500Y-64770000D03*
X91264500Y-64770000D03*
G04 #@! TD*
G04 #@! TO.C,U4*
X75391500Y-42441500D03*
X77291500Y-42441500D03*
X76341500Y-40441500D03*
G04 #@! TD*
D13*
G04 #@! TO.C,ADS1241*
X86580000Y-47796000D03*
X87230000Y-47796000D03*
X87880000Y-47796000D03*
X88530000Y-47796000D03*
X89180000Y-47796000D03*
X89830000Y-47796000D03*
X90480000Y-47796000D03*
X91130000Y-47796000D03*
X91780000Y-47796000D03*
X92430000Y-47796000D03*
X93080000Y-47796000D03*
X93730000Y-47796000D03*
X94380000Y-47796000D03*
X95030000Y-47796000D03*
X95030000Y-40596000D03*
X94380000Y-40596000D03*
X93730000Y-40596000D03*
X93080000Y-40596000D03*
X92430000Y-40596000D03*
X91780000Y-40596000D03*
X91130000Y-40596000D03*
X90480000Y-40596000D03*
X89830000Y-40596000D03*
X89180000Y-40596000D03*
X88530000Y-40596000D03*
X87880000Y-40596000D03*
X87230000Y-40596000D03*
X86580000Y-40596000D03*
G04 #@! TD*
G04 #@! TO.C,R8*
G36*
G01*
X79285000Y-41880000D02*
X78915000Y-41880000D01*
G75*
G02*
X78780000Y-41745000I0J135000D01*
G01*
X78780000Y-41475000D01*
G75*
G02*
X78915000Y-41340000I135000J0D01*
G01*
X79285000Y-41340000D01*
G75*
G02*
X79420000Y-41475000I0J-135000D01*
G01*
X79420000Y-41745000D01*
G75*
G02*
X79285000Y-41880000I-135000J0D01*
G01*
G37*
G36*
G01*
X79285000Y-40860000D02*
X78915000Y-40860000D01*
G75*
G02*
X78780000Y-40725000I0J135000D01*
G01*
X78780000Y-40455000D01*
G75*
G02*
X78915000Y-40320000I135000J0D01*
G01*
X79285000Y-40320000D01*
G75*
G02*
X79420000Y-40455000I0J-135000D01*
G01*
X79420000Y-40725000D01*
G75*
G02*
X79285000Y-40860000I-135000J0D01*
G01*
G37*
G04 #@! TD*
G04 #@! TO.C,D1*
G36*
G01*
X86523500Y-78449050D02*
X86523500Y-78961550D01*
G75*
G02*
X86304750Y-79180300I-218750J0D01*
G01*
X85867250Y-79180300D01*
G75*
G02*
X85648500Y-78961550I0J218750D01*
G01*
X85648500Y-78449050D01*
G75*
G02*
X85867250Y-78230300I218750J0D01*
G01*
X86304750Y-78230300D01*
G75*
G02*
X86523500Y-78449050I0J-218750D01*
G01*
G37*
G36*
G01*
X88098500Y-78449050D02*
X88098500Y-78961550D01*
G75*
G02*
X87879750Y-79180300I-218750J0D01*
G01*
X87442250Y-79180300D01*
G75*
G02*
X87223500Y-78961550I0J218750D01*
G01*
X87223500Y-78449050D01*
G75*
G02*
X87442250Y-78230300I218750J0D01*
G01*
X87879750Y-78230300D01*
G75*
G02*
X88098500Y-78449050I0J-218750D01*
G01*
G37*
G04 #@! TD*
G04 #@! TO.C,C1*
G36*
G01*
X90060000Y-92130000D02*
X90060000Y-92470000D01*
G75*
G02*
X89920000Y-92610000I-140000J0D01*
G01*
X89640000Y-92610000D01*
G75*
G02*
X89500000Y-92470000I0J140000D01*
G01*
X89500000Y-92130000D01*
G75*
G02*
X89640000Y-91990000I140000J0D01*
G01*
X89920000Y-91990000D01*
G75*
G02*
X90060000Y-92130000I0J-140000D01*
G01*
G37*
G36*
G01*
X89100000Y-92130000D02*
X89100000Y-92470000D01*
G75*
G02*
X88960000Y-92610000I-140000J0D01*
G01*
X88680000Y-92610000D01*
G75*
G02*
X88540000Y-92470000I0J140000D01*
G01*
X88540000Y-92130000D01*
G75*
G02*
X88680000Y-91990000I140000J0D01*
G01*
X88960000Y-91990000D01*
G75*
G02*
X89100000Y-92130000I0J-140000D01*
G01*
G37*
G04 #@! TD*
G04 #@! TO.C,C3*
G36*
G01*
X95030000Y-93400000D02*
X95370000Y-93400000D01*
G75*
G02*
X95510000Y-93540000I0J-140000D01*
G01*
X95510000Y-93820000D01*
G75*
G02*
X95370000Y-93960000I-140000J0D01*
G01*
X95030000Y-93960000D01*
G75*
G02*
X94890000Y-93820000I0J140000D01*
G01*
X94890000Y-93540000D01*
G75*
G02*
X95030000Y-93400000I140000J0D01*
G01*
G37*
G36*
G01*
X95030000Y-92440000D02*
X95370000Y-92440000D01*
G75*
G02*
X95510000Y-92580000I0J-140000D01*
G01*
X95510000Y-92860000D01*
G75*
G02*
X95370000Y-93000000I-140000J0D01*
G01*
X95030000Y-93000000D01*
G75*
G02*
X94890000Y-92860000I0J140000D01*
G01*
X94890000Y-92580000D01*
G75*
G02*
X95030000Y-92440000I140000J0D01*
G01*
G37*
G04 #@! TD*
G04 #@! TO.C,C7*
G36*
G01*
X91487000Y-84055000D02*
X91147000Y-84055000D01*
G75*
G02*
X91007000Y-83915000I0J140000D01*
G01*
X91007000Y-83635000D01*
G75*
G02*
X91147000Y-83495000I140000J0D01*
G01*
X91487000Y-83495000D01*
G75*
G02*
X91627000Y-83635000I0J-140000D01*
G01*
X91627000Y-83915000D01*
G75*
G02*
X91487000Y-84055000I-140000J0D01*
G01*
G37*
G36*
G01*
X91487000Y-85015000D02*
X91147000Y-85015000D01*
G75*
G02*
X91007000Y-84875000I0J140000D01*
G01*
X91007000Y-84595000D01*
G75*
G02*
X91147000Y-84455000I140000J0D01*
G01*
X91487000Y-84455000D01*
G75*
G02*
X91627000Y-84595000I0J-140000D01*
G01*
X91627000Y-84875000D01*
G75*
G02*
X91487000Y-85015000I-140000J0D01*
G01*
G37*
G04 #@! TD*
G04 #@! TO.C,C8*
G36*
G01*
X85305000Y-98653500D02*
X85645000Y-98653500D01*
G75*
G02*
X85785000Y-98793500I0J-140000D01*
G01*
X85785000Y-99073500D01*
G75*
G02*
X85645000Y-99213500I-140000J0D01*
G01*
X85305000Y-99213500D01*
G75*
G02*
X85165000Y-99073500I0J140000D01*
G01*
X85165000Y-98793500D01*
G75*
G02*
X85305000Y-98653500I140000J0D01*
G01*
G37*
G36*
G01*
X85305000Y-97693500D02*
X85645000Y-97693500D01*
G75*
G02*
X85785000Y-97833500I0J-140000D01*
G01*
X85785000Y-98113500D01*
G75*
G02*
X85645000Y-98253500I-140000J0D01*
G01*
X85305000Y-98253500D01*
G75*
G02*
X85165000Y-98113500I0J140000D01*
G01*
X85165000Y-97833500D01*
G75*
G02*
X85305000Y-97693500I140000J0D01*
G01*
G37*
G04 #@! TD*
G04 #@! TO.C,C9*
G36*
G01*
X94190500Y-85015000D02*
X93850500Y-85015000D01*
G75*
G02*
X93710500Y-84875000I0J140000D01*
G01*
X93710500Y-84595000D01*
G75*
G02*
X93850500Y-84455000I140000J0D01*
G01*
X94190500Y-84455000D01*
G75*
G02*
X94330500Y-84595000I0J-140000D01*
G01*
X94330500Y-84875000D01*
G75*
G02*
X94190500Y-85015000I-140000J0D01*
G01*
G37*
G36*
G01*
X94190500Y-84055000D02*
X93850500Y-84055000D01*
G75*
G02*
X93710500Y-83915000I0J140000D01*
G01*
X93710500Y-83635000D01*
G75*
G02*
X93850500Y-83495000I140000J0D01*
G01*
X94190500Y-83495000D01*
G75*
G02*
X94330500Y-83635000I0J-140000D01*
G01*
X94330500Y-83915000D01*
G75*
G02*
X94190500Y-84055000I-140000J0D01*
G01*
G37*
G04 #@! TD*
G04 #@! TO.C,C10*
G36*
G01*
X85305000Y-94490500D02*
X85645000Y-94490500D01*
G75*
G02*
X85785000Y-94630500I0J-140000D01*
G01*
X85785000Y-94910500D01*
G75*
G02*
X85645000Y-95050500I-140000J0D01*
G01*
X85305000Y-95050500D01*
G75*
G02*
X85165000Y-94910500I0J140000D01*
G01*
X85165000Y-94630500D01*
G75*
G02*
X85305000Y-94490500I140000J0D01*
G01*
G37*
G36*
G01*
X85305000Y-95450500D02*
X85645000Y-95450500D01*
G75*
G02*
X85785000Y-95590500I0J-140000D01*
G01*
X85785000Y-95870500D01*
G75*
G02*
X85645000Y-96010500I-140000J0D01*
G01*
X85305000Y-96010500D01*
G75*
G02*
X85165000Y-95870500I0J140000D01*
G01*
X85165000Y-95590500D01*
G75*
G02*
X85305000Y-95450500I140000J0D01*
G01*
G37*
G04 #@! TD*
G04 #@! TO.C,C11*
G36*
G01*
X96735000Y-95415000D02*
X97075000Y-95415000D01*
G75*
G02*
X97215000Y-95555000I0J-140000D01*
G01*
X97215000Y-95835000D01*
G75*
G02*
X97075000Y-95975000I-140000J0D01*
G01*
X96735000Y-95975000D01*
G75*
G02*
X96595000Y-95835000I0J140000D01*
G01*
X96595000Y-95555000D01*
G75*
G02*
X96735000Y-95415000I140000J0D01*
G01*
G37*
G36*
G01*
X96735000Y-94455000D02*
X97075000Y-94455000D01*
G75*
G02*
X97215000Y-94595000I0J-140000D01*
G01*
X97215000Y-94875000D01*
G75*
G02*
X97075000Y-95015000I-140000J0D01*
G01*
X96735000Y-95015000D01*
G75*
G02*
X96595000Y-94875000I0J140000D01*
G01*
X96595000Y-94595000D01*
G75*
G02*
X96735000Y-94455000I140000J0D01*
G01*
G37*
G04 #@! TD*
G04 #@! TO.C,C12*
G36*
G01*
X96735000Y-97820500D02*
X97075000Y-97820500D01*
G75*
G02*
X97215000Y-97960500I0J-140000D01*
G01*
X97215000Y-98240500D01*
G75*
G02*
X97075000Y-98380500I-140000J0D01*
G01*
X96735000Y-98380500D01*
G75*
G02*
X96595000Y-98240500I0J140000D01*
G01*
X96595000Y-97960500D01*
G75*
G02*
X96735000Y-97820500I140000J0D01*
G01*
G37*
G36*
G01*
X96735000Y-98780500D02*
X97075000Y-98780500D01*
G75*
G02*
X97215000Y-98920500I0J-140000D01*
G01*
X97215000Y-99200500D01*
G75*
G02*
X97075000Y-99340500I-140000J0D01*
G01*
X96735000Y-99340500D01*
G75*
G02*
X96595000Y-99200500I0J140000D01*
G01*
X96595000Y-98920500D01*
G75*
G02*
X96735000Y-98780500I140000J0D01*
G01*
G37*
G04 #@! TD*
G04 #@! TO.C,C13*
G36*
G01*
X86800000Y-49530000D02*
X86800000Y-49870000D01*
G75*
G02*
X86660000Y-50010000I-140000J0D01*
G01*
X86380000Y-50010000D01*
G75*
G02*
X86240000Y-49870000I0J140000D01*
G01*
X86240000Y-49530000D01*
G75*
G02*
X86380000Y-49390000I140000J0D01*
G01*
X86660000Y-49390000D01*
G75*
G02*
X86800000Y-49530000I0J-140000D01*
G01*
G37*
G36*
G01*
X87760000Y-49530000D02*
X87760000Y-49870000D01*
G75*
G02*
X87620000Y-50010000I-140000J0D01*
G01*
X87340000Y-50010000D01*
G75*
G02*
X87200000Y-49870000I0J140000D01*
G01*
X87200000Y-49530000D01*
G75*
G02*
X87340000Y-49390000I140000J0D01*
G01*
X87620000Y-49390000D01*
G75*
G02*
X87760000Y-49530000I0J-140000D01*
G01*
G37*
G04 #@! TD*
G04 #@! TO.C,C14*
G36*
G01*
X88540000Y-49870000D02*
X88540000Y-49530000D01*
G75*
G02*
X88680000Y-49390000I140000J0D01*
G01*
X88960000Y-49390000D01*
G75*
G02*
X89100000Y-49530000I0J-140000D01*
G01*
X89100000Y-49870000D01*
G75*
G02*
X88960000Y-50010000I-140000J0D01*
G01*
X88680000Y-50010000D01*
G75*
G02*
X88540000Y-49870000I0J140000D01*
G01*
G37*
G36*
G01*
X89500000Y-49870000D02*
X89500000Y-49530000D01*
G75*
G02*
X89640000Y-49390000I140000J0D01*
G01*
X89920000Y-49390000D01*
G75*
G02*
X90060000Y-49530000I0J-140000D01*
G01*
X90060000Y-49870000D01*
G75*
G02*
X89920000Y-50010000I-140000J0D01*
G01*
X89640000Y-50010000D01*
G75*
G02*
X89500000Y-49870000I0J140000D01*
G01*
G37*
G04 #@! TD*
G04 #@! TO.C,C15*
G36*
G01*
X91270000Y-38360000D02*
X90930000Y-38360000D01*
G75*
G02*
X90790000Y-38220000I0J140000D01*
G01*
X90790000Y-37940000D01*
G75*
G02*
X90930000Y-37800000I140000J0D01*
G01*
X91270000Y-37800000D01*
G75*
G02*
X91410000Y-37940000I0J-140000D01*
G01*
X91410000Y-38220000D01*
G75*
G02*
X91270000Y-38360000I-140000J0D01*
G01*
G37*
G36*
G01*
X91270000Y-37400000D02*
X90930000Y-37400000D01*
G75*
G02*
X90790000Y-37260000I0J140000D01*
G01*
X90790000Y-36980000D01*
G75*
G02*
X90930000Y-36840000I140000J0D01*
G01*
X91270000Y-36840000D01*
G75*
G02*
X91410000Y-36980000I0J-140000D01*
G01*
X91410000Y-37260000D01*
G75*
G02*
X91270000Y-37400000I-140000J0D01*
G01*
G37*
G04 #@! TD*
G04 #@! TO.C,C16*
G36*
G01*
X83880000Y-47830000D02*
X83880000Y-48170000D01*
G75*
G02*
X83740000Y-48310000I-140000J0D01*
G01*
X83460000Y-48310000D01*
G75*
G02*
X83320000Y-48170000I0J140000D01*
G01*
X83320000Y-47830000D01*
G75*
G02*
X83460000Y-47690000I140000J0D01*
G01*
X83740000Y-47690000D01*
G75*
G02*
X83880000Y-47830000I0J-140000D01*
G01*
G37*
G36*
G01*
X84840000Y-47830000D02*
X84840000Y-48170000D01*
G75*
G02*
X84700000Y-48310000I-140000J0D01*
G01*
X84420000Y-48310000D01*
G75*
G02*
X84280000Y-48170000I0J140000D01*
G01*
X84280000Y-47830000D01*
G75*
G02*
X84420000Y-47690000I140000J0D01*
G01*
X84700000Y-47690000D01*
G75*
G02*
X84840000Y-47830000I0J-140000D01*
G01*
G37*
G04 #@! TD*
G04 #@! TO.C,C23*
G36*
G01*
X94200000Y-37670000D02*
X94200000Y-37330000D01*
G75*
G02*
X94340000Y-37190000I140000J0D01*
G01*
X94620000Y-37190000D01*
G75*
G02*
X94760000Y-37330000I0J-140000D01*
G01*
X94760000Y-37670000D01*
G75*
G02*
X94620000Y-37810000I-140000J0D01*
G01*
X94340000Y-37810000D01*
G75*
G02*
X94200000Y-37670000I0J140000D01*
G01*
G37*
G36*
G01*
X93240000Y-37670000D02*
X93240000Y-37330000D01*
G75*
G02*
X93380000Y-37190000I140000J0D01*
G01*
X93660000Y-37190000D01*
G75*
G02*
X93800000Y-37330000I0J-140000D01*
G01*
X93800000Y-37670000D01*
G75*
G02*
X93660000Y-37810000I-140000J0D01*
G01*
X93380000Y-37810000D01*
G75*
G02*
X93240000Y-37670000I0J140000D01*
G01*
G37*
G04 #@! TD*
G04 #@! TO.C,R6*
G36*
G01*
X90703500Y-78980000D02*
X90333500Y-78980000D01*
G75*
G02*
X90198500Y-78845000I0J135000D01*
G01*
X90198500Y-78575000D01*
G75*
G02*
X90333500Y-78440000I135000J0D01*
G01*
X90703500Y-78440000D01*
G75*
G02*
X90838500Y-78575000I0J-135000D01*
G01*
X90838500Y-78845000D01*
G75*
G02*
X90703500Y-78980000I-135000J0D01*
G01*
G37*
G36*
G01*
X90703500Y-77960000D02*
X90333500Y-77960000D01*
G75*
G02*
X90198500Y-77825000I0J135000D01*
G01*
X90198500Y-77555000D01*
G75*
G02*
X90333500Y-77420000I135000J0D01*
G01*
X90703500Y-77420000D01*
G75*
G02*
X90838500Y-77555000I0J-135000D01*
G01*
X90838500Y-77825000D01*
G75*
G02*
X90703500Y-77960000I-135000J0D01*
G01*
G37*
G04 #@! TD*
G04 #@! TO.C,R7*
G36*
G01*
X96185000Y-65950000D02*
X95815000Y-65950000D01*
G75*
G02*
X95680000Y-65815000I0J135000D01*
G01*
X95680000Y-65545000D01*
G75*
G02*
X95815000Y-65410000I135000J0D01*
G01*
X96185000Y-65410000D01*
G75*
G02*
X96320000Y-65545000I0J-135000D01*
G01*
X96320000Y-65815000D01*
G75*
G02*
X96185000Y-65950000I-135000J0D01*
G01*
G37*
G36*
G01*
X96185000Y-66970000D02*
X95815000Y-66970000D01*
G75*
G02*
X95680000Y-66835000I0J135000D01*
G01*
X95680000Y-66565000D01*
G75*
G02*
X95815000Y-66430000I135000J0D01*
G01*
X96185000Y-66430000D01*
G75*
G02*
X96320000Y-66565000I0J-135000D01*
G01*
X96320000Y-66835000D01*
G75*
G02*
X96185000Y-66970000I-135000J0D01*
G01*
G37*
G04 #@! TD*
G04 #@! TO.C,C24*
G36*
G01*
X91540000Y-49870000D02*
X91540000Y-49530000D01*
G75*
G02*
X91680000Y-49390000I140000J0D01*
G01*
X91960000Y-49390000D01*
G75*
G02*
X92100000Y-49530000I0J-140000D01*
G01*
X92100000Y-49870000D01*
G75*
G02*
X91960000Y-50010000I-140000J0D01*
G01*
X91680000Y-50010000D01*
G75*
G02*
X91540000Y-49870000I0J140000D01*
G01*
G37*
G36*
G01*
X92500000Y-49870000D02*
X92500000Y-49530000D01*
G75*
G02*
X92640000Y-49390000I140000J0D01*
G01*
X92920000Y-49390000D01*
G75*
G02*
X93060000Y-49530000I0J-140000D01*
G01*
X93060000Y-49870000D01*
G75*
G02*
X92920000Y-50010000I-140000J0D01*
G01*
X92640000Y-50010000D01*
G75*
G02*
X92500000Y-49870000I0J140000D01*
G01*
G37*
G04 #@! TD*
M02*
