G04 #@! TF.GenerationSoftware,KiCad,Pcbnew,(5.1.10)-1*
G04 #@! TF.CreationDate,2021-11-05T11:55:09+00:00*
G04 #@! TF.ProjectId,RasperryPi ECG Hat,52617370-6572-4727-9950-692045434720,rev?*
G04 #@! TF.SameCoordinates,Original*
G04 #@! TF.FileFunction,Legend,Top*
G04 #@! TF.FilePolarity,Positive*
%FSLAX46Y46*%
G04 Gerber Fmt 4.6, Leading zero omitted, Abs format (unit mm)*
G04 Created by KiCad (PCBNEW (5.1.10)-1) date 2021-11-05 11:55:09*
%MOMM*%
%LPD*%
G01*
G04 APERTURE LIST*
%ADD10C,0.100000*%
%ADD11C,0.010000*%
%ADD12C,0.120000*%
%ADD13C,0.127000*%
%ADD14C,0.200000*%
%ADD15C,0.150000*%
G04 APERTURE END LIST*
D10*
X64683659Y-111042504D02*
X64302706Y-111042504D01*
X64264611Y-111423457D01*
X64302706Y-111385361D01*
X64378897Y-111347266D01*
X64569373Y-111347266D01*
X64645563Y-111385361D01*
X64683659Y-111423457D01*
X64721754Y-111499647D01*
X64721754Y-111690123D01*
X64683659Y-111766314D01*
X64645563Y-111804409D01*
X64569373Y-111842504D01*
X64378897Y-111842504D01*
X64302706Y-111804409D01*
X64264611Y-111766314D01*
X64950325Y-111042504D02*
X65216992Y-111842504D01*
X65483659Y-111042504D01*
X77850596Y-113384095D02*
X77888691Y-113346000D01*
X77964881Y-113307904D01*
X78155358Y-113307904D01*
X78231548Y-113346000D01*
X78269643Y-113384095D01*
X78307739Y-113460285D01*
X78307739Y-113536476D01*
X78269643Y-113650761D01*
X77812500Y-114107904D01*
X78307739Y-114107904D01*
X78993453Y-113574571D02*
X78993453Y-114107904D01*
X78802977Y-113269809D02*
X78612500Y-113841238D01*
X79107739Y-113841238D01*
X71744954Y-68804754D02*
X71706859Y-68842849D01*
X71592573Y-68880944D01*
X71516382Y-68880944D01*
X71402097Y-68842849D01*
X71325906Y-68766659D01*
X71287811Y-68690468D01*
X71249716Y-68538087D01*
X71249716Y-68423801D01*
X71287811Y-68271420D01*
X71325906Y-68195230D01*
X71402097Y-68119040D01*
X71516382Y-68080944D01*
X71592573Y-68080944D01*
X71706859Y-68119040D01*
X71744954Y-68157135D01*
X72049716Y-68842849D02*
X72164001Y-68880944D01*
X72354478Y-68880944D01*
X72430668Y-68842849D01*
X72468763Y-68804754D01*
X72506859Y-68728563D01*
X72506859Y-68652373D01*
X72468763Y-68576182D01*
X72430668Y-68538087D01*
X72354478Y-68499992D01*
X72202097Y-68461897D01*
X72125906Y-68423801D01*
X72087811Y-68385706D01*
X72049716Y-68309516D01*
X72049716Y-68233325D01*
X72087811Y-68157135D01*
X72125906Y-68119040D01*
X72202097Y-68080944D01*
X72392573Y-68080944D01*
X72506859Y-68119040D01*
X73116382Y-68461897D02*
X73230668Y-68499992D01*
X73268763Y-68538087D01*
X73306859Y-68614278D01*
X73306859Y-68728563D01*
X73268763Y-68804754D01*
X73230668Y-68842849D01*
X73154478Y-68880944D01*
X72849716Y-68880944D01*
X72849716Y-68080944D01*
X73116382Y-68080944D01*
X73192573Y-68119040D01*
X73230668Y-68157135D01*
X73268763Y-68233325D01*
X73268763Y-68309516D01*
X73230668Y-68385706D01*
X73192573Y-68423801D01*
X73116382Y-68461897D01*
X72849716Y-68461897D01*
X74068763Y-68880944D02*
X73611620Y-68880944D01*
X73840192Y-68880944D02*
X73840192Y-68080944D01*
X73764001Y-68195230D01*
X73687811Y-68271420D01*
X73611620Y-68309516D01*
X71254777Y-78974904D02*
X71254777Y-78174904D01*
X71521443Y-78746333D01*
X71788110Y-78174904D01*
X71788110Y-78974904D01*
X72321443Y-78174904D02*
X72473824Y-78174904D01*
X72550015Y-78213000D01*
X72626205Y-78289190D01*
X72664300Y-78441571D01*
X72664300Y-78708238D01*
X72626205Y-78860619D01*
X72550015Y-78936809D01*
X72473824Y-78974904D01*
X72321443Y-78974904D01*
X72245253Y-78936809D01*
X72169062Y-78860619D01*
X72130967Y-78708238D01*
X72130967Y-78441571D01*
X72169062Y-78289190D01*
X72245253Y-78213000D01*
X72321443Y-78174904D01*
X72969062Y-78936809D02*
X73083348Y-78974904D01*
X73273824Y-78974904D01*
X73350015Y-78936809D01*
X73388110Y-78898714D01*
X73426205Y-78822523D01*
X73426205Y-78746333D01*
X73388110Y-78670142D01*
X73350015Y-78632047D01*
X73273824Y-78593952D01*
X73121443Y-78555857D01*
X73045253Y-78517761D01*
X73007158Y-78479666D01*
X72969062Y-78403476D01*
X72969062Y-78327285D01*
X73007158Y-78251095D01*
X73045253Y-78213000D01*
X73121443Y-78174904D01*
X73311920Y-78174904D01*
X73426205Y-78213000D01*
X73769062Y-78974904D02*
X73769062Y-78174904D01*
X71678914Y-71288874D02*
X71640819Y-71326969D01*
X71526533Y-71365064D01*
X71450342Y-71365064D01*
X71336057Y-71326969D01*
X71259866Y-71250779D01*
X71221771Y-71174588D01*
X71183676Y-71022207D01*
X71183676Y-70907921D01*
X71221771Y-70755540D01*
X71259866Y-70679350D01*
X71336057Y-70603160D01*
X71450342Y-70565064D01*
X71526533Y-70565064D01*
X71640819Y-70603160D01*
X71678914Y-70641255D01*
X71983676Y-71326969D02*
X72097961Y-71365064D01*
X72288438Y-71365064D01*
X72364628Y-71326969D01*
X72402723Y-71288874D01*
X72440819Y-71212683D01*
X72440819Y-71136493D01*
X72402723Y-71060302D01*
X72364628Y-71022207D01*
X72288438Y-70984112D01*
X72136057Y-70946017D01*
X72059866Y-70907921D01*
X72021771Y-70869826D01*
X71983676Y-70793636D01*
X71983676Y-70717445D01*
X72021771Y-70641255D01*
X72059866Y-70603160D01*
X72136057Y-70565064D01*
X72326533Y-70565064D01*
X72440819Y-70603160D01*
X73050342Y-70946017D02*
X73164628Y-70984112D01*
X73202723Y-71022207D01*
X73240819Y-71098398D01*
X73240819Y-71212683D01*
X73202723Y-71288874D01*
X73164628Y-71326969D01*
X73088438Y-71365064D01*
X72783676Y-71365064D01*
X72783676Y-70565064D01*
X73050342Y-70565064D01*
X73126533Y-70603160D01*
X73164628Y-70641255D01*
X73202723Y-70717445D01*
X73202723Y-70793636D01*
X73164628Y-70869826D01*
X73126533Y-70907921D01*
X73050342Y-70946017D01*
X72783676Y-70946017D01*
X73545580Y-70641255D02*
X73583676Y-70603160D01*
X73659866Y-70565064D01*
X73850342Y-70565064D01*
X73926533Y-70603160D01*
X73964628Y-70641255D01*
X74002723Y-70717445D01*
X74002723Y-70793636D01*
X73964628Y-70907921D01*
X73507485Y-71365064D01*
X74002723Y-71365064D01*
X71198897Y-76384104D02*
X71198897Y-75584104D01*
X71465563Y-76155533D01*
X71732230Y-75584104D01*
X71732230Y-76384104D01*
X72113182Y-76384104D02*
X72113182Y-75584104D01*
X72456040Y-76346009D02*
X72570325Y-76384104D01*
X72760801Y-76384104D01*
X72836992Y-76346009D01*
X72875087Y-76307914D01*
X72913182Y-76231723D01*
X72913182Y-76155533D01*
X72875087Y-76079342D01*
X72836992Y-76041247D01*
X72760801Y-76003152D01*
X72608420Y-75965057D01*
X72532230Y-75926961D01*
X72494135Y-75888866D01*
X72456040Y-75812676D01*
X72456040Y-75736485D01*
X72494135Y-75660295D01*
X72532230Y-75622200D01*
X72608420Y-75584104D01*
X72798897Y-75584104D01*
X72913182Y-75622200D01*
X73408420Y-75584104D02*
X73560801Y-75584104D01*
X73636992Y-75622200D01*
X73713182Y-75698390D01*
X73751278Y-75850771D01*
X73751278Y-76117438D01*
X73713182Y-76269819D01*
X73636992Y-76346009D01*
X73560801Y-76384104D01*
X73408420Y-76384104D01*
X73332230Y-76346009D01*
X73256040Y-76269819D01*
X73217944Y-76117438D01*
X73217944Y-75850771D01*
X73256040Y-75698390D01*
X73332230Y-75622200D01*
X73408420Y-75584104D01*
X71256059Y-73861889D02*
X71370344Y-73899984D01*
X71560820Y-73899984D01*
X71637011Y-73861889D01*
X71675106Y-73823794D01*
X71713201Y-73747603D01*
X71713201Y-73671413D01*
X71675106Y-73595222D01*
X71637011Y-73557127D01*
X71560820Y-73519032D01*
X71408440Y-73480937D01*
X71332249Y-73442841D01*
X71294154Y-73404746D01*
X71256059Y-73328556D01*
X71256059Y-73252365D01*
X71294154Y-73176175D01*
X71332249Y-73138080D01*
X71408440Y-73099984D01*
X71598916Y-73099984D01*
X71713201Y-73138080D01*
X72513201Y-73823794D02*
X72475106Y-73861889D01*
X72360820Y-73899984D01*
X72284630Y-73899984D01*
X72170344Y-73861889D01*
X72094154Y-73785699D01*
X72056059Y-73709508D01*
X72017963Y-73557127D01*
X72017963Y-73442841D01*
X72056059Y-73290460D01*
X72094154Y-73214270D01*
X72170344Y-73138080D01*
X72284630Y-73099984D01*
X72360820Y-73099984D01*
X72475106Y-73138080D01*
X72513201Y-73176175D01*
X73237011Y-73899984D02*
X72856059Y-73899984D01*
X72856059Y-73099984D01*
X73503678Y-73899984D02*
X73503678Y-73099984D01*
X73960820Y-73899984D02*
X73617963Y-73442841D01*
X73960820Y-73099984D02*
X73503678Y-73557127D01*
X65393586Y-100163584D02*
X65126920Y-99782632D01*
X64936443Y-100163584D02*
X64936443Y-99363584D01*
X65241205Y-99363584D01*
X65317396Y-99401680D01*
X65355491Y-99439775D01*
X65393586Y-99515965D01*
X65393586Y-99630251D01*
X65355491Y-99706441D01*
X65317396Y-99744537D01*
X65241205Y-99782632D01*
X64936443Y-99782632D01*
X65660253Y-99363584D02*
X66193586Y-100163584D01*
X66193586Y-99363584D02*
X65660253Y-100163584D01*
X65435499Y-107024224D02*
X65054546Y-107024224D01*
X65016451Y-107405177D01*
X65054546Y-107367081D01*
X65130737Y-107328986D01*
X65321213Y-107328986D01*
X65397403Y-107367081D01*
X65435499Y-107405177D01*
X65473594Y-107481367D01*
X65473594Y-107671843D01*
X65435499Y-107748034D01*
X65397403Y-107786129D01*
X65321213Y-107824224D01*
X65130737Y-107824224D01*
X65054546Y-107786129D01*
X65016451Y-107748034D01*
X65702165Y-107024224D02*
X65968832Y-107824224D01*
X66235499Y-107024224D01*
X64932636Y-101847704D02*
X65389779Y-101847704D01*
X65161207Y-102647704D02*
X65161207Y-101847704D01*
X65580255Y-101847704D02*
X66113588Y-102647704D01*
X66113588Y-101847704D02*
X65580255Y-102647704D01*
X65415236Y-104466440D02*
X65339045Y-104428344D01*
X65224760Y-104428344D01*
X65110474Y-104466440D01*
X65034283Y-104542630D01*
X64996188Y-104618820D01*
X64958093Y-104771201D01*
X64958093Y-104885487D01*
X64996188Y-105037868D01*
X65034283Y-105114059D01*
X65110474Y-105190249D01*
X65224760Y-105228344D01*
X65300950Y-105228344D01*
X65415236Y-105190249D01*
X65453331Y-105152154D01*
X65453331Y-104885487D01*
X65300950Y-104885487D01*
X65796188Y-105228344D02*
X65796188Y-104428344D01*
X66253331Y-105228344D01*
X66253331Y-104428344D01*
X66634283Y-105228344D02*
X66634283Y-104428344D01*
X66824760Y-104428344D01*
X66939045Y-104466440D01*
X67015236Y-104542630D01*
X67053331Y-104618820D01*
X67091426Y-104771201D01*
X67091426Y-104885487D01*
X67053331Y-105037868D01*
X67015236Y-105114059D01*
X66939045Y-105190249D01*
X66824760Y-105228344D01*
X66634283Y-105228344D01*
X92930580Y-105850464D02*
X93425819Y-105850464D01*
X93159152Y-106155226D01*
X93273438Y-106155226D01*
X93349628Y-106193321D01*
X93387723Y-106231417D01*
X93425819Y-106307607D01*
X93425819Y-106498083D01*
X93387723Y-106574274D01*
X93349628Y-106612369D01*
X93273438Y-106650464D01*
X93044866Y-106650464D01*
X92968676Y-106612369D01*
X92930580Y-106574274D01*
X93692485Y-105850464D02*
X94187723Y-105850464D01*
X93921057Y-106155226D01*
X94035342Y-106155226D01*
X94111533Y-106193321D01*
X94149628Y-106231417D01*
X94187723Y-106307607D01*
X94187723Y-106498083D01*
X94149628Y-106574274D01*
X94111533Y-106612369D01*
X94035342Y-106650464D01*
X93806771Y-106650464D01*
X93730580Y-106612369D01*
X93692485Y-106574274D01*
X95414700Y-105880944D02*
X95909939Y-105880944D01*
X95643272Y-106185706D01*
X95757558Y-106185706D01*
X95833748Y-106223801D01*
X95871843Y-106261897D01*
X95909939Y-106338087D01*
X95909939Y-106528563D01*
X95871843Y-106604754D01*
X95833748Y-106642849D01*
X95757558Y-106680944D01*
X95528986Y-106680944D01*
X95452796Y-106642849D01*
X95414700Y-106604754D01*
X96671843Y-106680944D02*
X96214700Y-106680944D01*
X96443272Y-106680944D02*
X96443272Y-105880944D01*
X96367081Y-105995230D01*
X96290891Y-106071420D01*
X96214700Y-106109516D01*
X97830236Y-105957135D02*
X97868331Y-105919040D01*
X97944521Y-105880944D01*
X98134998Y-105880944D01*
X98211188Y-105919040D01*
X98249283Y-105957135D01*
X98287379Y-106033325D01*
X98287379Y-106109516D01*
X98249283Y-106223801D01*
X97792140Y-106680944D01*
X98287379Y-106680944D01*
X98554045Y-105880944D02*
X99087379Y-105880944D01*
X98744521Y-106680944D01*
X77591516Y-105957135D02*
X77629611Y-105919040D01*
X77705801Y-105880944D01*
X77896278Y-105880944D01*
X77972468Y-105919040D01*
X78010563Y-105957135D01*
X78048659Y-106033325D01*
X78048659Y-106109516D01*
X78010563Y-106223801D01*
X77553420Y-106680944D01*
X78048659Y-106680944D01*
X78734373Y-105880944D02*
X78581992Y-105880944D01*
X78505801Y-105919040D01*
X78467706Y-105957135D01*
X78391516Y-106071420D01*
X78353420Y-106223801D01*
X78353420Y-106528563D01*
X78391516Y-106604754D01*
X78429611Y-106642849D01*
X78505801Y-106680944D01*
X78658182Y-106680944D01*
X78734373Y-106642849D01*
X78772468Y-106604754D01*
X78810563Y-106528563D01*
X78810563Y-106338087D01*
X78772468Y-106261897D01*
X78734373Y-106223801D01*
X78658182Y-106185706D01*
X78505801Y-106185706D01*
X78429611Y-106223801D01*
X78391516Y-106261897D01*
X78353420Y-106338087D01*
X82608020Y-105931744D02*
X83103259Y-105931744D01*
X82836592Y-106236506D01*
X82950878Y-106236506D01*
X83027068Y-106274601D01*
X83065163Y-106312697D01*
X83103259Y-106388887D01*
X83103259Y-106579363D01*
X83065163Y-106655554D01*
X83027068Y-106693649D01*
X82950878Y-106731744D01*
X82722306Y-106731744D01*
X82646116Y-106693649D01*
X82608020Y-106655554D01*
X83560401Y-106274601D02*
X83484211Y-106236506D01*
X83446116Y-106198411D01*
X83408020Y-106122220D01*
X83408020Y-106084125D01*
X83446116Y-106007935D01*
X83484211Y-105969840D01*
X83560401Y-105931744D01*
X83712782Y-105931744D01*
X83788973Y-105969840D01*
X83827068Y-106007935D01*
X83865163Y-106084125D01*
X83865163Y-106122220D01*
X83827068Y-106198411D01*
X83788973Y-106236506D01*
X83712782Y-106274601D01*
X83560401Y-106274601D01*
X83484211Y-106312697D01*
X83446116Y-106350792D01*
X83408020Y-106426982D01*
X83408020Y-106579363D01*
X83446116Y-106655554D01*
X83484211Y-106693649D01*
X83560401Y-106731744D01*
X83712782Y-106731744D01*
X83788973Y-106693649D01*
X83827068Y-106655554D01*
X83865163Y-106579363D01*
X83865163Y-106426982D01*
X83827068Y-106350792D01*
X83788973Y-106312697D01*
X83712782Y-106274601D01*
X80088340Y-105931744D02*
X80583579Y-105931744D01*
X80316912Y-106236506D01*
X80431198Y-106236506D01*
X80507388Y-106274601D01*
X80545483Y-106312697D01*
X80583579Y-106388887D01*
X80583579Y-106579363D01*
X80545483Y-106655554D01*
X80507388Y-106693649D01*
X80431198Y-106731744D01*
X80202626Y-106731744D01*
X80126436Y-106693649D01*
X80088340Y-106655554D01*
X80888340Y-106007935D02*
X80926436Y-105969840D01*
X81002626Y-105931744D01*
X81193102Y-105931744D01*
X81269293Y-105969840D01*
X81307388Y-106007935D01*
X81345483Y-106084125D01*
X81345483Y-106160316D01*
X81307388Y-106274601D01*
X80850245Y-106731744D01*
X81345483Y-106731744D01*
X85805819Y-105941904D02*
X85424866Y-105941904D01*
X85386771Y-106322857D01*
X85424866Y-106284761D01*
X85501057Y-106246666D01*
X85691533Y-106246666D01*
X85767723Y-106284761D01*
X85805819Y-106322857D01*
X85843914Y-106399047D01*
X85843914Y-106589523D01*
X85805819Y-106665714D01*
X85767723Y-106703809D01*
X85691533Y-106741904D01*
X85501057Y-106741904D01*
X85424866Y-106703809D01*
X85386771Y-106665714D01*
X86072485Y-105941904D02*
X86339152Y-106741904D01*
X86605819Y-105941904D01*
X87502643Y-105931744D02*
X87997881Y-105931744D01*
X87731215Y-106236506D01*
X87845500Y-106236506D01*
X87921691Y-106274601D01*
X87959786Y-106312697D01*
X87997881Y-106388887D01*
X87997881Y-106579363D01*
X87959786Y-106655554D01*
X87921691Y-106693649D01*
X87845500Y-106731744D01*
X87616929Y-106731744D01*
X87540739Y-106693649D01*
X87502643Y-106655554D01*
X88226453Y-105931744D02*
X88493120Y-106731744D01*
X88759786Y-105931744D01*
X88950262Y-105931744D02*
X89445500Y-105931744D01*
X89178834Y-106236506D01*
X89293120Y-106236506D01*
X89369310Y-106274601D01*
X89407405Y-106312697D01*
X89445500Y-106388887D01*
X89445500Y-106579363D01*
X89407405Y-106655554D01*
X89369310Y-106693649D01*
X89293120Y-106731744D01*
X89064548Y-106731744D01*
X88988358Y-106693649D01*
X88950262Y-106655554D01*
X90382956Y-105913960D02*
X90306765Y-105875864D01*
X90192480Y-105875864D01*
X90078194Y-105913960D01*
X90002003Y-105990150D01*
X89963908Y-106066340D01*
X89925813Y-106218721D01*
X89925813Y-106333007D01*
X89963908Y-106485388D01*
X90002003Y-106561579D01*
X90078194Y-106637769D01*
X90192480Y-106675864D01*
X90268670Y-106675864D01*
X90382956Y-106637769D01*
X90421051Y-106599674D01*
X90421051Y-106333007D01*
X90268670Y-106333007D01*
X90763908Y-106675864D02*
X90763908Y-105875864D01*
X91221051Y-106675864D01*
X91221051Y-105875864D01*
X91602003Y-106675864D02*
X91602003Y-105875864D01*
X91792480Y-105875864D01*
X91906765Y-105913960D01*
X91982956Y-105990150D01*
X92021051Y-106066340D01*
X92059146Y-106218721D01*
X92059146Y-106333007D01*
X92021051Y-106485388D01*
X91982956Y-106561579D01*
X91906765Y-106637769D01*
X91792480Y-106675864D01*
X91602003Y-106675864D01*
X98053756Y-113307895D02*
X98091851Y-113269800D01*
X98168041Y-113231704D01*
X98358518Y-113231704D01*
X98434708Y-113269800D01*
X98472803Y-113307895D01*
X98510899Y-113384085D01*
X98510899Y-113460276D01*
X98472803Y-113574561D01*
X98015660Y-114031704D01*
X98510899Y-114031704D01*
X98891851Y-114031704D02*
X99044232Y-114031704D01*
X99120422Y-113993609D01*
X99158518Y-113955514D01*
X99234708Y-113841228D01*
X99272803Y-113688847D01*
X99272803Y-113384085D01*
X99234708Y-113307895D01*
X99196613Y-113269800D01*
X99120422Y-113231704D01*
X98968041Y-113231704D01*
X98891851Y-113269800D01*
X98853756Y-113307895D01*
X98815660Y-113384085D01*
X98815660Y-113574561D01*
X98853756Y-113650752D01*
X98891851Y-113688847D01*
X98968041Y-113726942D01*
X99120422Y-113726942D01*
X99196613Y-113688847D01*
X99234708Y-113650752D01*
X99272803Y-113574561D01*
X90347396Y-113310440D02*
X90271205Y-113272344D01*
X90156920Y-113272344D01*
X90042634Y-113310440D01*
X89966443Y-113386630D01*
X89928348Y-113462820D01*
X89890253Y-113615201D01*
X89890253Y-113729487D01*
X89928348Y-113881868D01*
X89966443Y-113958059D01*
X90042634Y-114034249D01*
X90156920Y-114072344D01*
X90233110Y-114072344D01*
X90347396Y-114034249D01*
X90385491Y-113996154D01*
X90385491Y-113729487D01*
X90233110Y-113729487D01*
X90728348Y-114072344D02*
X90728348Y-113272344D01*
X91185491Y-114072344D01*
X91185491Y-113272344D01*
X91566443Y-114072344D02*
X91566443Y-113272344D01*
X91756920Y-113272344D01*
X91871205Y-113310440D01*
X91947396Y-113386630D01*
X91985491Y-113462820D01*
X92023586Y-113615201D01*
X92023586Y-113729487D01*
X91985491Y-113881868D01*
X91947396Y-113958059D01*
X91871205Y-114034249D01*
X91756920Y-114072344D01*
X91566443Y-114072344D01*
X101116939Y-114097744D02*
X100659796Y-114097744D01*
X100888367Y-114097744D02*
X100888367Y-113297744D01*
X100812177Y-113412030D01*
X100735986Y-113488220D01*
X100659796Y-113526316D01*
X101840748Y-113297744D02*
X101459796Y-113297744D01*
X101421700Y-113678697D01*
X101459796Y-113640601D01*
X101535986Y-113602506D01*
X101726462Y-113602506D01*
X101802653Y-113640601D01*
X101840748Y-113678697D01*
X101878843Y-113754887D01*
X101878843Y-113945363D01*
X101840748Y-114021554D01*
X101802653Y-114059649D01*
X101726462Y-114097744D01*
X101535986Y-114097744D01*
X101459796Y-114059649D01*
X101421700Y-114021554D01*
X92966140Y-113318064D02*
X93461379Y-113318064D01*
X93194712Y-113622826D01*
X93308998Y-113622826D01*
X93385188Y-113660921D01*
X93423283Y-113699017D01*
X93461379Y-113775207D01*
X93461379Y-113965683D01*
X93423283Y-114041874D01*
X93385188Y-114079969D01*
X93308998Y-114118064D01*
X93080426Y-114118064D01*
X93004236Y-114079969D01*
X92966140Y-114041874D01*
X93728045Y-113318064D02*
X94261379Y-113318064D01*
X93918521Y-114118064D01*
X95429940Y-113246944D02*
X95925179Y-113246944D01*
X95658512Y-113551706D01*
X95772798Y-113551706D01*
X95848988Y-113589801D01*
X95887083Y-113627897D01*
X95925179Y-113704087D01*
X95925179Y-113894563D01*
X95887083Y-113970754D01*
X95848988Y-114008849D01*
X95772798Y-114046944D01*
X95544226Y-114046944D01*
X95468036Y-114008849D01*
X95429940Y-113970754D01*
X96648988Y-113246944D02*
X96268036Y-113246944D01*
X96229940Y-113627897D01*
X96268036Y-113589801D01*
X96344226Y-113551706D01*
X96534702Y-113551706D01*
X96610893Y-113589801D01*
X96648988Y-113627897D01*
X96687083Y-113704087D01*
X96687083Y-113894563D01*
X96648988Y-113970754D01*
X96610893Y-114008849D01*
X96534702Y-114046944D01*
X96344226Y-114046944D01*
X96268036Y-114008849D01*
X96229940Y-113970754D01*
X80415996Y-113384095D02*
X80454091Y-113346000D01*
X80530281Y-113307904D01*
X80720758Y-113307904D01*
X80796948Y-113346000D01*
X80835043Y-113384095D01*
X80873139Y-113460285D01*
X80873139Y-113536476D01*
X80835043Y-113650761D01*
X80377900Y-114107904D01*
X80873139Y-114107904D01*
X81330281Y-113650761D02*
X81254091Y-113612666D01*
X81215996Y-113574571D01*
X81177900Y-113498380D01*
X81177900Y-113460285D01*
X81215996Y-113384095D01*
X81254091Y-113346000D01*
X81330281Y-113307904D01*
X81482662Y-113307904D01*
X81558853Y-113346000D01*
X81596948Y-113384095D01*
X81635043Y-113460285D01*
X81635043Y-113498380D01*
X81596948Y-113574571D01*
X81558853Y-113612666D01*
X81482662Y-113650761D01*
X81330281Y-113650761D01*
X81254091Y-113688857D01*
X81215996Y-113726952D01*
X81177900Y-113803142D01*
X81177900Y-113955523D01*
X81215996Y-114031714D01*
X81254091Y-114069809D01*
X81330281Y-114107904D01*
X81482662Y-114107904D01*
X81558853Y-114069809D01*
X81596948Y-114031714D01*
X81635043Y-113955523D01*
X81635043Y-113803142D01*
X81596948Y-113726952D01*
X81558853Y-113688857D01*
X81482662Y-113650761D01*
X85714388Y-113594891D02*
X85714388Y-114128224D01*
X85523912Y-113290129D02*
X85333436Y-113861558D01*
X85828674Y-113861558D01*
X86285817Y-113328224D02*
X86362007Y-113328224D01*
X86438198Y-113366320D01*
X86476293Y-113404415D01*
X86514388Y-113480605D01*
X86552483Y-113632986D01*
X86552483Y-113823462D01*
X86514388Y-113975843D01*
X86476293Y-114052034D01*
X86438198Y-114090129D01*
X86362007Y-114128224D01*
X86285817Y-114128224D01*
X86209626Y-114090129D01*
X86171531Y-114052034D01*
X86133436Y-113975843D01*
X86095340Y-113823462D01*
X86095340Y-113632986D01*
X86133436Y-113480605D01*
X86171531Y-113404415D01*
X86209626Y-113366320D01*
X86285817Y-113328224D01*
X88289939Y-113328224D02*
X87908986Y-113328224D01*
X87870891Y-113709177D01*
X87908986Y-113671081D01*
X87985177Y-113632986D01*
X88175653Y-113632986D01*
X88251843Y-113671081D01*
X88289939Y-113709177D01*
X88328034Y-113785367D01*
X88328034Y-113975843D01*
X88289939Y-114052034D01*
X88251843Y-114090129D01*
X88175653Y-114128224D01*
X87985177Y-114128224D01*
X87908986Y-114090129D01*
X87870891Y-114052034D01*
X88556605Y-113328224D02*
X88823272Y-114128224D01*
X89089939Y-113328224D01*
X82912820Y-113292664D02*
X83408059Y-113292664D01*
X83141392Y-113597426D01*
X83255678Y-113597426D01*
X83331868Y-113635521D01*
X83369963Y-113673617D01*
X83408059Y-113749807D01*
X83408059Y-113940283D01*
X83369963Y-114016474D01*
X83331868Y-114054569D01*
X83255678Y-114092664D01*
X83027106Y-114092664D01*
X82950916Y-114054569D01*
X82912820Y-114016474D01*
X84093773Y-113292664D02*
X83941392Y-113292664D01*
X83865201Y-113330760D01*
X83827106Y-113368855D01*
X83750916Y-113483140D01*
X83712820Y-113635521D01*
X83712820Y-113940283D01*
X83750916Y-114016474D01*
X83789011Y-114054569D01*
X83865201Y-114092664D01*
X84017582Y-114092664D01*
X84093773Y-114054569D01*
X84131868Y-114016474D01*
X84169963Y-113940283D01*
X84169963Y-113749807D01*
X84131868Y-113673617D01*
X84093773Y-113635521D01*
X84017582Y-113597426D01*
X83865201Y-113597426D01*
X83789011Y-113635521D01*
X83750916Y-113673617D01*
X83712820Y-113749807D01*
X103380093Y-105764104D02*
X103913426Y-105764104D01*
X103570569Y-106564104D01*
X100944219Y-106579344D02*
X100487076Y-106579344D01*
X100715647Y-106579344D02*
X100715647Y-105779344D01*
X100639457Y-105893630D01*
X100563266Y-105969820D01*
X100487076Y-106007916D01*
X101210885Y-105779344D02*
X101706123Y-105779344D01*
X101439457Y-106084106D01*
X101553742Y-106084106D01*
X101629933Y-106122201D01*
X101668028Y-106160297D01*
X101706123Y-106236487D01*
X101706123Y-106426963D01*
X101668028Y-106503154D01*
X101629933Y-106541249D01*
X101553742Y-106579344D01*
X101325171Y-106579344D01*
X101248980Y-106541249D01*
X101210885Y-106503154D01*
X75158196Y-105921575D02*
X75196291Y-105883480D01*
X75272481Y-105845384D01*
X75462958Y-105845384D01*
X75539148Y-105883480D01*
X75577243Y-105921575D01*
X75615339Y-105997765D01*
X75615339Y-106073956D01*
X75577243Y-106188241D01*
X75120100Y-106645384D01*
X75615339Y-106645384D01*
X75920100Y-105921575D02*
X75958196Y-105883480D01*
X76034386Y-105845384D01*
X76224862Y-105845384D01*
X76301053Y-105883480D01*
X76339148Y-105921575D01*
X76377243Y-105997765D01*
X76377243Y-106073956D01*
X76339148Y-106188241D01*
X75882005Y-106645384D01*
X76377243Y-106645384D01*
X103616299Y-114168864D02*
X103159156Y-114168864D01*
X103387727Y-114168864D02*
X103387727Y-113368864D01*
X103311537Y-113483150D01*
X103235346Y-113559340D01*
X103159156Y-113597436D01*
X104378203Y-114168864D02*
X103921060Y-114168864D01*
X104149632Y-114168864D02*
X104149632Y-113368864D01*
X104073441Y-113483150D01*
X103997251Y-113559340D01*
X103921060Y-113597436D01*
X75752499Y-114107904D02*
X75295356Y-114107904D01*
X75523927Y-114107904D02*
X75523927Y-113307904D01*
X75447737Y-113422190D01*
X75371546Y-113498380D01*
X75295356Y-113536476D01*
X76057260Y-113384095D02*
X76095356Y-113346000D01*
X76171546Y-113307904D01*
X76362022Y-113307904D01*
X76438213Y-113346000D01*
X76476308Y-113384095D01*
X76514403Y-113460285D01*
X76514403Y-113536476D01*
X76476308Y-113650761D01*
X76019165Y-114107904D01*
X76514403Y-114107904D01*
X100052228Y-39101937D02*
X100052228Y-38730508D01*
X100280800Y-38930508D01*
X100280800Y-38844794D01*
X100309371Y-38787651D01*
X100337942Y-38759080D01*
X100395085Y-38730508D01*
X100537942Y-38730508D01*
X100595085Y-38759080D01*
X100623657Y-38787651D01*
X100652228Y-38844794D01*
X100652228Y-39016222D01*
X100623657Y-39073365D01*
X100595085Y-39101937D01*
X100052228Y-38559080D02*
X100652228Y-38359080D01*
X100052228Y-38159080D01*
X100052228Y-38016222D02*
X100052228Y-37644794D01*
X100280800Y-37844794D01*
X100280800Y-37759080D01*
X100309371Y-37701937D01*
X100337942Y-37673365D01*
X100395085Y-37644794D01*
X100537942Y-37644794D01*
X100595085Y-37673365D01*
X100623657Y-37701937D01*
X100652228Y-37759080D01*
X100652228Y-37930508D01*
X100623657Y-37987651D01*
X100595085Y-38016222D01*
X107067708Y-41677497D02*
X107067708Y-41306068D01*
X107296280Y-41506068D01*
X107296280Y-41420354D01*
X107324851Y-41363211D01*
X107353422Y-41334640D01*
X107410565Y-41306068D01*
X107553422Y-41306068D01*
X107610565Y-41334640D01*
X107639137Y-41363211D01*
X107667708Y-41420354D01*
X107667708Y-41591782D01*
X107639137Y-41648925D01*
X107610565Y-41677497D01*
X107067708Y-41134640D02*
X107667708Y-40934640D01*
X107067708Y-40734640D01*
X107067708Y-40591782D02*
X107067708Y-40220354D01*
X107296280Y-40420354D01*
X107296280Y-40334640D01*
X107324851Y-40277497D01*
X107353422Y-40248925D01*
X107410565Y-40220354D01*
X107553422Y-40220354D01*
X107610565Y-40248925D01*
X107639137Y-40277497D01*
X107667708Y-40334640D01*
X107667708Y-40506068D01*
X107639137Y-40563211D01*
X107610565Y-40591782D01*
X100052228Y-46615257D02*
X100052228Y-46243828D01*
X100280800Y-46443828D01*
X100280800Y-46358114D01*
X100309371Y-46300971D01*
X100337942Y-46272400D01*
X100395085Y-46243828D01*
X100537942Y-46243828D01*
X100595085Y-46272400D01*
X100623657Y-46300971D01*
X100652228Y-46358114D01*
X100652228Y-46529542D01*
X100623657Y-46586685D01*
X100595085Y-46615257D01*
X100052228Y-46072400D02*
X100652228Y-45872400D01*
X100052228Y-45672400D01*
X100052228Y-45529542D02*
X100052228Y-45158114D01*
X100280800Y-45358114D01*
X100280800Y-45272400D01*
X100309371Y-45215257D01*
X100337942Y-45186685D01*
X100395085Y-45158114D01*
X100537942Y-45158114D01*
X100595085Y-45186685D01*
X100623657Y-45215257D01*
X100652228Y-45272400D01*
X100652228Y-45443828D01*
X100623657Y-45500971D01*
X100595085Y-45529542D01*
X107128668Y-49302577D02*
X107128668Y-48931148D01*
X107357240Y-49131148D01*
X107357240Y-49045434D01*
X107385811Y-48988291D01*
X107414382Y-48959720D01*
X107471525Y-48931148D01*
X107614382Y-48931148D01*
X107671525Y-48959720D01*
X107700097Y-48988291D01*
X107728668Y-49045434D01*
X107728668Y-49216862D01*
X107700097Y-49274005D01*
X107671525Y-49302577D01*
X107128668Y-48759720D02*
X107728668Y-48559720D01*
X107128668Y-48359720D01*
X107128668Y-48216862D02*
X107128668Y-47845434D01*
X107357240Y-48045434D01*
X107357240Y-47959720D01*
X107385811Y-47902577D01*
X107414382Y-47874005D01*
X107471525Y-47845434D01*
X107614382Y-47845434D01*
X107671525Y-47874005D01*
X107700097Y-47902577D01*
X107728668Y-47959720D01*
X107728668Y-48131148D01*
X107700097Y-48188291D01*
X107671525Y-48216862D01*
X100001428Y-54260657D02*
X100001428Y-53889228D01*
X100230000Y-54089228D01*
X100230000Y-54003514D01*
X100258571Y-53946371D01*
X100287142Y-53917800D01*
X100344285Y-53889228D01*
X100487142Y-53889228D01*
X100544285Y-53917800D01*
X100572857Y-53946371D01*
X100601428Y-54003514D01*
X100601428Y-54174942D01*
X100572857Y-54232085D01*
X100544285Y-54260657D01*
X100001428Y-53717800D02*
X100601428Y-53517800D01*
X100001428Y-53317800D01*
X100001428Y-53174942D02*
X100001428Y-52803514D01*
X100230000Y-53003514D01*
X100230000Y-52917800D01*
X100258571Y-52860657D01*
X100287142Y-52832085D01*
X100344285Y-52803514D01*
X100487142Y-52803514D01*
X100544285Y-52832085D01*
X100572857Y-52860657D01*
X100601428Y-52917800D01*
X100601428Y-53089228D01*
X100572857Y-53146371D01*
X100544285Y-53174942D01*
X107108348Y-56871777D02*
X107108348Y-56500348D01*
X107336920Y-56700348D01*
X107336920Y-56614634D01*
X107365491Y-56557491D01*
X107394062Y-56528920D01*
X107451205Y-56500348D01*
X107594062Y-56500348D01*
X107651205Y-56528920D01*
X107679777Y-56557491D01*
X107708348Y-56614634D01*
X107708348Y-56786062D01*
X107679777Y-56843205D01*
X107651205Y-56871777D01*
X107108348Y-56328920D02*
X107708348Y-56128920D01*
X107108348Y-55928920D01*
X107108348Y-55786062D02*
X107108348Y-55414634D01*
X107336920Y-55614634D01*
X107336920Y-55528920D01*
X107365491Y-55471777D01*
X107394062Y-55443205D01*
X107451205Y-55414634D01*
X107594062Y-55414634D01*
X107651205Y-55443205D01*
X107679777Y-55471777D01*
X107708348Y-55528920D01*
X107708348Y-55700348D01*
X107679777Y-55757491D01*
X107651205Y-55786062D01*
X107088028Y-64522257D02*
X107088028Y-64150828D01*
X107316600Y-64350828D01*
X107316600Y-64265114D01*
X107345171Y-64207971D01*
X107373742Y-64179400D01*
X107430885Y-64150828D01*
X107573742Y-64150828D01*
X107630885Y-64179400D01*
X107659457Y-64207971D01*
X107688028Y-64265114D01*
X107688028Y-64436542D01*
X107659457Y-64493685D01*
X107630885Y-64522257D01*
X107088028Y-63979400D02*
X107688028Y-63779400D01*
X107088028Y-63579400D01*
X107088028Y-63436542D02*
X107088028Y-63065114D01*
X107316600Y-63265114D01*
X107316600Y-63179400D01*
X107345171Y-63122257D01*
X107373742Y-63093685D01*
X107430885Y-63065114D01*
X107573742Y-63065114D01*
X107630885Y-63093685D01*
X107659457Y-63122257D01*
X107688028Y-63179400D01*
X107688028Y-63350828D01*
X107659457Y-63407971D01*
X107630885Y-63436542D01*
X100011588Y-61987337D02*
X100011588Y-61615908D01*
X100240160Y-61815908D01*
X100240160Y-61730194D01*
X100268731Y-61673051D01*
X100297302Y-61644480D01*
X100354445Y-61615908D01*
X100497302Y-61615908D01*
X100554445Y-61644480D01*
X100583017Y-61673051D01*
X100611588Y-61730194D01*
X100611588Y-61901622D01*
X100583017Y-61958765D01*
X100554445Y-61987337D01*
X100011588Y-61444480D02*
X100611588Y-61244480D01*
X100011588Y-61044480D01*
X100011588Y-60901622D02*
X100011588Y-60530194D01*
X100240160Y-60730194D01*
X100240160Y-60644480D01*
X100268731Y-60587337D01*
X100297302Y-60558765D01*
X100354445Y-60530194D01*
X100497302Y-60530194D01*
X100554445Y-60558765D01*
X100583017Y-60587337D01*
X100611588Y-60644480D01*
X100611588Y-60815908D01*
X100583017Y-60873051D01*
X100554445Y-60901622D01*
X107096280Y-59065102D02*
X107067708Y-59122245D01*
X107067708Y-59207960D01*
X107096280Y-59293674D01*
X107153422Y-59350817D01*
X107210565Y-59379388D01*
X107324851Y-59407960D01*
X107410565Y-59407960D01*
X107524851Y-59379388D01*
X107581994Y-59350817D01*
X107639137Y-59293674D01*
X107667708Y-59207960D01*
X107667708Y-59150817D01*
X107639137Y-59065102D01*
X107610565Y-59036531D01*
X107410565Y-59036531D01*
X107410565Y-59150817D01*
X107667708Y-58779388D02*
X107067708Y-58779388D01*
X107667708Y-58436531D01*
X107067708Y-58436531D01*
X107667708Y-58150817D02*
X107067708Y-58150817D01*
X107067708Y-58007960D01*
X107096280Y-57922245D01*
X107153422Y-57865102D01*
X107210565Y-57836531D01*
X107324851Y-57807960D01*
X107410565Y-57807960D01*
X107524851Y-57836531D01*
X107581994Y-57865102D01*
X107639137Y-57922245D01*
X107667708Y-58007960D01*
X107667708Y-58150817D01*
X100040160Y-64383862D02*
X100011588Y-64441005D01*
X100011588Y-64526720D01*
X100040160Y-64612434D01*
X100097302Y-64669577D01*
X100154445Y-64698148D01*
X100268731Y-64726720D01*
X100354445Y-64726720D01*
X100468731Y-64698148D01*
X100525874Y-64669577D01*
X100583017Y-64612434D01*
X100611588Y-64526720D01*
X100611588Y-64469577D01*
X100583017Y-64383862D01*
X100554445Y-64355291D01*
X100354445Y-64355291D01*
X100354445Y-64469577D01*
X100611588Y-64098148D02*
X100011588Y-64098148D01*
X100611588Y-63755291D01*
X100011588Y-63755291D01*
X100611588Y-63469577D02*
X100011588Y-63469577D01*
X100011588Y-63326720D01*
X100040160Y-63241005D01*
X100097302Y-63183862D01*
X100154445Y-63155291D01*
X100268731Y-63126720D01*
X100354445Y-63126720D01*
X100468731Y-63155291D01*
X100525874Y-63183862D01*
X100583017Y-63241005D01*
X100611588Y-63326720D01*
X100611588Y-63469577D01*
X100080800Y-56626702D02*
X100052228Y-56683845D01*
X100052228Y-56769560D01*
X100080800Y-56855274D01*
X100137942Y-56912417D01*
X100195085Y-56940988D01*
X100309371Y-56969560D01*
X100395085Y-56969560D01*
X100509371Y-56940988D01*
X100566514Y-56912417D01*
X100623657Y-56855274D01*
X100652228Y-56769560D01*
X100652228Y-56712417D01*
X100623657Y-56626702D01*
X100595085Y-56598131D01*
X100395085Y-56598131D01*
X100395085Y-56712417D01*
X100652228Y-56340988D02*
X100052228Y-56340988D01*
X100652228Y-55998131D01*
X100052228Y-55998131D01*
X100652228Y-55712417D02*
X100052228Y-55712417D01*
X100052228Y-55569560D01*
X100080800Y-55483845D01*
X100137942Y-55426702D01*
X100195085Y-55398131D01*
X100309371Y-55369560D01*
X100395085Y-55369560D01*
X100509371Y-55398131D01*
X100566514Y-55426702D01*
X100623657Y-55483845D01*
X100652228Y-55569560D01*
X100652228Y-55712417D01*
X107086120Y-51531462D02*
X107057548Y-51588605D01*
X107057548Y-51674320D01*
X107086120Y-51760034D01*
X107143262Y-51817177D01*
X107200405Y-51845748D01*
X107314691Y-51874320D01*
X107400405Y-51874320D01*
X107514691Y-51845748D01*
X107571834Y-51817177D01*
X107628977Y-51760034D01*
X107657548Y-51674320D01*
X107657548Y-51617177D01*
X107628977Y-51531462D01*
X107600405Y-51502891D01*
X107400405Y-51502891D01*
X107400405Y-51617177D01*
X107657548Y-51245748D02*
X107057548Y-51245748D01*
X107657548Y-50902891D01*
X107057548Y-50902891D01*
X107657548Y-50617177D02*
X107057548Y-50617177D01*
X107057548Y-50474320D01*
X107086120Y-50388605D01*
X107143262Y-50331462D01*
X107200405Y-50302891D01*
X107314691Y-50274320D01*
X107400405Y-50274320D01*
X107514691Y-50302891D01*
X107571834Y-50331462D01*
X107628977Y-50388605D01*
X107657548Y-50474320D01*
X107657548Y-50617177D01*
X100004600Y-48894942D02*
X99976028Y-48952085D01*
X99976028Y-49037800D01*
X100004600Y-49123514D01*
X100061742Y-49180657D01*
X100118885Y-49209228D01*
X100233171Y-49237800D01*
X100318885Y-49237800D01*
X100433171Y-49209228D01*
X100490314Y-49180657D01*
X100547457Y-49123514D01*
X100576028Y-49037800D01*
X100576028Y-48980657D01*
X100547457Y-48894942D01*
X100518885Y-48866371D01*
X100318885Y-48866371D01*
X100318885Y-48980657D01*
X100576028Y-48609228D02*
X99976028Y-48609228D01*
X100576028Y-48266371D01*
X99976028Y-48266371D01*
X100576028Y-47980657D02*
X99976028Y-47980657D01*
X99976028Y-47837800D01*
X100004600Y-47752085D01*
X100061742Y-47694942D01*
X100118885Y-47666371D01*
X100233171Y-47637800D01*
X100318885Y-47637800D01*
X100433171Y-47666371D01*
X100490314Y-47694942D01*
X100547457Y-47752085D01*
X100576028Y-47837800D01*
X100576028Y-47980657D01*
X107096280Y-43906382D02*
X107067708Y-43963525D01*
X107067708Y-44049240D01*
X107096280Y-44134954D01*
X107153422Y-44192097D01*
X107210565Y-44220668D01*
X107324851Y-44249240D01*
X107410565Y-44249240D01*
X107524851Y-44220668D01*
X107581994Y-44192097D01*
X107639137Y-44134954D01*
X107667708Y-44049240D01*
X107667708Y-43992097D01*
X107639137Y-43906382D01*
X107610565Y-43877811D01*
X107410565Y-43877811D01*
X107410565Y-43992097D01*
X107667708Y-43620668D02*
X107067708Y-43620668D01*
X107667708Y-43277811D01*
X107067708Y-43277811D01*
X107667708Y-42992097D02*
X107067708Y-42992097D01*
X107067708Y-42849240D01*
X107096280Y-42763525D01*
X107153422Y-42706382D01*
X107210565Y-42677811D01*
X107324851Y-42649240D01*
X107410565Y-42649240D01*
X107524851Y-42677811D01*
X107581994Y-42706382D01*
X107639137Y-42763525D01*
X107667708Y-42849240D01*
X107667708Y-42992097D01*
X100004600Y-41300342D02*
X99976028Y-41357485D01*
X99976028Y-41443200D01*
X100004600Y-41528914D01*
X100061742Y-41586057D01*
X100118885Y-41614628D01*
X100233171Y-41643200D01*
X100318885Y-41643200D01*
X100433171Y-41614628D01*
X100490314Y-41586057D01*
X100547457Y-41528914D01*
X100576028Y-41443200D01*
X100576028Y-41386057D01*
X100547457Y-41300342D01*
X100518885Y-41271771D01*
X100318885Y-41271771D01*
X100318885Y-41386057D01*
X100576028Y-41014628D02*
X99976028Y-41014628D01*
X100576028Y-40671771D01*
X99976028Y-40671771D01*
X100576028Y-40386057D02*
X99976028Y-40386057D01*
X99976028Y-40243200D01*
X100004600Y-40157485D01*
X100061742Y-40100342D01*
X100118885Y-40071771D01*
X100233171Y-40043200D01*
X100318885Y-40043200D01*
X100433171Y-40071771D01*
X100490314Y-40100342D01*
X100547457Y-40157485D01*
X100576028Y-40243200D01*
X100576028Y-40386057D01*
X107116600Y-35991742D02*
X107088028Y-36048885D01*
X107088028Y-36134600D01*
X107116600Y-36220314D01*
X107173742Y-36277457D01*
X107230885Y-36306028D01*
X107345171Y-36334600D01*
X107430885Y-36334600D01*
X107545171Y-36306028D01*
X107602314Y-36277457D01*
X107659457Y-36220314D01*
X107688028Y-36134600D01*
X107688028Y-36077457D01*
X107659457Y-35991742D01*
X107630885Y-35963171D01*
X107430885Y-35963171D01*
X107430885Y-36077457D01*
X107688028Y-35706028D02*
X107088028Y-35706028D01*
X107688028Y-35363171D01*
X107088028Y-35363171D01*
X107688028Y-35077457D02*
X107088028Y-35077457D01*
X107088028Y-34934600D01*
X107116600Y-34848885D01*
X107173742Y-34791742D01*
X107230885Y-34763171D01*
X107345171Y-34734600D01*
X107430885Y-34734600D01*
X107545171Y-34763171D01*
X107602314Y-34791742D01*
X107659457Y-34848885D01*
X107688028Y-34934600D01*
X107688028Y-35077457D01*
X107496280Y-62013354D02*
X107496280Y-61727640D01*
X107667708Y-62070497D02*
X107067708Y-61870497D01*
X107667708Y-61670497D01*
X107667708Y-61470497D02*
X107067708Y-61470497D01*
X107667708Y-61184782D02*
X107067708Y-61184782D01*
X107667708Y-60841925D01*
X107067708Y-60841925D01*
X107067708Y-60613354D02*
X107067708Y-60213354D01*
X107667708Y-60470497D01*
X100460480Y-59564794D02*
X100460480Y-59279080D01*
X100631908Y-59621937D02*
X100031908Y-59421937D01*
X100631908Y-59221937D01*
X100631908Y-59021937D02*
X100031908Y-59021937D01*
X100631908Y-58736222D02*
X100031908Y-58736222D01*
X100631908Y-58393365D01*
X100031908Y-58393365D01*
X100031908Y-57850508D02*
X100031908Y-57964794D01*
X100060480Y-58021937D01*
X100089051Y-58050508D01*
X100174765Y-58107651D01*
X100289051Y-58136222D01*
X100517622Y-58136222D01*
X100574765Y-58107651D01*
X100603337Y-58079080D01*
X100631908Y-58021937D01*
X100631908Y-57907651D01*
X100603337Y-57850508D01*
X100574765Y-57821937D01*
X100517622Y-57793365D01*
X100374765Y-57793365D01*
X100317622Y-57821937D01*
X100289051Y-57850508D01*
X100260480Y-57907651D01*
X100260480Y-58021937D01*
X100289051Y-58079080D01*
X100317622Y-58107651D01*
X100374765Y-58136222D01*
X107475960Y-54398434D02*
X107475960Y-54112720D01*
X107647388Y-54455577D02*
X107047388Y-54255577D01*
X107647388Y-54055577D01*
X107647388Y-53855577D02*
X107047388Y-53855577D01*
X107647388Y-53569862D02*
X107047388Y-53569862D01*
X107647388Y-53227005D01*
X107047388Y-53227005D01*
X107047388Y-52655577D02*
X107047388Y-52941291D01*
X107333102Y-52969862D01*
X107304531Y-52941291D01*
X107275960Y-52884148D01*
X107275960Y-52741291D01*
X107304531Y-52684148D01*
X107333102Y-52655577D01*
X107390245Y-52627005D01*
X107533102Y-52627005D01*
X107590245Y-52655577D01*
X107618817Y-52684148D01*
X107647388Y-52741291D01*
X107647388Y-52884148D01*
X107618817Y-52941291D01*
X107590245Y-52969862D01*
X100353800Y-51939714D02*
X100353800Y-51654000D01*
X100525228Y-51996857D02*
X99925228Y-51796857D01*
X100525228Y-51596857D01*
X100525228Y-51396857D02*
X99925228Y-51396857D01*
X100525228Y-51111142D02*
X99925228Y-51111142D01*
X100525228Y-50768285D01*
X99925228Y-50768285D01*
X100125228Y-50225428D02*
X100525228Y-50225428D01*
X99896657Y-50368285D02*
X100325228Y-50511142D01*
X100325228Y-50139714D01*
X107404840Y-46854634D02*
X107404840Y-46568920D01*
X107576268Y-46911777D02*
X106976268Y-46711777D01*
X107576268Y-46511777D01*
X107576268Y-46311777D02*
X106976268Y-46311777D01*
X107576268Y-46026062D02*
X106976268Y-46026062D01*
X107576268Y-45683205D01*
X106976268Y-45683205D01*
X107576268Y-45083205D02*
X107576268Y-45426062D01*
X107576268Y-45254634D02*
X106976268Y-45254634D01*
X107061982Y-45311777D01*
X107119125Y-45368920D01*
X107147697Y-45426062D01*
X100455400Y-44309554D02*
X100455400Y-44023840D01*
X100626828Y-44366697D02*
X100026828Y-44166697D01*
X100626828Y-43966697D01*
X100626828Y-43766697D02*
X100026828Y-43766697D01*
X100626828Y-43480982D02*
X100026828Y-43480982D01*
X100626828Y-43138125D01*
X100026828Y-43138125D01*
X100083971Y-42880982D02*
X100055400Y-42852411D01*
X100026828Y-42795268D01*
X100026828Y-42652411D01*
X100055400Y-42595268D01*
X100083971Y-42566697D01*
X100141114Y-42538125D01*
X100198257Y-42538125D01*
X100283971Y-42566697D01*
X100626828Y-42909554D01*
X100626828Y-42538125D01*
X100460480Y-36623514D02*
X100460480Y-36337800D01*
X100631908Y-36680657D02*
X100031908Y-36480657D01*
X100631908Y-36280657D01*
X100631908Y-36080657D02*
X100031908Y-36080657D01*
X100631908Y-35794942D02*
X100031908Y-35794942D01*
X100631908Y-35452085D01*
X100031908Y-35452085D01*
X100031908Y-35052085D02*
X100031908Y-34994942D01*
X100060480Y-34937800D01*
X100089051Y-34909228D01*
X100146194Y-34880657D01*
X100260480Y-34852085D01*
X100403337Y-34852085D01*
X100517622Y-34880657D01*
X100574765Y-34909228D01*
X100603337Y-34937800D01*
X100631908Y-34994942D01*
X100631908Y-35052085D01*
X100603337Y-35109228D01*
X100574765Y-35137800D01*
X100517622Y-35166371D01*
X100403337Y-35194942D01*
X100260480Y-35194942D01*
X100146194Y-35166371D01*
X100089051Y-35137800D01*
X100060480Y-35109228D01*
X100031908Y-35052085D01*
X107536920Y-39183834D02*
X107536920Y-38898120D01*
X107708348Y-39240977D02*
X107108348Y-39040977D01*
X107708348Y-38840977D01*
X107708348Y-38640977D02*
X107108348Y-38640977D01*
X107708348Y-38355262D02*
X107108348Y-38355262D01*
X107708348Y-38012405D01*
X107108348Y-38012405D01*
X107708348Y-37412405D02*
X107708348Y-37755262D01*
X107708348Y-37583834D02*
X107108348Y-37583834D01*
X107194062Y-37640977D01*
X107251205Y-37698120D01*
X107279777Y-37755262D01*
X56300491Y-111829809D02*
X56414777Y-111867904D01*
X56605253Y-111867904D01*
X56681443Y-111829809D01*
X56719539Y-111791714D01*
X56757634Y-111715523D01*
X56757634Y-111639333D01*
X56719539Y-111563142D01*
X56681443Y-111525047D01*
X56605253Y-111486952D01*
X56452872Y-111448857D01*
X56376681Y-111410761D01*
X56338586Y-111372666D01*
X56300491Y-111296476D01*
X56300491Y-111220285D01*
X56338586Y-111144095D01*
X56376681Y-111106000D01*
X56452872Y-111067904D01*
X56643348Y-111067904D01*
X56757634Y-111106000D01*
X57100491Y-111867904D02*
X57100491Y-111067904D01*
X57290967Y-111067904D01*
X57405253Y-111106000D01*
X57481443Y-111182190D01*
X57519539Y-111258380D01*
X57557634Y-111410761D01*
X57557634Y-111525047D01*
X57519539Y-111677428D01*
X57481443Y-111753619D01*
X57405253Y-111829809D01*
X57290967Y-111867904D01*
X57100491Y-111867904D01*
X57862396Y-111639333D02*
X58243348Y-111639333D01*
X57786205Y-111867904D02*
X58052872Y-111067904D01*
X58319539Y-111867904D01*
X58849379Y-111829809D02*
X58963664Y-111867904D01*
X59154140Y-111867904D01*
X59230331Y-111829809D01*
X59268426Y-111791714D01*
X59306521Y-111715523D01*
X59306521Y-111639333D01*
X59268426Y-111563142D01*
X59230331Y-111525047D01*
X59154140Y-111486952D01*
X59001760Y-111448857D01*
X58925569Y-111410761D01*
X58887474Y-111372666D01*
X58849379Y-111296476D01*
X58849379Y-111220285D01*
X58887474Y-111144095D01*
X58925569Y-111106000D01*
X59001760Y-111067904D01*
X59192236Y-111067904D01*
X59306521Y-111106000D01*
X60106521Y-111791714D02*
X60068426Y-111829809D01*
X59954140Y-111867904D01*
X59877950Y-111867904D01*
X59763664Y-111829809D01*
X59687474Y-111753619D01*
X59649379Y-111677428D01*
X59611283Y-111525047D01*
X59611283Y-111410761D01*
X59649379Y-111258380D01*
X59687474Y-111182190D01*
X59763664Y-111106000D01*
X59877950Y-111067904D01*
X59954140Y-111067904D01*
X60068426Y-111106000D01*
X60106521Y-111144095D01*
X60830331Y-111867904D02*
X60449379Y-111867904D01*
X60449379Y-111067904D01*
X61777956Y-111106000D02*
X61701765Y-111067904D01*
X61587480Y-111067904D01*
X61473194Y-111106000D01*
X61397003Y-111182190D01*
X61358908Y-111258380D01*
X61320813Y-111410761D01*
X61320813Y-111525047D01*
X61358908Y-111677428D01*
X61397003Y-111753619D01*
X61473194Y-111829809D01*
X61587480Y-111867904D01*
X61663670Y-111867904D01*
X61777956Y-111829809D01*
X61816051Y-111791714D01*
X61816051Y-111525047D01*
X61663670Y-111525047D01*
X62158908Y-111867904D02*
X62158908Y-111067904D01*
X62616051Y-111867904D01*
X62616051Y-111067904D01*
X62997003Y-111867904D02*
X62997003Y-111067904D01*
X63187480Y-111067904D01*
X63301765Y-111106000D01*
X63377956Y-111182190D01*
X63416051Y-111258380D01*
X63454146Y-111410761D01*
X63454146Y-111525047D01*
X63416051Y-111677428D01*
X63377956Y-111753619D01*
X63301765Y-111829809D01*
X63187480Y-111867904D01*
X62997003Y-111867904D01*
X99298979Y-71273624D02*
X99298979Y-70473624D01*
X99489455Y-70473624D01*
X99603740Y-70511720D01*
X99679931Y-70587910D01*
X99718026Y-70664100D01*
X99756121Y-70816481D01*
X99756121Y-70930767D01*
X99718026Y-71083148D01*
X99679931Y-71159339D01*
X99603740Y-71235529D01*
X99489455Y-71273624D01*
X99298979Y-71273624D01*
X100556121Y-71273624D02*
X100289455Y-70892672D01*
X100098979Y-71273624D02*
X100098979Y-70473624D01*
X100403740Y-70473624D01*
X100479931Y-70511720D01*
X100518026Y-70549815D01*
X100556121Y-70626005D01*
X100556121Y-70740291D01*
X100518026Y-70816481D01*
X100479931Y-70854577D01*
X100403740Y-70892672D01*
X100098979Y-70892672D01*
X100898979Y-71273624D02*
X100898979Y-70473624D01*
X101089455Y-70473624D01*
X101203740Y-70511720D01*
X101279931Y-70587910D01*
X101318026Y-70664100D01*
X101356121Y-70816481D01*
X101356121Y-70930767D01*
X101318026Y-71083148D01*
X101279931Y-71159339D01*
X101203740Y-71235529D01*
X101089455Y-71273624D01*
X100898979Y-71273624D01*
X101851360Y-70892672D02*
X101851360Y-71273624D01*
X101584693Y-70473624D02*
X101851360Y-70892672D01*
X102118026Y-70473624D01*
X102651360Y-70854577D02*
X102765645Y-70892672D01*
X102803740Y-70930767D01*
X102841836Y-71006958D01*
X102841836Y-71121243D01*
X102803740Y-71197434D01*
X102765645Y-71235529D01*
X102689455Y-71273624D01*
X102384693Y-71273624D01*
X102384693Y-70473624D01*
X102651360Y-70473624D01*
X102727550Y-70511720D01*
X102765645Y-70549815D01*
X102803740Y-70626005D01*
X102803740Y-70702196D01*
X102765645Y-70778386D01*
X102727550Y-70816481D01*
X102651360Y-70854577D01*
X102384693Y-70854577D01*
X99301523Y-73628209D02*
X99415809Y-73666304D01*
X99606285Y-73666304D01*
X99682476Y-73628209D01*
X99720571Y-73590114D01*
X99758666Y-73513923D01*
X99758666Y-73437733D01*
X99720571Y-73361542D01*
X99682476Y-73323447D01*
X99606285Y-73285352D01*
X99453904Y-73247257D01*
X99377714Y-73209161D01*
X99339619Y-73171066D01*
X99301523Y-73094876D01*
X99301523Y-73018685D01*
X99339619Y-72942495D01*
X99377714Y-72904400D01*
X99453904Y-72866304D01*
X99644380Y-72866304D01*
X99758666Y-72904400D01*
X100253904Y-73285352D02*
X100253904Y-73666304D01*
X99987238Y-72866304D02*
X100253904Y-73285352D01*
X100520571Y-72866304D01*
X100787238Y-73666304D02*
X100787238Y-72866304D01*
X101244380Y-73666304D01*
X101244380Y-72866304D01*
X102082476Y-73590114D02*
X102044380Y-73628209D01*
X101930095Y-73666304D01*
X101853904Y-73666304D01*
X101739619Y-73628209D01*
X101663428Y-73552019D01*
X101625333Y-73475828D01*
X101587238Y-73323447D01*
X101587238Y-73209161D01*
X101625333Y-73056780D01*
X101663428Y-72980590D01*
X101739619Y-72904400D01*
X101853904Y-72866304D01*
X101930095Y-72866304D01*
X102044380Y-72904400D01*
X102082476Y-72942495D01*
X102692000Y-73247257D02*
X102806285Y-73285352D01*
X102844380Y-73323447D01*
X102882476Y-73399638D01*
X102882476Y-73513923D01*
X102844380Y-73590114D01*
X102806285Y-73628209D01*
X102730095Y-73666304D01*
X102425333Y-73666304D01*
X102425333Y-72866304D01*
X102692000Y-72866304D01*
X102768190Y-72904400D01*
X102806285Y-72942495D01*
X102844380Y-73018685D01*
X102844380Y-73094876D01*
X102806285Y-73171066D01*
X102768190Y-73209161D01*
X102692000Y-73247257D01*
X102425333Y-73247257D01*
X98048112Y-76064093D02*
X98429064Y-76064093D01*
X97971921Y-76292664D02*
X98238588Y-75492664D01*
X98505255Y-76292664D01*
X99152874Y-76292664D02*
X98771921Y-76292664D01*
X98771921Y-75492664D01*
X99381445Y-76064093D02*
X99762398Y-76064093D01*
X99305255Y-76292664D02*
X99571921Y-75492664D01*
X99838588Y-76292664D01*
X100562398Y-76292664D02*
X100295731Y-75911712D01*
X100105255Y-76292664D02*
X100105255Y-75492664D01*
X100410017Y-75492664D01*
X100486207Y-75530760D01*
X100524302Y-75568855D01*
X100562398Y-75645045D01*
X100562398Y-75759331D01*
X100524302Y-75835521D01*
X100486207Y-75873617D01*
X100410017Y-75911712D01*
X100105255Y-75911712D01*
X100905255Y-76292664D02*
X100905255Y-75492664D01*
X101171921Y-76064093D01*
X101438588Y-75492664D01*
X101438588Y-76292664D01*
X102695731Y-75873617D02*
X102810017Y-75911712D01*
X102848112Y-75949807D01*
X102886207Y-76025998D01*
X102886207Y-76140283D01*
X102848112Y-76216474D01*
X102810017Y-76254569D01*
X102733826Y-76292664D01*
X102429064Y-76292664D01*
X102429064Y-75492664D01*
X102695731Y-75492664D01*
X102771921Y-75530760D01*
X102810017Y-75568855D01*
X102848112Y-75645045D01*
X102848112Y-75721236D01*
X102810017Y-75797426D01*
X102771921Y-75835521D01*
X102695731Y-75873617D01*
X102429064Y-75873617D01*
X97931281Y-78144424D02*
X98121758Y-78944424D01*
X98274139Y-78372996D01*
X98426520Y-78944424D01*
X98616996Y-78144424D01*
X99378900Y-78868234D02*
X99340805Y-78906329D01*
X99226520Y-78944424D01*
X99150329Y-78944424D01*
X99036043Y-78906329D01*
X98959853Y-78830139D01*
X98921758Y-78753948D01*
X98883662Y-78601567D01*
X98883662Y-78487281D01*
X98921758Y-78334900D01*
X98959853Y-78258710D01*
X99036043Y-78182520D01*
X99150329Y-78144424D01*
X99226520Y-78144424D01*
X99340805Y-78182520D01*
X99378900Y-78220615D01*
X99607472Y-78144424D02*
X100064615Y-78144424D01*
X99836043Y-78944424D02*
X99836043Y-78144424D01*
X100140805Y-79020615D02*
X100750329Y-79020615D01*
X101093186Y-78144424D02*
X101245567Y-78144424D01*
X101321758Y-78182520D01*
X101397948Y-78258710D01*
X101436043Y-78411091D01*
X101436043Y-78677758D01*
X101397948Y-78830139D01*
X101321758Y-78906329D01*
X101245567Y-78944424D01*
X101093186Y-78944424D01*
X101016996Y-78906329D01*
X100940805Y-78830139D01*
X100902710Y-78677758D01*
X100902710Y-78411091D01*
X100940805Y-78258710D01*
X101016996Y-78182520D01*
X101093186Y-78144424D01*
X101778900Y-78144424D02*
X101778900Y-78792043D01*
X101816996Y-78868234D01*
X101855091Y-78906329D01*
X101931281Y-78944424D01*
X102083662Y-78944424D01*
X102159853Y-78906329D01*
X102197948Y-78868234D01*
X102236043Y-78792043D01*
X102236043Y-78144424D01*
X102502710Y-78144424D02*
X102959853Y-78144424D01*
X102731281Y-78944424D02*
X102731281Y-78144424D01*
X101175920Y-83587544D02*
X101175920Y-82787544D01*
X101556872Y-83587544D02*
X101556872Y-82787544D01*
X102014015Y-83587544D01*
X102014015Y-82787544D01*
X102737824Y-82787544D02*
X102585443Y-82787544D01*
X102509253Y-82825640D01*
X102471158Y-82863735D01*
X102394967Y-82978020D01*
X102356872Y-83130401D01*
X102356872Y-83435163D01*
X102394967Y-83511354D01*
X102433062Y-83549449D01*
X102509253Y-83587544D01*
X102661634Y-83587544D01*
X102737824Y-83549449D01*
X102775920Y-83511354D01*
X102814015Y-83435163D01*
X102814015Y-83244687D01*
X102775920Y-83168497D01*
X102737824Y-83130401D01*
X102661634Y-83092306D01*
X102509253Y-83092306D01*
X102433062Y-83130401D01*
X102394967Y-83168497D01*
X102356872Y-83244687D01*
X101175920Y-86188504D02*
X101175920Y-85388504D01*
X101556872Y-86188504D02*
X101556872Y-85388504D01*
X102014015Y-86188504D01*
X102014015Y-85388504D01*
X102775920Y-85388504D02*
X102394967Y-85388504D01*
X102356872Y-85769457D01*
X102394967Y-85731361D01*
X102471158Y-85693266D01*
X102661634Y-85693266D01*
X102737824Y-85731361D01*
X102775920Y-85769457D01*
X102814015Y-85845647D01*
X102814015Y-86036123D01*
X102775920Y-86112314D01*
X102737824Y-86150409D01*
X102661634Y-86188504D01*
X102471158Y-86188504D01*
X102394967Y-86150409D01*
X102356872Y-86112314D01*
X101140360Y-88738664D02*
X101140360Y-87938664D01*
X101521312Y-88738664D02*
X101521312Y-87938664D01*
X101978455Y-88738664D01*
X101978455Y-87938664D01*
X102702264Y-88205331D02*
X102702264Y-88738664D01*
X102511788Y-87900569D02*
X102321312Y-88471998D01*
X102816550Y-88471998D01*
X101094640Y-91359944D02*
X101094640Y-90559944D01*
X101475592Y-91359944D02*
X101475592Y-90559944D01*
X101932735Y-91359944D01*
X101932735Y-90559944D01*
X102237497Y-90559944D02*
X102732735Y-90559944D01*
X102466068Y-90864706D01*
X102580354Y-90864706D01*
X102656544Y-90902801D01*
X102694640Y-90940897D01*
X102732735Y-91017087D01*
X102732735Y-91207563D01*
X102694640Y-91283754D01*
X102656544Y-91321849D01*
X102580354Y-91359944D01*
X102351782Y-91359944D01*
X102275592Y-91321849D01*
X102237497Y-91283754D01*
X101140360Y-93833904D02*
X101140360Y-93033904D01*
X101521312Y-93833904D02*
X101521312Y-93033904D01*
X101978455Y-93833904D01*
X101978455Y-93033904D01*
X102321312Y-93110095D02*
X102359407Y-93072000D01*
X102435598Y-93033904D01*
X102626074Y-93033904D01*
X102702264Y-93072000D01*
X102740360Y-93110095D01*
X102778455Y-93186285D01*
X102778455Y-93262476D01*
X102740360Y-93376761D01*
X102283217Y-93833904D01*
X102778455Y-93833904D01*
X101165760Y-96475504D02*
X101165760Y-95675504D01*
X101546712Y-96475504D02*
X101546712Y-95675504D01*
X102003855Y-96475504D01*
X102003855Y-95675504D01*
X102803855Y-96475504D02*
X102346712Y-96475504D01*
X102575283Y-96475504D02*
X102575283Y-95675504D01*
X102499093Y-95789790D01*
X102422902Y-95865980D01*
X102346712Y-95904076D01*
D11*
G04 #@! TO.C,G\u002A\u002A\u002A*
G36*
X74144966Y-96270390D02*
G01*
X74426234Y-96104831D01*
X74541458Y-96046898D01*
X74872281Y-95852331D01*
X75205666Y-95606334D01*
X75343636Y-95483969D01*
X75551686Y-95292444D01*
X75691553Y-95204644D01*
X75810170Y-95200110D01*
X75909539Y-95237270D01*
X76054112Y-95326211D01*
X76062649Y-95434310D01*
X76025101Y-95514399D01*
X75971206Y-95672179D01*
X76029024Y-95756985D01*
X76056474Y-95825370D01*
X75954682Y-95887527D01*
X75763232Y-95924132D01*
X75680078Y-95927333D01*
X75565468Y-95958360D01*
X75560531Y-96004768D01*
X75526264Y-96084063D01*
X75376877Y-96166739D01*
X75375027Y-96167418D01*
X75247034Y-96227524D01*
X75250707Y-96258690D01*
X75257867Y-96259316D01*
X75329780Y-96290634D01*
X75272038Y-96388937D01*
X75210295Y-96570112D01*
X75292872Y-96802707D01*
X75480077Y-97051009D01*
X75617570Y-97191459D01*
X75741358Y-97244107D01*
X75920395Y-97225082D01*
X76070521Y-97189125D01*
X76316245Y-97137677D01*
X76482422Y-97152656D01*
X76651624Y-97251587D01*
X76759938Y-97335449D01*
X76969060Y-97499936D01*
X77133846Y-97626902D01*
X77173262Y-97656252D01*
X77342107Y-97682439D01*
X77546816Y-97623918D01*
X77727409Y-97523668D01*
X77773178Y-97409093D01*
X77759424Y-97344897D01*
X77746350Y-97228857D01*
X77789970Y-97228111D01*
X77874218Y-97202924D01*
X77918114Y-97111714D01*
X77995141Y-96976616D01*
X78090370Y-96950355D01*
X78145977Y-97043371D01*
X78147333Y-97070333D01*
X78195693Y-97182963D01*
X78236997Y-97197333D01*
X78289137Y-97248457D01*
X78277549Y-97276796D01*
X78296404Y-97378045D01*
X78356697Y-97428036D01*
X78439117Y-97498744D01*
X78411187Y-97600670D01*
X78358372Y-97680536D01*
X78189667Y-97825807D01*
X78189667Y-97536000D01*
X78232000Y-97493666D01*
X78189667Y-97451333D01*
X78147333Y-97493666D01*
X78189667Y-97536000D01*
X78189667Y-97825807D01*
X78183509Y-97831110D01*
X77977156Y-97917185D01*
X77815181Y-97977158D01*
X77768378Y-98046638D01*
X77770591Y-98050889D01*
X77736279Y-98107850D01*
X77601997Y-98128666D01*
X77440515Y-98157576D01*
X77385333Y-98214946D01*
X77320847Y-98265684D01*
X77162822Y-98246933D01*
X76964405Y-98173802D01*
X76778745Y-98061399D01*
X76744876Y-98032888D01*
X76505048Y-97910211D01*
X76245680Y-97874666D01*
X75921273Y-97874666D01*
X76145303Y-98082290D01*
X76323783Y-98301301D01*
X76361260Y-98485540D01*
X76274772Y-98600448D01*
X76120584Y-98649225D01*
X75885152Y-98679225D01*
X75630333Y-98688286D01*
X75417983Y-98674248D01*
X75309959Y-98634950D01*
X75309458Y-98634172D01*
X75326241Y-98554654D01*
X75369503Y-98541983D01*
X75377511Y-98520993D01*
X75250360Y-98482946D01*
X75226333Y-98477651D01*
X75043385Y-98401400D01*
X74972333Y-98297168D01*
X74901766Y-98196892D01*
X74734128Y-98147144D01*
X74535520Y-98153175D01*
X74372038Y-98220234D01*
X74344293Y-98247280D01*
X74284771Y-98409207D01*
X74309599Y-98586653D01*
X74401048Y-98706095D01*
X74458621Y-98721333D01*
X74596045Y-98770427D01*
X74775395Y-98886603D01*
X74935108Y-99023205D01*
X75013624Y-99133575D01*
X75014667Y-99142755D01*
X74940738Y-99177296D01*
X74756439Y-99176980D01*
X74686977Y-99169268D01*
X74444465Y-99162163D01*
X74307473Y-99211055D01*
X74300980Y-99219657D01*
X74297629Y-99304512D01*
X74329679Y-99314000D01*
X74380548Y-99375860D01*
X74367951Y-99441000D01*
X74261348Y-99553524D01*
X74201275Y-99568000D01*
X74123425Y-99507266D01*
X74079906Y-99311466D01*
X74067824Y-99123500D01*
X74059691Y-98729223D01*
X74072845Y-98463597D01*
X74114211Y-98286548D01*
X74190714Y-98158004D01*
X74244891Y-98098812D01*
X74500645Y-97954832D01*
X74824528Y-97964745D01*
X75214449Y-98128358D01*
X75331343Y-98199222D01*
X75649517Y-98374680D01*
X75901404Y-98457184D01*
X76064099Y-98442548D01*
X76115333Y-98342507D01*
X76044258Y-98223523D01*
X75872065Y-98095049D01*
X75660301Y-97994648D01*
X75487484Y-97959333D01*
X75350794Y-97906600D01*
X75153053Y-97773237D01*
X75058065Y-97694911D01*
X74874041Y-97515986D01*
X74798316Y-97370968D01*
X74801882Y-97194669D01*
X74811324Y-97140403D01*
X74839051Y-96948655D01*
X74801156Y-96882135D01*
X74666780Y-96900345D01*
X74634508Y-96908354D01*
X74474635Y-96935241D01*
X74436869Y-96880612D01*
X74460674Y-96785529D01*
X74483516Y-96556262D01*
X74462371Y-96429150D01*
X74411042Y-96309800D01*
X74337014Y-96321812D01*
X74244480Y-96400409D01*
X74107030Y-96492835D01*
X74032003Y-96496892D01*
X74016210Y-96398732D01*
X74144966Y-96270390D01*
G37*
X74144966Y-96270390D02*
X74426234Y-96104831D01*
X74541458Y-96046898D01*
X74872281Y-95852331D01*
X75205666Y-95606334D01*
X75343636Y-95483969D01*
X75551686Y-95292444D01*
X75691553Y-95204644D01*
X75810170Y-95200110D01*
X75909539Y-95237270D01*
X76054112Y-95326211D01*
X76062649Y-95434310D01*
X76025101Y-95514399D01*
X75971206Y-95672179D01*
X76029024Y-95756985D01*
X76056474Y-95825370D01*
X75954682Y-95887527D01*
X75763232Y-95924132D01*
X75680078Y-95927333D01*
X75565468Y-95958360D01*
X75560531Y-96004768D01*
X75526264Y-96084063D01*
X75376877Y-96166739D01*
X75375027Y-96167418D01*
X75247034Y-96227524D01*
X75250707Y-96258690D01*
X75257867Y-96259316D01*
X75329780Y-96290634D01*
X75272038Y-96388937D01*
X75210295Y-96570112D01*
X75292872Y-96802707D01*
X75480077Y-97051009D01*
X75617570Y-97191459D01*
X75741358Y-97244107D01*
X75920395Y-97225082D01*
X76070521Y-97189125D01*
X76316245Y-97137677D01*
X76482422Y-97152656D01*
X76651624Y-97251587D01*
X76759938Y-97335449D01*
X76969060Y-97499936D01*
X77133846Y-97626902D01*
X77173262Y-97656252D01*
X77342107Y-97682439D01*
X77546816Y-97623918D01*
X77727409Y-97523668D01*
X77773178Y-97409093D01*
X77759424Y-97344897D01*
X77746350Y-97228857D01*
X77789970Y-97228111D01*
X77874218Y-97202924D01*
X77918114Y-97111714D01*
X77995141Y-96976616D01*
X78090370Y-96950355D01*
X78145977Y-97043371D01*
X78147333Y-97070333D01*
X78195693Y-97182963D01*
X78236997Y-97197333D01*
X78289137Y-97248457D01*
X78277549Y-97276796D01*
X78296404Y-97378045D01*
X78356697Y-97428036D01*
X78439117Y-97498744D01*
X78411187Y-97600670D01*
X78358372Y-97680536D01*
X78189667Y-97825807D01*
X78189667Y-97536000D01*
X78232000Y-97493666D01*
X78189667Y-97451333D01*
X78147333Y-97493666D01*
X78189667Y-97536000D01*
X78189667Y-97825807D01*
X78183509Y-97831110D01*
X77977156Y-97917185D01*
X77815181Y-97977158D01*
X77768378Y-98046638D01*
X77770591Y-98050889D01*
X77736279Y-98107850D01*
X77601997Y-98128666D01*
X77440515Y-98157576D01*
X77385333Y-98214946D01*
X77320847Y-98265684D01*
X77162822Y-98246933D01*
X76964405Y-98173802D01*
X76778745Y-98061399D01*
X76744876Y-98032888D01*
X76505048Y-97910211D01*
X76245680Y-97874666D01*
X75921273Y-97874666D01*
X76145303Y-98082290D01*
X76323783Y-98301301D01*
X76361260Y-98485540D01*
X76274772Y-98600448D01*
X76120584Y-98649225D01*
X75885152Y-98679225D01*
X75630333Y-98688286D01*
X75417983Y-98674248D01*
X75309959Y-98634950D01*
X75309458Y-98634172D01*
X75326241Y-98554654D01*
X75369503Y-98541983D01*
X75377511Y-98520993D01*
X75250360Y-98482946D01*
X75226333Y-98477651D01*
X75043385Y-98401400D01*
X74972333Y-98297168D01*
X74901766Y-98196892D01*
X74734128Y-98147144D01*
X74535520Y-98153175D01*
X74372038Y-98220234D01*
X74344293Y-98247280D01*
X74284771Y-98409207D01*
X74309599Y-98586653D01*
X74401048Y-98706095D01*
X74458621Y-98721333D01*
X74596045Y-98770427D01*
X74775395Y-98886603D01*
X74935108Y-99023205D01*
X75013624Y-99133575D01*
X75014667Y-99142755D01*
X74940738Y-99177296D01*
X74756439Y-99176980D01*
X74686977Y-99169268D01*
X74444465Y-99162163D01*
X74307473Y-99211055D01*
X74300980Y-99219657D01*
X74297629Y-99304512D01*
X74329679Y-99314000D01*
X74380548Y-99375860D01*
X74367951Y-99441000D01*
X74261348Y-99553524D01*
X74201275Y-99568000D01*
X74123425Y-99507266D01*
X74079906Y-99311466D01*
X74067824Y-99123500D01*
X74059691Y-98729223D01*
X74072845Y-98463597D01*
X74114211Y-98286548D01*
X74190714Y-98158004D01*
X74244891Y-98098812D01*
X74500645Y-97954832D01*
X74824528Y-97964745D01*
X75214449Y-98128358D01*
X75331343Y-98199222D01*
X75649517Y-98374680D01*
X75901404Y-98457184D01*
X76064099Y-98442548D01*
X76115333Y-98342507D01*
X76044258Y-98223523D01*
X75872065Y-98095049D01*
X75660301Y-97994648D01*
X75487484Y-97959333D01*
X75350794Y-97906600D01*
X75153053Y-97773237D01*
X75058065Y-97694911D01*
X74874041Y-97515986D01*
X74798316Y-97370968D01*
X74801882Y-97194669D01*
X74811324Y-97140403D01*
X74839051Y-96948655D01*
X74801156Y-96882135D01*
X74666780Y-96900345D01*
X74634508Y-96908354D01*
X74474635Y-96935241D01*
X74436869Y-96880612D01*
X74460674Y-96785529D01*
X74483516Y-96556262D01*
X74462371Y-96429150D01*
X74411042Y-96309800D01*
X74337014Y-96321812D01*
X74244480Y-96400409D01*
X74107030Y-96492835D01*
X74032003Y-96496892D01*
X74016210Y-96398732D01*
X74144966Y-96270390D01*
G36*
X75459167Y-94312122D02*
G01*
X76073000Y-94305577D01*
X75459167Y-94133770D01*
X75146531Y-94042294D01*
X74963310Y-93969591D01*
X74875048Y-93891758D01*
X74847292Y-93784893D01*
X74845333Y-93707923D01*
X74865364Y-93533101D01*
X74938948Y-93493559D01*
X74978834Y-93505112D01*
X75117388Y-93550924D01*
X75372763Y-93629284D01*
X75698973Y-93726188D01*
X75838510Y-93766867D01*
X76564684Y-93977392D01*
X77432143Y-93724696D01*
X77797558Y-93620670D01*
X78105749Y-93537438D01*
X78318569Y-93485035D01*
X78392801Y-93472000D01*
X78463125Y-93544327D01*
X78486000Y-93681301D01*
X78465498Y-93805324D01*
X78378681Y-93892811D01*
X78187583Y-93970654D01*
X77999167Y-94026122D01*
X77596556Y-94140352D01*
X77352436Y-94218527D01*
X77261552Y-94267744D01*
X77318652Y-94295098D01*
X77518480Y-94307683D01*
X77787500Y-94311982D01*
X78486000Y-94318666D01*
X78486000Y-94826666D01*
X74845333Y-94826666D01*
X74845333Y-94318666D01*
X75459167Y-94312122D01*
G37*
X75459167Y-94312122D02*
X76073000Y-94305577D01*
X75459167Y-94133770D01*
X75146531Y-94042294D01*
X74963310Y-93969591D01*
X74875048Y-93891758D01*
X74847292Y-93784893D01*
X74845333Y-93707923D01*
X74865364Y-93533101D01*
X74938948Y-93493559D01*
X74978834Y-93505112D01*
X75117388Y-93550924D01*
X75372763Y-93629284D01*
X75698973Y-93726188D01*
X75838510Y-93766867D01*
X76564684Y-93977392D01*
X77432143Y-93724696D01*
X77797558Y-93620670D01*
X78105749Y-93537438D01*
X78318569Y-93485035D01*
X78392801Y-93472000D01*
X78463125Y-93544327D01*
X78486000Y-93681301D01*
X78465498Y-93805324D01*
X78378681Y-93892811D01*
X78187583Y-93970654D01*
X77999167Y-94026122D01*
X77596556Y-94140352D01*
X77352436Y-94218527D01*
X77261552Y-94267744D01*
X77318652Y-94295098D01*
X77518480Y-94307683D01*
X77787500Y-94311982D01*
X78486000Y-94318666D01*
X78486000Y-94826666D01*
X74845333Y-94826666D01*
X74845333Y-94318666D01*
X75459167Y-94312122D01*
G36*
X74851196Y-91969828D02*
G01*
X74884339Y-91907506D01*
X74968096Y-91879734D01*
X75125798Y-91887392D01*
X75380779Y-91931356D01*
X75756369Y-92012505D01*
X76213668Y-92117333D01*
X76777560Y-92234801D01*
X77301737Y-92320054D01*
X77737016Y-92365682D01*
X77899428Y-92371333D01*
X78207106Y-92374523D01*
X78382547Y-92393016D01*
X78462836Y-92440193D01*
X78485060Y-92529437D01*
X78486000Y-92583000D01*
X78476219Y-92697213D01*
X78421251Y-92760591D01*
X78282657Y-92788066D01*
X78021996Y-92794568D01*
X77941061Y-92794666D01*
X77627645Y-92815780D01*
X77203675Y-92873645D01*
X76721850Y-92960051D01*
X76311228Y-93048619D01*
X75888332Y-93147566D01*
X75511401Y-93235677D01*
X75218400Y-93304082D01*
X75047296Y-93343913D01*
X75035833Y-93346565D01*
X74899696Y-93353597D01*
X74850139Y-93257805D01*
X74845333Y-93146923D01*
X74853103Y-93023851D01*
X74899374Y-92943646D01*
X75018586Y-92887752D01*
X75245183Y-92837617D01*
X75501500Y-92793440D01*
X75933165Y-92717446D01*
X76203537Y-92657593D01*
X76319178Y-92607686D01*
X76286648Y-92561529D01*
X76112510Y-92512929D01*
X75850626Y-92463785D01*
X75427765Y-92389667D01*
X75144045Y-92333143D01*
X74971704Y-92283225D01*
X74882980Y-92228921D01*
X74850110Y-92159242D01*
X74845333Y-92065821D01*
X74851196Y-91969828D01*
G37*
X74851196Y-91969828D02*
X74884339Y-91907506D01*
X74968096Y-91879734D01*
X75125798Y-91887392D01*
X75380779Y-91931356D01*
X75756369Y-92012505D01*
X76213668Y-92117333D01*
X76777560Y-92234801D01*
X77301737Y-92320054D01*
X77737016Y-92365682D01*
X77899428Y-92371333D01*
X78207106Y-92374523D01*
X78382547Y-92393016D01*
X78462836Y-92440193D01*
X78485060Y-92529437D01*
X78486000Y-92583000D01*
X78476219Y-92697213D01*
X78421251Y-92760591D01*
X78282657Y-92788066D01*
X78021996Y-92794568D01*
X77941061Y-92794666D01*
X77627645Y-92815780D01*
X77203675Y-92873645D01*
X76721850Y-92960051D01*
X76311228Y-93048619D01*
X75888332Y-93147566D01*
X75511401Y-93235677D01*
X75218400Y-93304082D01*
X75047296Y-93343913D01*
X75035833Y-93346565D01*
X74899696Y-93353597D01*
X74850139Y-93257805D01*
X74845333Y-93146923D01*
X74853103Y-93023851D01*
X74899374Y-92943646D01*
X75018586Y-92887752D01*
X75245183Y-92837617D01*
X75501500Y-92793440D01*
X75933165Y-92717446D01*
X76203537Y-92657593D01*
X76319178Y-92607686D01*
X76286648Y-92561529D01*
X76112510Y-92512929D01*
X75850626Y-92463785D01*
X75427765Y-92389667D01*
X75144045Y-92333143D01*
X74971704Y-92283225D01*
X74882980Y-92228921D01*
X74850110Y-92159242D01*
X74845333Y-92065821D01*
X74851196Y-91969828D01*
G36*
X74853138Y-91262090D02*
G01*
X74895147Y-91180296D01*
X74999249Y-91107363D01*
X75193334Y-91027265D01*
X75505292Y-90923977D01*
X75755500Y-90845804D01*
X76665667Y-90563406D01*
X75750435Y-90276244D01*
X75355300Y-90150308D01*
X75095236Y-90058083D01*
X74943313Y-89983994D01*
X74872600Y-89912463D01*
X74856166Y-89827913D01*
X74861435Y-89762040D01*
X74887667Y-89535000D01*
X76686833Y-89512149D01*
X78486000Y-89489299D01*
X78486000Y-90000666D01*
X77575833Y-90008452D01*
X76665667Y-90016238D01*
X77194833Y-90194088D01*
X77488024Y-90302477D01*
X77650600Y-90394722D01*
X77716571Y-90494337D01*
X77724000Y-90559952D01*
X77697225Y-90672518D01*
X77593907Y-90762925D01*
X77379556Y-90854361D01*
X77194833Y-90915715D01*
X76665667Y-91083463D01*
X77575833Y-91092398D01*
X78486000Y-91101333D01*
X78486000Y-91609333D01*
X74845333Y-91609333D01*
X74845333Y-91368768D01*
X74853138Y-91262090D01*
G37*
X74853138Y-91262090D02*
X74895147Y-91180296D01*
X74999249Y-91107363D01*
X75193334Y-91027265D01*
X75505292Y-90923977D01*
X75755500Y-90845804D01*
X76665667Y-90563406D01*
X75750435Y-90276244D01*
X75355300Y-90150308D01*
X75095236Y-90058083D01*
X74943313Y-89983994D01*
X74872600Y-89912463D01*
X74856166Y-89827913D01*
X74861435Y-89762040D01*
X74887667Y-89535000D01*
X76686833Y-89512149D01*
X78486000Y-89489299D01*
X78486000Y-90000666D01*
X77575833Y-90008452D01*
X76665667Y-90016238D01*
X77194833Y-90194088D01*
X77488024Y-90302477D01*
X77650600Y-90394722D01*
X77716571Y-90494337D01*
X77724000Y-90559952D01*
X77697225Y-90672518D01*
X77593907Y-90762925D01*
X77379556Y-90854361D01*
X77194833Y-90915715D01*
X76665667Y-91083463D01*
X77575833Y-91092398D01*
X78486000Y-91101333D01*
X78486000Y-91609333D01*
X74845333Y-91609333D01*
X74845333Y-91368768D01*
X74853138Y-91262090D01*
G36*
X78486000Y-88646000D02*
G01*
X78486000Y-89069333D01*
X74845333Y-89069333D01*
X74845333Y-88646000D01*
X78486000Y-88646000D01*
G37*
X78486000Y-88646000D02*
X78486000Y-89069333D01*
X74845333Y-89069333D01*
X74845333Y-88646000D01*
X78486000Y-88646000D01*
G36*
X74865256Y-87311472D02*
G01*
X74926597Y-87092668D01*
X74968116Y-87040833D01*
X75123597Y-86988084D01*
X75431065Y-86953759D01*
X75874002Y-86939546D01*
X75962949Y-86939252D01*
X76454306Y-86937753D01*
X76999003Y-86933483D01*
X77501262Y-86927259D01*
X77639333Y-86924952D01*
X78443667Y-86910333D01*
X78470457Y-87143166D01*
X78497247Y-87376000D01*
X77729624Y-87376000D01*
X77367308Y-87377654D01*
X77141858Y-87388586D01*
X77020810Y-87417748D01*
X76971696Y-87474091D01*
X76962050Y-87566569D01*
X76962000Y-87587666D01*
X76968067Y-87687866D01*
X77007993Y-87750079D01*
X77114363Y-87783359D01*
X77319762Y-87796757D01*
X77656776Y-87799323D01*
X77724000Y-87799333D01*
X78084717Y-87801019D01*
X78308686Y-87812109D01*
X78428494Y-87841656D01*
X78476724Y-87898712D01*
X78485963Y-87992327D01*
X78486000Y-88011000D01*
X78486000Y-88222666D01*
X75903667Y-88222666D01*
X75903667Y-87799333D01*
X76201498Y-87794056D01*
X76367546Y-87770547D01*
X76439228Y-87717296D01*
X76454000Y-87630000D01*
X76436848Y-87538359D01*
X76360446Y-87487268D01*
X76187379Y-87465212D01*
X75903667Y-87460666D01*
X75605835Y-87465944D01*
X75439787Y-87489452D01*
X75368105Y-87542704D01*
X75353333Y-87630000D01*
X75370485Y-87721640D01*
X75446887Y-87772732D01*
X75619954Y-87794788D01*
X75903667Y-87799333D01*
X75903667Y-88222666D01*
X74845333Y-88222666D01*
X74845333Y-87682700D01*
X74865256Y-87311472D01*
G37*
X74865256Y-87311472D02*
X74926597Y-87092668D01*
X74968116Y-87040833D01*
X75123597Y-86988084D01*
X75431065Y-86953759D01*
X75874002Y-86939546D01*
X75962949Y-86939252D01*
X76454306Y-86937753D01*
X76999003Y-86933483D01*
X77501262Y-86927259D01*
X77639333Y-86924952D01*
X78443667Y-86910333D01*
X78470457Y-87143166D01*
X78497247Y-87376000D01*
X77729624Y-87376000D01*
X77367308Y-87377654D01*
X77141858Y-87388586D01*
X77020810Y-87417748D01*
X76971696Y-87474091D01*
X76962050Y-87566569D01*
X76962000Y-87587666D01*
X76968067Y-87687866D01*
X77007993Y-87750079D01*
X77114363Y-87783359D01*
X77319762Y-87796757D01*
X77656776Y-87799323D01*
X77724000Y-87799333D01*
X78084717Y-87801019D01*
X78308686Y-87812109D01*
X78428494Y-87841656D01*
X78476724Y-87898712D01*
X78485963Y-87992327D01*
X78486000Y-88011000D01*
X78486000Y-88222666D01*
X75903667Y-88222666D01*
X75903667Y-87799333D01*
X76201498Y-87794056D01*
X76367546Y-87770547D01*
X76439228Y-87717296D01*
X76454000Y-87630000D01*
X76436848Y-87538359D01*
X76360446Y-87487268D01*
X76187379Y-87465212D01*
X75903667Y-87460666D01*
X75605835Y-87465944D01*
X75439787Y-87489452D01*
X75368105Y-87542704D01*
X75353333Y-87630000D01*
X75370485Y-87721640D01*
X75446887Y-87772732D01*
X75619954Y-87794788D01*
X75903667Y-87799333D01*
X75903667Y-88222666D01*
X74845333Y-88222666D01*
X74845333Y-87682700D01*
X74865256Y-87311472D01*
G36*
X74849945Y-85601316D02*
G01*
X74861699Y-85453373D01*
X74870175Y-85428666D01*
X74958052Y-85420401D01*
X75188325Y-85397368D01*
X75534956Y-85362208D01*
X75971906Y-85317566D01*
X76473134Y-85266082D01*
X76538667Y-85259333D01*
X77160579Y-85195111D01*
X77634089Y-85147551D01*
X77979348Y-85117093D01*
X78216510Y-85104173D01*
X78365726Y-85109230D01*
X78447148Y-85132702D01*
X78480929Y-85175027D01*
X78487219Y-85236643D01*
X78486000Y-85301666D01*
X78450527Y-85463300D01*
X78313357Y-85512664D01*
X78281258Y-85513333D01*
X77997878Y-85548043D01*
X77848187Y-85663157D01*
X77808667Y-85850237D01*
X77828891Y-86004737D01*
X77921115Y-86086611D01*
X78132667Y-86136145D01*
X78147333Y-86138513D01*
X78367866Y-86189221D01*
X78465333Y-86270284D01*
X78486000Y-86403334D01*
X78449670Y-86562068D01*
X78380167Y-86614563D01*
X78266974Y-86606055D01*
X78012503Y-86581986D01*
X77643818Y-86545078D01*
X77187986Y-86498050D01*
X77132277Y-86492173D01*
X77132277Y-86010758D01*
X77247564Y-85991696D01*
X77292740Y-85940368D01*
X77300690Y-85850640D01*
X77300704Y-85838434D01*
X77300742Y-85640333D01*
X76449098Y-85718870D01*
X76044284Y-85763323D01*
X75808092Y-85806697D01*
X75740662Y-85849324D01*
X75842138Y-85891532D01*
X76112661Y-85933652D01*
X76552372Y-85976015D01*
X76559833Y-85976619D01*
X76913995Y-86003688D01*
X77132277Y-86010758D01*
X77132277Y-86492173D01*
X76672071Y-86443621D01*
X76559833Y-86431634D01*
X74845333Y-86248142D01*
X74845333Y-85838404D01*
X74849945Y-85601316D01*
G37*
X74849945Y-85601316D02*
X74861699Y-85453373D01*
X74870175Y-85428666D01*
X74958052Y-85420401D01*
X75188325Y-85397368D01*
X75534956Y-85362208D01*
X75971906Y-85317566D01*
X76473134Y-85266082D01*
X76538667Y-85259333D01*
X77160579Y-85195111D01*
X77634089Y-85147551D01*
X77979348Y-85117093D01*
X78216510Y-85104173D01*
X78365726Y-85109230D01*
X78447148Y-85132702D01*
X78480929Y-85175027D01*
X78487219Y-85236643D01*
X78486000Y-85301666D01*
X78450527Y-85463300D01*
X78313357Y-85512664D01*
X78281258Y-85513333D01*
X77997878Y-85548043D01*
X77848187Y-85663157D01*
X77808667Y-85850237D01*
X77828891Y-86004737D01*
X77921115Y-86086611D01*
X78132667Y-86136145D01*
X78147333Y-86138513D01*
X78367866Y-86189221D01*
X78465333Y-86270284D01*
X78486000Y-86403334D01*
X78449670Y-86562068D01*
X78380167Y-86614563D01*
X78266974Y-86606055D01*
X78012503Y-86581986D01*
X77643818Y-86545078D01*
X77187986Y-86498050D01*
X77132277Y-86492173D01*
X77132277Y-86010758D01*
X77247564Y-85991696D01*
X77292740Y-85940368D01*
X77300690Y-85850640D01*
X77300704Y-85838434D01*
X77300742Y-85640333D01*
X76449098Y-85718870D01*
X76044284Y-85763323D01*
X75808092Y-85806697D01*
X75740662Y-85849324D01*
X75842138Y-85891532D01*
X76112661Y-85933652D01*
X76552372Y-85976015D01*
X76559833Y-85976619D01*
X76913995Y-86003688D01*
X77132277Y-86010758D01*
X77132277Y-86492173D01*
X76672071Y-86443621D01*
X76559833Y-86431634D01*
X74845333Y-86248142D01*
X74845333Y-85838404D01*
X74849945Y-85601316D01*
G36*
X75537763Y-96655130D02*
G01*
X75772907Y-96554099D01*
X76090819Y-96477494D01*
X76369438Y-96413602D01*
X76527571Y-96342829D01*
X76612331Y-96234131D01*
X76657517Y-96104100D01*
X76695729Y-95890306D01*
X76646597Y-95775153D01*
X76621630Y-95756947D01*
X76524164Y-95625058D01*
X76476464Y-95461000D01*
X76472846Y-95303895D01*
X76545602Y-95272187D01*
X76619510Y-95291120D01*
X76764360Y-95297225D01*
X76793963Y-95234539D01*
X76815299Y-95175828D01*
X76874026Y-95247548D01*
X76968255Y-95324547D01*
X77013106Y-95311782D01*
X77112309Y-95308681D01*
X77233676Y-95384128D01*
X77293898Y-95484199D01*
X77293389Y-95493200D01*
X77265888Y-95604420D01*
X77209828Y-95798027D01*
X77209130Y-95800333D01*
X77165430Y-96010484D01*
X77169041Y-96153976D01*
X77143151Y-96284084D01*
X77079960Y-96358169D01*
X77000467Y-96458379D01*
X77063826Y-96540139D01*
X77129914Y-96615479D01*
X77066321Y-96661005D01*
X76913131Y-96757485D01*
X76851838Y-96811590D01*
X76666882Y-96913752D01*
X76358778Y-96996518D01*
X75973522Y-97048456D01*
X75871622Y-97055226D01*
X75604762Y-97018562D01*
X75492525Y-96924497D01*
X75448549Y-96775423D01*
X75537763Y-96655130D01*
G37*
X75537763Y-96655130D02*
X75772907Y-96554099D01*
X76090819Y-96477494D01*
X76369438Y-96413602D01*
X76527571Y-96342829D01*
X76612331Y-96234131D01*
X76657517Y-96104100D01*
X76695729Y-95890306D01*
X76646597Y-95775153D01*
X76621630Y-95756947D01*
X76524164Y-95625058D01*
X76476464Y-95461000D01*
X76472846Y-95303895D01*
X76545602Y-95272187D01*
X76619510Y-95291120D01*
X76764360Y-95297225D01*
X76793963Y-95234539D01*
X76815299Y-95175828D01*
X76874026Y-95247548D01*
X76968255Y-95324547D01*
X77013106Y-95311782D01*
X77112309Y-95308681D01*
X77233676Y-95384128D01*
X77293898Y-95484199D01*
X77293389Y-95493200D01*
X77265888Y-95604420D01*
X77209828Y-95798027D01*
X77209130Y-95800333D01*
X77165430Y-96010484D01*
X77169041Y-96153976D01*
X77143151Y-96284084D01*
X77079960Y-96358169D01*
X77000467Y-96458379D01*
X77063826Y-96540139D01*
X77129914Y-96615479D01*
X77066321Y-96661005D01*
X76913131Y-96757485D01*
X76851838Y-96811590D01*
X76666882Y-96913752D01*
X76358778Y-96996518D01*
X75973522Y-97048456D01*
X75871622Y-97055226D01*
X75604762Y-97018562D01*
X75492525Y-96924497D01*
X75448549Y-96775423D01*
X75537763Y-96655130D01*
G36*
X72937037Y-97489660D02*
G01*
X72974989Y-97456756D01*
X73130670Y-97409378D01*
X73186655Y-97416866D01*
X73292086Y-97380911D01*
X73379030Y-97222476D01*
X73431537Y-96988399D01*
X73433657Y-96725514D01*
X73430621Y-96700460D01*
X73423495Y-96457843D01*
X73472378Y-96320815D01*
X73480991Y-96314313D01*
X73565443Y-96318804D01*
X73575333Y-96358033D01*
X73623617Y-96371161D01*
X73743535Y-96276709D01*
X73782957Y-96236030D01*
X73962499Y-96085973D01*
X74126866Y-96015399D01*
X74142790Y-96014574D01*
X74248321Y-96024435D01*
X74203210Y-96069919D01*
X74146831Y-96103449D01*
X74003950Y-96238130D01*
X73869490Y-96439541D01*
X73801458Y-96621333D01*
X73848779Y-96690186D01*
X74017675Y-96648578D01*
X74189167Y-96566833D01*
X74351900Y-96493291D01*
X74414507Y-96509367D01*
X74422000Y-96564056D01*
X74364422Y-96703485D01*
X74236702Y-96855368D01*
X74051403Y-97028000D01*
X74257868Y-97037750D01*
X74485284Y-97039423D01*
X74612500Y-97032428D01*
X74743659Y-97042899D01*
X74718902Y-97115831D01*
X74539053Y-97249599D01*
X74485500Y-97282928D01*
X74210333Y-97450700D01*
X74443167Y-97451017D01*
X74629936Y-97475409D01*
X74655335Y-97545254D01*
X74519975Y-97656642D01*
X74400833Y-97722317D01*
X73975477Y-97917856D01*
X73653741Y-98012703D01*
X73407568Y-98012636D01*
X73261215Y-97956976D01*
X73034269Y-97789852D01*
X72920466Y-97624041D01*
X72937037Y-97489660D01*
G37*
X72937037Y-97489660D02*
X72974989Y-97456756D01*
X73130670Y-97409378D01*
X73186655Y-97416866D01*
X73292086Y-97380911D01*
X73379030Y-97222476D01*
X73431537Y-96988399D01*
X73433657Y-96725514D01*
X73430621Y-96700460D01*
X73423495Y-96457843D01*
X73472378Y-96320815D01*
X73480991Y-96314313D01*
X73565443Y-96318804D01*
X73575333Y-96358033D01*
X73623617Y-96371161D01*
X73743535Y-96276709D01*
X73782957Y-96236030D01*
X73962499Y-96085973D01*
X74126866Y-96015399D01*
X74142790Y-96014574D01*
X74248321Y-96024435D01*
X74203210Y-96069919D01*
X74146831Y-96103449D01*
X74003950Y-96238130D01*
X73869490Y-96439541D01*
X73801458Y-96621333D01*
X73848779Y-96690186D01*
X74017675Y-96648578D01*
X74189167Y-96566833D01*
X74351900Y-96493291D01*
X74414507Y-96509367D01*
X74422000Y-96564056D01*
X74364422Y-96703485D01*
X74236702Y-96855368D01*
X74051403Y-97028000D01*
X74257868Y-97037750D01*
X74485284Y-97039423D01*
X74612500Y-97032428D01*
X74743659Y-97042899D01*
X74718902Y-97115831D01*
X74539053Y-97249599D01*
X74485500Y-97282928D01*
X74210333Y-97450700D01*
X74443167Y-97451017D01*
X74629936Y-97475409D01*
X74655335Y-97545254D01*
X74519975Y-97656642D01*
X74400833Y-97722317D01*
X73975477Y-97917856D01*
X73653741Y-98012703D01*
X73407568Y-98012636D01*
X73261215Y-97956976D01*
X73034269Y-97789852D01*
X72920466Y-97624041D01*
X72937037Y-97489660D01*
G36*
X73790245Y-94825485D02*
G01*
X73849094Y-94726193D01*
X73920213Y-94672717D01*
X74078718Y-94605682D01*
X74209633Y-94662271D01*
X74246277Y-94693884D01*
X74402881Y-94799404D01*
X74494341Y-94826666D01*
X74542878Y-94874370D01*
X74489338Y-95030936D01*
X74466507Y-95076462D01*
X74362044Y-95299068D01*
X74348738Y-95393923D01*
X74425055Y-95374986D01*
X74434348Y-95369368D01*
X74493910Y-95373871D01*
X74479025Y-95517227D01*
X74473288Y-95540799D01*
X74453271Y-95697767D01*
X74497423Y-95721380D01*
X74598556Y-95713707D01*
X74631549Y-95799957D01*
X74569682Y-95909862D01*
X74569234Y-95910233D01*
X74412277Y-95961102D01*
X74242579Y-95954408D01*
X74069120Y-95874248D01*
X73959132Y-95686403D01*
X73932320Y-95602081D01*
X73831408Y-95228863D01*
X73784200Y-94981520D01*
X73790245Y-94825485D01*
G37*
X73790245Y-94825485D02*
X73849094Y-94726193D01*
X73920213Y-94672717D01*
X74078718Y-94605682D01*
X74209633Y-94662271D01*
X74246277Y-94693884D01*
X74402881Y-94799404D01*
X74494341Y-94826666D01*
X74542878Y-94874370D01*
X74489338Y-95030936D01*
X74466507Y-95076462D01*
X74362044Y-95299068D01*
X74348738Y-95393923D01*
X74425055Y-95374986D01*
X74434348Y-95369368D01*
X74493910Y-95373871D01*
X74479025Y-95517227D01*
X74473288Y-95540799D01*
X74453271Y-95697767D01*
X74497423Y-95721380D01*
X74598556Y-95713707D01*
X74631549Y-95799957D01*
X74569682Y-95909862D01*
X74569234Y-95910233D01*
X74412277Y-95961102D01*
X74242579Y-95954408D01*
X74069120Y-95874248D01*
X73959132Y-95686403D01*
X73932320Y-95602081D01*
X73831408Y-95228863D01*
X73784200Y-94981520D01*
X73790245Y-94825485D01*
G36*
X72343885Y-97207373D02*
G01*
X72399441Y-96950431D01*
X72483183Y-96729180D01*
X72587719Y-96592341D01*
X72589182Y-96591333D01*
X72729765Y-96563643D01*
X72844705Y-96629336D01*
X72863190Y-96742592D01*
X72853789Y-96846434D01*
X72943923Y-96826220D01*
X73081833Y-96718544D01*
X73198908Y-96639929D01*
X73242958Y-96655044D01*
X73262893Y-96796154D01*
X73281663Y-96901874D01*
X73275417Y-97099702D01*
X73241705Y-97189181D01*
X73104312Y-97267424D01*
X72984971Y-97258070D01*
X72873610Y-97242424D01*
X72824562Y-97299008D01*
X72819901Y-97466617D01*
X72828138Y-97597489D01*
X72824222Y-97882806D01*
X72762218Y-98015805D01*
X72749833Y-98021615D01*
X72661013Y-97986109D01*
X72644000Y-97913688D01*
X72622819Y-97818049D01*
X72533093Y-97861582D01*
X72515062Y-97876275D01*
X72423271Y-97938049D01*
X72429480Y-97871155D01*
X72439453Y-97844309D01*
X72451084Y-97727837D01*
X72420225Y-97705165D01*
X72346886Y-97633459D01*
X72323903Y-97451289D01*
X72343885Y-97207373D01*
G37*
X72343885Y-97207373D02*
X72399441Y-96950431D01*
X72483183Y-96729180D01*
X72587719Y-96592341D01*
X72589182Y-96591333D01*
X72729765Y-96563643D01*
X72844705Y-96629336D01*
X72863190Y-96742592D01*
X72853789Y-96846434D01*
X72943923Y-96826220D01*
X73081833Y-96718544D01*
X73198908Y-96639929D01*
X73242958Y-96655044D01*
X73262893Y-96796154D01*
X73281663Y-96901874D01*
X73275417Y-97099702D01*
X73241705Y-97189181D01*
X73104312Y-97267424D01*
X72984971Y-97258070D01*
X72873610Y-97242424D01*
X72824562Y-97299008D01*
X72819901Y-97466617D01*
X72828138Y-97597489D01*
X72824222Y-97882806D01*
X72762218Y-98015805D01*
X72749833Y-98021615D01*
X72661013Y-97986109D01*
X72644000Y-97913688D01*
X72622819Y-97818049D01*
X72533093Y-97861582D01*
X72515062Y-97876275D01*
X72423271Y-97938049D01*
X72429480Y-97871155D01*
X72439453Y-97844309D01*
X72451084Y-97727837D01*
X72420225Y-97705165D01*
X72346886Y-97633459D01*
X72323903Y-97451289D01*
X72343885Y-97207373D01*
D12*
G04 #@! TO.C,D3*
X79049200Y-42307600D02*
X78541200Y-42917200D01*
X79608000Y-42866400D02*
X79049200Y-42307600D01*
X79835000Y-45800000D02*
X79835000Y-43515000D01*
X79835000Y-43515000D02*
X78365000Y-43515000D01*
X78365000Y-43515000D02*
X78365000Y-45800000D01*
G04 #@! TO.C,ECG IN*
X105978000Y-97342000D02*
X104648000Y-97342000D01*
X105978000Y-96012000D02*
X105978000Y-97342000D01*
X105978000Y-94742000D02*
X103318000Y-94742000D01*
X103318000Y-94742000D02*
X103318000Y-81982000D01*
X105978000Y-94742000D02*
X105978000Y-81982000D01*
X105978000Y-81982000D02*
X103318000Y-81982000D01*
G04 #@! TO.C,R13*
X63822859Y-37857000D02*
X64130141Y-37857000D01*
X63822859Y-38617000D02*
X64130141Y-38617000D01*
G04 #@! TO.C,R9*
X92020000Y-37956359D02*
X92020000Y-38263641D01*
X92780000Y-37956359D02*
X92780000Y-38263641D01*
G04 #@! TO.C,D2*
X94572900Y-66656200D02*
X93963300Y-66148200D01*
X94014100Y-67215000D02*
X94572900Y-66656200D01*
X91080500Y-67442000D02*
X93365500Y-67442000D01*
X93365500Y-67442000D02*
X93365500Y-65972000D01*
X93365500Y-65972000D02*
X91080500Y-65972000D01*
G04 #@! TO.C,R2*
X92588000Y-84408641D02*
X92588000Y-84101359D01*
X93348000Y-84408641D02*
X93348000Y-84101359D01*
G04 #@! TO.C,Y1*
X96270000Y-99152000D02*
X86110000Y-99152000D01*
X96270000Y-94326000D02*
X96270000Y-99152000D01*
X86110000Y-94326000D02*
X96270000Y-94326000D01*
X86110000Y-99152000D02*
X86110000Y-94326000D01*
X96270000Y-99152000D02*
X86110000Y-99152000D01*
X86110000Y-96866000D02*
X86110000Y-99152000D01*
X86110000Y-98390000D02*
X86110000Y-94326000D01*
X96270000Y-94326000D02*
X96270000Y-99152000D01*
G04 #@! TO.C,C4*
X87635664Y-72666800D02*
X87851336Y-72666800D01*
X87635664Y-73386800D02*
X87851336Y-73386800D01*
G04 #@! TO.C,C6*
X93572164Y-92860000D02*
X93787836Y-92860000D01*
X93572164Y-92140000D02*
X93787836Y-92140000D01*
G04 #@! TO.C,Y2*
X93070000Y-51360000D02*
X93070000Y-56186000D01*
X82910000Y-55424000D02*
X82910000Y-51360000D01*
X82910000Y-53900000D02*
X82910000Y-56186000D01*
X93070000Y-56186000D02*
X82910000Y-56186000D01*
X82910000Y-56186000D02*
X82910000Y-51360000D01*
X82910000Y-51360000D02*
X93070000Y-51360000D01*
X93070000Y-51360000D02*
X93070000Y-56186000D01*
X93070000Y-56186000D02*
X82910000Y-56186000D01*
G04 #@! TO.C,SPI*
X68139000Y-80197000D02*
X70799000Y-80197000D01*
X68139000Y-69977000D02*
X68139000Y-80197000D01*
X70799000Y-69977000D02*
X70799000Y-80197000D01*
X68139000Y-69977000D02*
X70799000Y-69977000D01*
X68139000Y-68707000D02*
X68139000Y-67377000D01*
X68139000Y-67377000D02*
X69469000Y-67377000D01*
G04 #@! TO.C,RPI GPIO*
X105119000Y-107336000D02*
X105119000Y-108666000D01*
X103789000Y-107336000D02*
X105119000Y-107336000D01*
X105119000Y-109936000D02*
X105119000Y-112536000D01*
X102519000Y-109936000D02*
X105119000Y-109936000D01*
X102519000Y-107336000D02*
X102519000Y-109936000D01*
X105119000Y-112536000D02*
X74519000Y-112536000D01*
X102519000Y-107336000D02*
X74519000Y-107336000D01*
X74519000Y-107336000D02*
X74519000Y-112536000D01*
D13*
G04 #@! TO.C,ADS1293*
X89452000Y-91119000D02*
X89997000Y-91119000D01*
D14*
X95547000Y-90119000D02*
G75*
G03*
X95547000Y-90119000I-100000J0D01*
G01*
D13*
X89452000Y-91119000D02*
X89452000Y-90574000D01*
X94452000Y-86119000D02*
X94452000Y-86664000D01*
X89452000Y-86119000D02*
X89452000Y-86664000D01*
X94452000Y-91119000D02*
X93907000Y-91119000D01*
X94452000Y-86119000D02*
X93907000Y-86119000D01*
X89452000Y-86119000D02*
X89997000Y-86119000D01*
X94452000Y-91119000D02*
X94452000Y-90574000D01*
D12*
G04 #@! TO.C,ECG CTRL*
X103318000Y-79562000D02*
X105978000Y-79562000D01*
X103318000Y-71882000D02*
X103318000Y-79562000D01*
X105978000Y-71882000D02*
X105978000Y-79562000D01*
X103318000Y-71882000D02*
X105978000Y-71882000D01*
X103318000Y-70612000D02*
X103318000Y-69282000D01*
X103318000Y-69282000D02*
X104648000Y-69282000D01*
G04 #@! TO.C,C2*
X83768336Y-73773300D02*
X83552664Y-73773300D01*
X83768336Y-74493300D02*
X83552664Y-74493300D01*
G04 #@! TO.C,C5*
X88761500Y-76527136D02*
X88761500Y-76311464D01*
X89481500Y-76527136D02*
X89481500Y-76311464D01*
G04 #@! TO.C,C17*
X93095664Y-60870000D02*
X93311336Y-60870000D01*
X93095664Y-61590000D02*
X93311336Y-61590000D01*
G04 #@! TO.C,C18*
X77376664Y-38668500D02*
X77592336Y-38668500D01*
X77376664Y-39388500D02*
X77592336Y-39388500D01*
G04 #@! TO.C,C19*
X91215836Y-60870000D02*
X91000164Y-60870000D01*
X91215836Y-61590000D02*
X91000164Y-61590000D01*
G04 #@! TO.C,C20*
X75306336Y-39388500D02*
X75090664Y-39388500D01*
X75306336Y-38668500D02*
X75090664Y-38668500D01*
G04 #@! TO.C,C21*
X94340000Y-64427836D02*
X94340000Y-64212164D01*
X95060000Y-64427836D02*
X95060000Y-64212164D01*
G04 #@! TO.C,C22*
X76830336Y-43558000D02*
X76614664Y-43558000D01*
X76830336Y-44278000D02*
X76614664Y-44278000D01*
G04 #@! TO.C,I2C*
X66354000Y-112462000D02*
X66354000Y-113792000D01*
X65024000Y-112462000D02*
X66354000Y-112462000D01*
X63754000Y-112462000D02*
X63754000Y-115122000D01*
X63754000Y-115122000D02*
X56074000Y-115122000D01*
X63754000Y-112462000D02*
X56074000Y-112462000D01*
X56074000Y-112462000D02*
X56074000Y-115122000D01*
G04 #@! TO.C,UART*
X64576000Y-98619000D02*
X61916000Y-98619000D01*
X64576000Y-106299000D02*
X64576000Y-98619000D01*
X61916000Y-106299000D02*
X61916000Y-98619000D01*
X64576000Y-106299000D02*
X61916000Y-106299000D01*
X64576000Y-107569000D02*
X64576000Y-108899000D01*
X64576000Y-108899000D02*
X63246000Y-108899000D01*
G04 #@! TO.C,ADC CTRL*
X59916000Y-52140000D02*
X62576000Y-52140000D01*
X59916000Y-39380000D02*
X59916000Y-52140000D01*
X62576000Y-39380000D02*
X62576000Y-52140000D01*
X59916000Y-39380000D02*
X62576000Y-39380000D01*
X59916000Y-38110000D02*
X59916000Y-36780000D01*
X59916000Y-36780000D02*
X61246000Y-36780000D01*
G04 #@! TO.C,ADC IN*
X101540000Y-65211000D02*
X106740000Y-65211000D01*
X101540000Y-37211000D02*
X101540000Y-65211000D01*
X106740000Y-34611000D02*
X106740000Y-65211000D01*
X101540000Y-37211000D02*
X104140000Y-37211000D01*
X104140000Y-37211000D02*
X104140000Y-34611000D01*
X104140000Y-34611000D02*
X106740000Y-34611000D01*
X101540000Y-35941000D02*
X101540000Y-34611000D01*
X101540000Y-34611000D02*
X102870000Y-34611000D01*
G04 #@! TO.C,RPI*
X59130000Y-109030000D02*
X57800000Y-109030000D01*
X59130000Y-107700000D02*
X59130000Y-109030000D01*
X56530000Y-109030000D02*
X53930000Y-109030000D01*
X56530000Y-106430000D02*
X56530000Y-109030000D01*
X59130000Y-106430000D02*
X56530000Y-106430000D01*
X53930000Y-109030000D02*
X53930000Y-58110000D01*
X59130000Y-106430000D02*
X59130000Y-58110000D01*
X59130000Y-58110000D02*
X53930000Y-58110000D01*
G04 #@! TO.C,JP1*
X91661141Y-100230500D02*
X91353859Y-100230500D01*
X91661141Y-99470500D02*
X91353859Y-99470500D01*
G04 #@! TO.C,JP2*
X97141859Y-88928000D02*
X97449141Y-88928000D01*
X97141859Y-89688000D02*
X97449141Y-89688000D01*
G04 #@! TO.C,JP3*
X97449141Y-90044000D02*
X97141859Y-90044000D01*
X97449141Y-90804000D02*
X97141859Y-90804000D01*
G04 #@! TO.C,JP4*
X97143859Y-85380000D02*
X97451141Y-85380000D01*
X97143859Y-84620000D02*
X97451141Y-84620000D01*
G04 #@! TO.C,JP5*
X91355859Y-101373500D02*
X91663141Y-101373500D01*
X91355859Y-100613500D02*
X91663141Y-100613500D01*
G04 #@! TO.C,JP6*
X97449141Y-86467000D02*
X97141859Y-86467000D01*
X97449141Y-85707000D02*
X97141859Y-85707000D01*
G04 #@! TO.C,L1*
X85430859Y-72646800D02*
X85738141Y-72646800D01*
X85430859Y-73406800D02*
X85738141Y-73406800D01*
G04 #@! TO.C,L2*
X92046359Y-60480000D02*
X92353641Y-60480000D01*
X92046359Y-59720000D02*
X92353641Y-59720000D01*
G04 #@! TO.C,L3*
X76336359Y-37420000D02*
X76643641Y-37420000D01*
X76336359Y-38180000D02*
X76643641Y-38180000D01*
G04 #@! TO.C,R1*
X91699000Y-93163641D02*
X91699000Y-92856359D01*
X92459000Y-93163641D02*
X92459000Y-92856359D01*
G04 #@! TO.C,R3*
X94720000Y-84408641D02*
X94720000Y-84101359D01*
X95480000Y-84408641D02*
X95480000Y-84101359D01*
G04 #@! TO.C,R4*
X97449141Y-92276000D02*
X97141859Y-92276000D01*
X97449141Y-93036000D02*
X97141859Y-93036000D01*
G04 #@! TO.C,R5*
X97449141Y-91920000D02*
X97141859Y-91920000D01*
X97449141Y-91160000D02*
X97141859Y-91160000D01*
G04 #@! TO.C,R10*
X93868859Y-38258000D02*
X94176141Y-38258000D01*
X93868859Y-39018000D02*
X94176141Y-39018000D01*
G04 #@! TO.C,R11*
X97449141Y-88572000D02*
X97141859Y-88572000D01*
X97449141Y-87812000D02*
X97141859Y-87812000D01*
G04 #@! TO.C,R12*
X97449141Y-86759500D02*
X97141859Y-86759500D01*
X97449141Y-87519500D02*
X97141859Y-87519500D01*
G04 #@! TO.C,R14*
X63822859Y-41030000D02*
X64130141Y-41030000D01*
X63822859Y-40270000D02*
X64130141Y-40270000D01*
G04 #@! TO.C,R15*
X63886359Y-43570000D02*
X64193641Y-43570000D01*
X63886359Y-42810000D02*
X64193641Y-42810000D01*
G04 #@! TO.C,R16*
X63886359Y-45223000D02*
X64193641Y-45223000D01*
X63886359Y-45983000D02*
X64193641Y-45983000D01*
G04 #@! TO.C,R17*
X63949859Y-48523000D02*
X64257141Y-48523000D01*
X63949859Y-47763000D02*
X64257141Y-47763000D01*
G04 #@! TO.C,U1*
X88225000Y-74833800D02*
X87295000Y-74833800D01*
X85065000Y-74833800D02*
X85995000Y-74833800D01*
X85065000Y-74833800D02*
X85065000Y-76993800D01*
X88225000Y-74833800D02*
X88225000Y-76293800D01*
G04 #@! TO.C,U3*
X93794500Y-63010000D02*
X92864500Y-63010000D01*
X90634500Y-63010000D02*
X91564500Y-63010000D01*
X90634500Y-63010000D02*
X90634500Y-65170000D01*
X93794500Y-63010000D02*
X93794500Y-64470000D01*
G04 #@! TO.C,U4*
X77921500Y-40681500D02*
X77921500Y-42141500D01*
X74761500Y-40681500D02*
X74761500Y-42841500D01*
X74761500Y-40681500D02*
X75691500Y-40681500D01*
X77921500Y-40681500D02*
X76991500Y-40681500D01*
G04 #@! TO.C,ADS1241*
X86055000Y-47071000D02*
X86055000Y-48671000D01*
X96130000Y-47071000D02*
X96130000Y-41321000D01*
X85480000Y-47071000D02*
X85480000Y-41321000D01*
X96130000Y-47071000D02*
X95480000Y-47071000D01*
X96130000Y-41321000D02*
X95480000Y-41321000D01*
X85480000Y-41321000D02*
X86130000Y-41321000D01*
X85480000Y-47071000D02*
X86055000Y-47071000D01*
G04 #@! TO.C,R8*
X79480000Y-41253641D02*
X79480000Y-40946359D01*
X78720000Y-41253641D02*
X78720000Y-40946359D01*
G04 #@! TO.C,D1*
X88358500Y-77970300D02*
X86073500Y-77970300D01*
X88358500Y-79440300D02*
X88358500Y-77970300D01*
X86073500Y-79440300D02*
X88358500Y-79440300D01*
X89007100Y-79213300D02*
X89565900Y-78654500D01*
X89565900Y-78654500D02*
X88956300Y-78146500D01*
G04 #@! TO.C,C1*
X89407836Y-91940000D02*
X89192164Y-91940000D01*
X89407836Y-92660000D02*
X89192164Y-92660000D01*
G04 #@! TO.C,C3*
X95560000Y-93092164D02*
X95560000Y-93307836D01*
X94840000Y-93092164D02*
X94840000Y-93307836D01*
G04 #@! TO.C,C7*
X90957000Y-84362836D02*
X90957000Y-84147164D01*
X91677000Y-84362836D02*
X91677000Y-84147164D01*
G04 #@! TO.C,C8*
X85835000Y-98345664D02*
X85835000Y-98561336D01*
X85115000Y-98345664D02*
X85115000Y-98561336D01*
G04 #@! TO.C,C9*
X94380500Y-84362836D02*
X94380500Y-84147164D01*
X93660500Y-84362836D02*
X93660500Y-84147164D01*
G04 #@! TO.C,C10*
X85115000Y-95142664D02*
X85115000Y-95358336D01*
X85835000Y-95142664D02*
X85835000Y-95358336D01*
G04 #@! TO.C,C11*
X97265000Y-95107164D02*
X97265000Y-95322836D01*
X96545000Y-95107164D02*
X96545000Y-95322836D01*
G04 #@! TO.C,C12*
X96545000Y-98472664D02*
X96545000Y-98688336D01*
X97265000Y-98472664D02*
X97265000Y-98688336D01*
G04 #@! TO.C,C13*
X87107836Y-50060000D02*
X86892164Y-50060000D01*
X87107836Y-49340000D02*
X86892164Y-49340000D01*
G04 #@! TO.C,C14*
X89192164Y-50060000D02*
X89407836Y-50060000D01*
X89192164Y-49340000D02*
X89407836Y-49340000D01*
G04 #@! TO.C,C15*
X91460000Y-37707836D02*
X91460000Y-37492164D01*
X90740000Y-37707836D02*
X90740000Y-37492164D01*
G04 #@! TO.C,C16*
X84187836Y-48360000D02*
X83972164Y-48360000D01*
X84187836Y-47640000D02*
X83972164Y-47640000D01*
G04 #@! TO.C,C23*
X93892164Y-37140000D02*
X94107836Y-37140000D01*
X93892164Y-37860000D02*
X94107836Y-37860000D01*
G04 #@! TO.C,R6*
X90898500Y-78353641D02*
X90898500Y-78046359D01*
X90138500Y-78353641D02*
X90138500Y-78046359D01*
G04 #@! TO.C,R7*
X95620000Y-66343641D02*
X95620000Y-66036359D01*
X96380000Y-66343641D02*
X96380000Y-66036359D01*
G04 #@! TO.C,C24*
X92192164Y-50060000D02*
X92407836Y-50060000D01*
X92192164Y-49340000D02*
X92407836Y-49340000D01*
G04 #@! TO.C,D3*
D15*
X80891904Y-45590476D02*
X80091904Y-45590476D01*
X80091904Y-45400000D01*
X80130000Y-45285714D01*
X80206190Y-45209523D01*
X80282380Y-45171428D01*
X80434761Y-45133333D01*
X80549047Y-45133333D01*
X80701428Y-45171428D01*
X80777619Y-45209523D01*
X80853809Y-45285714D01*
X80891904Y-45400000D01*
X80891904Y-45590476D01*
X80091904Y-44866666D02*
X80091904Y-44371428D01*
X80396666Y-44638095D01*
X80396666Y-44523809D01*
X80434761Y-44447619D01*
X80472857Y-44409523D01*
X80549047Y-44371428D01*
X80739523Y-44371428D01*
X80815714Y-44409523D01*
X80853809Y-44447619D01*
X80891904Y-44523809D01*
X80891904Y-44752380D01*
X80853809Y-44828571D01*
X80815714Y-44866666D01*
G04 #@! TO.C,ECG IN*
X102242857Y-98728571D02*
X102576190Y-98728571D01*
X102719047Y-99252380D02*
X102242857Y-99252380D01*
X102242857Y-98252380D01*
X102719047Y-98252380D01*
X103719047Y-99157142D02*
X103671428Y-99204761D01*
X103528571Y-99252380D01*
X103433333Y-99252380D01*
X103290476Y-99204761D01*
X103195238Y-99109523D01*
X103147619Y-99014285D01*
X103100000Y-98823809D01*
X103100000Y-98680952D01*
X103147619Y-98490476D01*
X103195238Y-98395238D01*
X103290476Y-98300000D01*
X103433333Y-98252380D01*
X103528571Y-98252380D01*
X103671428Y-98300000D01*
X103719047Y-98347619D01*
X104671428Y-98300000D02*
X104576190Y-98252380D01*
X104433333Y-98252380D01*
X104290476Y-98300000D01*
X104195238Y-98395238D01*
X104147619Y-98490476D01*
X104100000Y-98680952D01*
X104100000Y-98823809D01*
X104147619Y-99014285D01*
X104195238Y-99109523D01*
X104290476Y-99204761D01*
X104433333Y-99252380D01*
X104528571Y-99252380D01*
X104671428Y-99204761D01*
X104719047Y-99157142D01*
X104719047Y-98823809D01*
X104528571Y-98823809D01*
X105909523Y-99252380D02*
X105909523Y-98252380D01*
X106385714Y-99252380D02*
X106385714Y-98252380D01*
X106957142Y-99252380D01*
X106957142Y-98252380D01*
G04 #@! TO.C,R13*
X63462214Y-37428904D02*
X63195547Y-37047952D01*
X63005071Y-37428904D02*
X63005071Y-36628904D01*
X63309833Y-36628904D01*
X63386023Y-36667000D01*
X63424119Y-36705095D01*
X63462214Y-36781285D01*
X63462214Y-36895571D01*
X63424119Y-36971761D01*
X63386023Y-37009857D01*
X63309833Y-37047952D01*
X63005071Y-37047952D01*
X64224119Y-37428904D02*
X63766976Y-37428904D01*
X63995547Y-37428904D02*
X63995547Y-36628904D01*
X63919357Y-36743190D01*
X63843166Y-36819380D01*
X63766976Y-36857476D01*
X64490785Y-36628904D02*
X64986023Y-36628904D01*
X64719357Y-36933666D01*
X64833642Y-36933666D01*
X64909833Y-36971761D01*
X64947928Y-37009857D01*
X64986023Y-37086047D01*
X64986023Y-37276523D01*
X64947928Y-37352714D01*
X64909833Y-37390809D01*
X64833642Y-37428904D01*
X64605071Y-37428904D01*
X64528880Y-37390809D01*
X64490785Y-37352714D01*
G04 #@! TO.C,R9*
X92761904Y-36443333D02*
X92380952Y-36710000D01*
X92761904Y-36900476D02*
X91961904Y-36900476D01*
X91961904Y-36595714D01*
X92000000Y-36519523D01*
X92038095Y-36481428D01*
X92114285Y-36443333D01*
X92228571Y-36443333D01*
X92304761Y-36481428D01*
X92342857Y-36519523D01*
X92380952Y-36595714D01*
X92380952Y-36900476D01*
X92761904Y-36062380D02*
X92761904Y-35910000D01*
X92723809Y-35833809D01*
X92685714Y-35795714D01*
X92571428Y-35719523D01*
X92419047Y-35681428D01*
X92114285Y-35681428D01*
X92038095Y-35719523D01*
X92000000Y-35757619D01*
X91961904Y-35833809D01*
X91961904Y-35986190D01*
X92000000Y-36062380D01*
X92038095Y-36100476D01*
X92114285Y-36138571D01*
X92304761Y-36138571D01*
X92380952Y-36100476D01*
X92419047Y-36062380D01*
X92457142Y-35986190D01*
X92457142Y-35833809D01*
X92419047Y-35757619D01*
X92380952Y-35719523D01*
X92304761Y-35681428D01*
G04 #@! TO.C,D2*
X91290023Y-68592904D02*
X91290023Y-67792904D01*
X91480500Y-67792904D01*
X91594785Y-67831000D01*
X91670976Y-67907190D01*
X91709071Y-67983380D01*
X91747166Y-68135761D01*
X91747166Y-68250047D01*
X91709071Y-68402428D01*
X91670976Y-68478619D01*
X91594785Y-68554809D01*
X91480500Y-68592904D01*
X91290023Y-68592904D01*
X92051928Y-67869095D02*
X92090023Y-67831000D01*
X92166214Y-67792904D01*
X92356690Y-67792904D01*
X92432880Y-67831000D01*
X92470976Y-67869095D01*
X92509071Y-67945285D01*
X92509071Y-68021476D01*
X92470976Y-68135761D01*
X92013833Y-68592904D01*
X92509071Y-68592904D01*
G04 #@! TO.C,R2*
X93266404Y-82737333D02*
X92885452Y-83004000D01*
X93266404Y-83194476D02*
X92466404Y-83194476D01*
X92466404Y-82889714D01*
X92504500Y-82813523D01*
X92542595Y-82775428D01*
X92618785Y-82737333D01*
X92733071Y-82737333D01*
X92809261Y-82775428D01*
X92847357Y-82813523D01*
X92885452Y-82889714D01*
X92885452Y-83194476D01*
X92542595Y-82432571D02*
X92504500Y-82394476D01*
X92466404Y-82318285D01*
X92466404Y-82127809D01*
X92504500Y-82051619D01*
X92542595Y-82013523D01*
X92618785Y-81975428D01*
X92694976Y-81975428D01*
X92809261Y-82013523D01*
X93266404Y-82470666D01*
X93266404Y-81975428D01*
G04 #@! TO.C,Y1*
X86491047Y-93544952D02*
X86491047Y-93925904D01*
X86224380Y-93125904D02*
X86491047Y-93544952D01*
X86757714Y-93125904D01*
X87443428Y-93925904D02*
X86986285Y-93925904D01*
X87214857Y-93925904D02*
X87214857Y-93125904D01*
X87138666Y-93240190D01*
X87062476Y-93316380D01*
X86986285Y-93354476D01*
G04 #@! TO.C,C4*
X87610166Y-72152514D02*
X87572071Y-72190609D01*
X87457785Y-72228704D01*
X87381595Y-72228704D01*
X87267309Y-72190609D01*
X87191119Y-72114419D01*
X87153023Y-72038228D01*
X87114928Y-71885847D01*
X87114928Y-71771561D01*
X87153023Y-71619180D01*
X87191119Y-71542990D01*
X87267309Y-71466800D01*
X87381595Y-71428704D01*
X87457785Y-71428704D01*
X87572071Y-71466800D01*
X87610166Y-71504895D01*
X88295880Y-71695371D02*
X88295880Y-72228704D01*
X88105404Y-71390609D02*
X87914928Y-71962038D01*
X88410166Y-71962038D01*
G04 #@! TO.C,C6*
X93466666Y-93885714D02*
X93428571Y-93923809D01*
X93314285Y-93961904D01*
X93238095Y-93961904D01*
X93123809Y-93923809D01*
X93047619Y-93847619D01*
X93009523Y-93771428D01*
X92971428Y-93619047D01*
X92971428Y-93504761D01*
X93009523Y-93352380D01*
X93047619Y-93276190D01*
X93123809Y-93200000D01*
X93238095Y-93161904D01*
X93314285Y-93161904D01*
X93428571Y-93200000D01*
X93466666Y-93238095D01*
X94152380Y-93161904D02*
X94000000Y-93161904D01*
X93923809Y-93200000D01*
X93885714Y-93238095D01*
X93809523Y-93352380D01*
X93771428Y-93504761D01*
X93771428Y-93809523D01*
X93809523Y-93885714D01*
X93847619Y-93923809D01*
X93923809Y-93961904D01*
X94076190Y-93961904D01*
X94152380Y-93923809D01*
X94190476Y-93885714D01*
X94228571Y-93809523D01*
X94228571Y-93619047D01*
X94190476Y-93542857D01*
X94152380Y-93504761D01*
X94076190Y-93466666D01*
X93923809Y-93466666D01*
X93847619Y-93504761D01*
X93809523Y-93542857D01*
X93771428Y-93619047D01*
G04 #@! TO.C,Y2*
X93812952Y-52502952D02*
X94193904Y-52502952D01*
X93393904Y-52769619D02*
X93812952Y-52502952D01*
X93393904Y-52236285D01*
X93470095Y-52007714D02*
X93432000Y-51969619D01*
X93393904Y-51893428D01*
X93393904Y-51702952D01*
X93432000Y-51626761D01*
X93470095Y-51588666D01*
X93546285Y-51550571D01*
X93622476Y-51550571D01*
X93736761Y-51588666D01*
X94193904Y-52045809D01*
X94193904Y-51550571D01*
G04 #@! TO.C,SPI*
X68480952Y-81723809D02*
X68595238Y-81761904D01*
X68785714Y-81761904D01*
X68861904Y-81723809D01*
X68900000Y-81685714D01*
X68938095Y-81609523D01*
X68938095Y-81533333D01*
X68900000Y-81457142D01*
X68861904Y-81419047D01*
X68785714Y-81380952D01*
X68633333Y-81342857D01*
X68557142Y-81304761D01*
X68519047Y-81266666D01*
X68480952Y-81190476D01*
X68480952Y-81114285D01*
X68519047Y-81038095D01*
X68557142Y-81000000D01*
X68633333Y-80961904D01*
X68823809Y-80961904D01*
X68938095Y-81000000D01*
X69280952Y-81761904D02*
X69280952Y-80961904D01*
X69585714Y-80961904D01*
X69661904Y-81000000D01*
X69700000Y-81038095D01*
X69738095Y-81114285D01*
X69738095Y-81228571D01*
X69700000Y-81304761D01*
X69661904Y-81342857D01*
X69585714Y-81380952D01*
X69280952Y-81380952D01*
X70080952Y-81761904D02*
X70080952Y-80961904D01*
G04 #@! TO.C,RPI GPIO*
X106861904Y-112057142D02*
X106480952Y-112323809D01*
X106861904Y-112514285D02*
X106061904Y-112514285D01*
X106061904Y-112209523D01*
X106100000Y-112133333D01*
X106138095Y-112095238D01*
X106214285Y-112057142D01*
X106328571Y-112057142D01*
X106404761Y-112095238D01*
X106442857Y-112133333D01*
X106480952Y-112209523D01*
X106480952Y-112514285D01*
X106861904Y-111714285D02*
X106061904Y-111714285D01*
X106061904Y-111409523D01*
X106100000Y-111333333D01*
X106138095Y-111295238D01*
X106214285Y-111257142D01*
X106328571Y-111257142D01*
X106404761Y-111295238D01*
X106442857Y-111333333D01*
X106480952Y-111409523D01*
X106480952Y-111714285D01*
X106861904Y-110914285D02*
X106061904Y-110914285D01*
X106100000Y-109504761D02*
X106061904Y-109580952D01*
X106061904Y-109695238D01*
X106100000Y-109809523D01*
X106176190Y-109885714D01*
X106252380Y-109923809D01*
X106404761Y-109961904D01*
X106519047Y-109961904D01*
X106671428Y-109923809D01*
X106747619Y-109885714D01*
X106823809Y-109809523D01*
X106861904Y-109695238D01*
X106861904Y-109619047D01*
X106823809Y-109504761D01*
X106785714Y-109466666D01*
X106519047Y-109466666D01*
X106519047Y-109619047D01*
X106861904Y-109123809D02*
X106061904Y-109123809D01*
X106061904Y-108819047D01*
X106100000Y-108742857D01*
X106138095Y-108704761D01*
X106214285Y-108666666D01*
X106328571Y-108666666D01*
X106404761Y-108704761D01*
X106442857Y-108742857D01*
X106480952Y-108819047D01*
X106480952Y-109123809D01*
X106861904Y-108323809D02*
X106061904Y-108323809D01*
X106061904Y-107790476D02*
X106061904Y-107638095D01*
X106100000Y-107561904D01*
X106176190Y-107485714D01*
X106328571Y-107447619D01*
X106595238Y-107447619D01*
X106747619Y-107485714D01*
X106823809Y-107561904D01*
X106861904Y-107638095D01*
X106861904Y-107790476D01*
X106823809Y-107866666D01*
X106747619Y-107942857D01*
X106595238Y-107980952D01*
X106328571Y-107980952D01*
X106176190Y-107942857D01*
X106100000Y-107866666D01*
X106061904Y-107790476D01*
G04 #@! TO.C,ADS1293*
X88233333Y-90795238D02*
X88233333Y-90414285D01*
X88461904Y-90871428D02*
X87661904Y-90604761D01*
X88461904Y-90338095D01*
X88461904Y-90071428D02*
X87661904Y-90071428D01*
X87661904Y-89880952D01*
X87700000Y-89766666D01*
X87776190Y-89690476D01*
X87852380Y-89652380D01*
X88004761Y-89614285D01*
X88119047Y-89614285D01*
X88271428Y-89652380D01*
X88347619Y-89690476D01*
X88423809Y-89766666D01*
X88461904Y-89880952D01*
X88461904Y-90071428D01*
X88423809Y-89309523D02*
X88461904Y-89195238D01*
X88461904Y-89004761D01*
X88423809Y-88928571D01*
X88385714Y-88890476D01*
X88309523Y-88852380D01*
X88233333Y-88852380D01*
X88157142Y-88890476D01*
X88119047Y-88928571D01*
X88080952Y-89004761D01*
X88042857Y-89157142D01*
X88004761Y-89233333D01*
X87966666Y-89271428D01*
X87890476Y-89309523D01*
X87814285Y-89309523D01*
X87738095Y-89271428D01*
X87700000Y-89233333D01*
X87661904Y-89157142D01*
X87661904Y-88966666D01*
X87700000Y-88852380D01*
X88461904Y-88090476D02*
X88461904Y-88547619D01*
X88461904Y-88319047D02*
X87661904Y-88319047D01*
X87776190Y-88395238D01*
X87852380Y-88471428D01*
X87890476Y-88547619D01*
X87738095Y-87785714D02*
X87700000Y-87747619D01*
X87661904Y-87671428D01*
X87661904Y-87480952D01*
X87700000Y-87404761D01*
X87738095Y-87366666D01*
X87814285Y-87328571D01*
X87890476Y-87328571D01*
X88004761Y-87366666D01*
X88461904Y-87823809D01*
X88461904Y-87328571D01*
X88461904Y-86947619D02*
X88461904Y-86795238D01*
X88423809Y-86719047D01*
X88385714Y-86680952D01*
X88271428Y-86604761D01*
X88119047Y-86566666D01*
X87814285Y-86566666D01*
X87738095Y-86604761D01*
X87700000Y-86642857D01*
X87661904Y-86719047D01*
X87661904Y-86871428D01*
X87700000Y-86947619D01*
X87738095Y-86985714D01*
X87814285Y-87023809D01*
X88004761Y-87023809D01*
X88080952Y-86985714D01*
X88119047Y-86947619D01*
X88157142Y-86871428D01*
X88157142Y-86719047D01*
X88119047Y-86642857D01*
X88080952Y-86604761D01*
X88004761Y-86566666D01*
X87661904Y-86300000D02*
X87661904Y-85804761D01*
X87966666Y-86071428D01*
X87966666Y-85957142D01*
X88004761Y-85880952D01*
X88042857Y-85842857D01*
X88119047Y-85804761D01*
X88309523Y-85804761D01*
X88385714Y-85842857D01*
X88423809Y-85880952D01*
X88461904Y-85957142D01*
X88461904Y-86185714D01*
X88423809Y-86261904D01*
X88385714Y-86300000D01*
G04 #@! TO.C,ECG CTRL*
X101695238Y-80742857D02*
X101961904Y-80742857D01*
X102076190Y-81161904D02*
X101695238Y-81161904D01*
X101695238Y-80361904D01*
X102076190Y-80361904D01*
X102876190Y-81085714D02*
X102838095Y-81123809D01*
X102723809Y-81161904D01*
X102647619Y-81161904D01*
X102533333Y-81123809D01*
X102457142Y-81047619D01*
X102419047Y-80971428D01*
X102380952Y-80819047D01*
X102380952Y-80704761D01*
X102419047Y-80552380D01*
X102457142Y-80476190D01*
X102533333Y-80400000D01*
X102647619Y-80361904D01*
X102723809Y-80361904D01*
X102838095Y-80400000D01*
X102876190Y-80438095D01*
X103638095Y-80400000D02*
X103561904Y-80361904D01*
X103447619Y-80361904D01*
X103333333Y-80400000D01*
X103257142Y-80476190D01*
X103219047Y-80552380D01*
X103180952Y-80704761D01*
X103180952Y-80819047D01*
X103219047Y-80971428D01*
X103257142Y-81047619D01*
X103333333Y-81123809D01*
X103447619Y-81161904D01*
X103523809Y-81161904D01*
X103638095Y-81123809D01*
X103676190Y-81085714D01*
X103676190Y-80819047D01*
X103523809Y-80819047D01*
X105085714Y-81085714D02*
X105047619Y-81123809D01*
X104933333Y-81161904D01*
X104857142Y-81161904D01*
X104742857Y-81123809D01*
X104666666Y-81047619D01*
X104628571Y-80971428D01*
X104590476Y-80819047D01*
X104590476Y-80704761D01*
X104628571Y-80552380D01*
X104666666Y-80476190D01*
X104742857Y-80400000D01*
X104857142Y-80361904D01*
X104933333Y-80361904D01*
X105047619Y-80400000D01*
X105085714Y-80438095D01*
X105314285Y-80361904D02*
X105771428Y-80361904D01*
X105542857Y-81161904D02*
X105542857Y-80361904D01*
X106495238Y-81161904D02*
X106228571Y-80780952D01*
X106038095Y-81161904D02*
X106038095Y-80361904D01*
X106342857Y-80361904D01*
X106419047Y-80400000D01*
X106457142Y-80438095D01*
X106495238Y-80514285D01*
X106495238Y-80628571D01*
X106457142Y-80704761D01*
X106419047Y-80742857D01*
X106342857Y-80780952D01*
X106038095Y-80780952D01*
X107219047Y-81161904D02*
X106838095Y-81161904D01*
X106838095Y-80361904D01*
G04 #@! TO.C,C2*
X83019166Y-73022014D02*
X82981071Y-73060109D01*
X82866785Y-73098204D01*
X82790595Y-73098204D01*
X82676309Y-73060109D01*
X82600119Y-72983919D01*
X82562023Y-72907728D01*
X82523928Y-72755347D01*
X82523928Y-72641061D01*
X82562023Y-72488680D01*
X82600119Y-72412490D01*
X82676309Y-72336300D01*
X82790595Y-72298204D01*
X82866785Y-72298204D01*
X82981071Y-72336300D01*
X83019166Y-72374395D01*
X83323928Y-72374395D02*
X83362023Y-72336300D01*
X83438214Y-72298204D01*
X83628690Y-72298204D01*
X83704880Y-72336300D01*
X83742976Y-72374395D01*
X83781071Y-72450585D01*
X83781071Y-72526776D01*
X83742976Y-72641061D01*
X83285833Y-73098204D01*
X83781071Y-73098204D01*
G04 #@! TO.C,C5*
X89470714Y-74619633D02*
X89508809Y-74657728D01*
X89546904Y-74772014D01*
X89546904Y-74848204D01*
X89508809Y-74962490D01*
X89432619Y-75038680D01*
X89356428Y-75076776D01*
X89204047Y-75114871D01*
X89089761Y-75114871D01*
X88937380Y-75076776D01*
X88861190Y-75038680D01*
X88785000Y-74962490D01*
X88746904Y-74848204D01*
X88746904Y-74772014D01*
X88785000Y-74657728D01*
X88823095Y-74619633D01*
X88746904Y-73895823D02*
X88746904Y-74276776D01*
X89127857Y-74314871D01*
X89089761Y-74276776D01*
X89051666Y-74200585D01*
X89051666Y-74010109D01*
X89089761Y-73933919D01*
X89127857Y-73895823D01*
X89204047Y-73857728D01*
X89394523Y-73857728D01*
X89470714Y-73895823D01*
X89508809Y-73933919D01*
X89546904Y-74010109D01*
X89546904Y-74200585D01*
X89508809Y-74276776D01*
X89470714Y-74314871D01*
G04 #@! TO.C,C17*
X93785714Y-60285714D02*
X93747619Y-60323809D01*
X93633333Y-60361904D01*
X93557142Y-60361904D01*
X93442857Y-60323809D01*
X93366666Y-60247619D01*
X93328571Y-60171428D01*
X93290476Y-60019047D01*
X93290476Y-59904761D01*
X93328571Y-59752380D01*
X93366666Y-59676190D01*
X93442857Y-59600000D01*
X93557142Y-59561904D01*
X93633333Y-59561904D01*
X93747619Y-59600000D01*
X93785714Y-59638095D01*
X94547619Y-60361904D02*
X94090476Y-60361904D01*
X94319047Y-60361904D02*
X94319047Y-59561904D01*
X94242857Y-59676190D01*
X94166666Y-59752380D01*
X94090476Y-59790476D01*
X94814285Y-59561904D02*
X95347619Y-59561904D01*
X95004761Y-60361904D01*
G04 #@! TO.C,C18*
X79085714Y-39385714D02*
X79047619Y-39423809D01*
X78933333Y-39461904D01*
X78857142Y-39461904D01*
X78742857Y-39423809D01*
X78666666Y-39347619D01*
X78628571Y-39271428D01*
X78590476Y-39119047D01*
X78590476Y-39004761D01*
X78628571Y-38852380D01*
X78666666Y-38776190D01*
X78742857Y-38700000D01*
X78857142Y-38661904D01*
X78933333Y-38661904D01*
X79047619Y-38700000D01*
X79085714Y-38738095D01*
X79847619Y-39461904D02*
X79390476Y-39461904D01*
X79619047Y-39461904D02*
X79619047Y-38661904D01*
X79542857Y-38776190D01*
X79466666Y-38852380D01*
X79390476Y-38890476D01*
X80304761Y-39004761D02*
X80228571Y-38966666D01*
X80190476Y-38928571D01*
X80152380Y-38852380D01*
X80152380Y-38814285D01*
X80190476Y-38738095D01*
X80228571Y-38700000D01*
X80304761Y-38661904D01*
X80457142Y-38661904D01*
X80533333Y-38700000D01*
X80571428Y-38738095D01*
X80609523Y-38814285D01*
X80609523Y-38852380D01*
X80571428Y-38928571D01*
X80533333Y-38966666D01*
X80457142Y-39004761D01*
X80304761Y-39004761D01*
X80228571Y-39042857D01*
X80190476Y-39080952D01*
X80152380Y-39157142D01*
X80152380Y-39309523D01*
X80190476Y-39385714D01*
X80228571Y-39423809D01*
X80304761Y-39461904D01*
X80457142Y-39461904D01*
X80533333Y-39423809D01*
X80571428Y-39385714D01*
X80609523Y-39309523D01*
X80609523Y-39157142D01*
X80571428Y-39080952D01*
X80533333Y-39042857D01*
X80457142Y-39004761D01*
G04 #@! TO.C,C19*
X88485714Y-61585714D02*
X88447619Y-61623809D01*
X88333333Y-61661904D01*
X88257142Y-61661904D01*
X88142857Y-61623809D01*
X88066666Y-61547619D01*
X88028571Y-61471428D01*
X87990476Y-61319047D01*
X87990476Y-61204761D01*
X88028571Y-61052380D01*
X88066666Y-60976190D01*
X88142857Y-60900000D01*
X88257142Y-60861904D01*
X88333333Y-60861904D01*
X88447619Y-60900000D01*
X88485714Y-60938095D01*
X89247619Y-61661904D02*
X88790476Y-61661904D01*
X89019047Y-61661904D02*
X89019047Y-60861904D01*
X88942857Y-60976190D01*
X88866666Y-61052380D01*
X88790476Y-61090476D01*
X89628571Y-61661904D02*
X89780952Y-61661904D01*
X89857142Y-61623809D01*
X89895238Y-61585714D01*
X89971428Y-61471428D01*
X90009523Y-61319047D01*
X90009523Y-61014285D01*
X89971428Y-60938095D01*
X89933333Y-60900000D01*
X89857142Y-60861904D01*
X89704761Y-60861904D01*
X89628571Y-60900000D01*
X89590476Y-60938095D01*
X89552380Y-61014285D01*
X89552380Y-61204761D01*
X89590476Y-61280952D01*
X89628571Y-61319047D01*
X89704761Y-61357142D01*
X89857142Y-61357142D01*
X89933333Y-61319047D01*
X89971428Y-61280952D01*
X90009523Y-61204761D01*
G04 #@! TO.C,C20*
X72485714Y-39385714D02*
X72447619Y-39423809D01*
X72333333Y-39461904D01*
X72257142Y-39461904D01*
X72142857Y-39423809D01*
X72066666Y-39347619D01*
X72028571Y-39271428D01*
X71990476Y-39119047D01*
X71990476Y-39004761D01*
X72028571Y-38852380D01*
X72066666Y-38776190D01*
X72142857Y-38700000D01*
X72257142Y-38661904D01*
X72333333Y-38661904D01*
X72447619Y-38700000D01*
X72485714Y-38738095D01*
X72790476Y-38738095D02*
X72828571Y-38700000D01*
X72904761Y-38661904D01*
X73095238Y-38661904D01*
X73171428Y-38700000D01*
X73209523Y-38738095D01*
X73247619Y-38814285D01*
X73247619Y-38890476D01*
X73209523Y-39004761D01*
X72752380Y-39461904D01*
X73247619Y-39461904D01*
X73742857Y-38661904D02*
X73819047Y-38661904D01*
X73895238Y-38700000D01*
X73933333Y-38738095D01*
X73971428Y-38814285D01*
X74009523Y-38966666D01*
X74009523Y-39157142D01*
X73971428Y-39309523D01*
X73933333Y-39385714D01*
X73895238Y-39423809D01*
X73819047Y-39461904D01*
X73742857Y-39461904D01*
X73666666Y-39423809D01*
X73628571Y-39385714D01*
X73590476Y-39309523D01*
X73552380Y-39157142D01*
X73552380Y-38966666D01*
X73590476Y-38814285D01*
X73628571Y-38738095D01*
X73666666Y-38700000D01*
X73742857Y-38661904D01*
G04 #@! TO.C,C21*
X96085714Y-62714285D02*
X96123809Y-62752380D01*
X96161904Y-62866666D01*
X96161904Y-62942857D01*
X96123809Y-63057142D01*
X96047619Y-63133333D01*
X95971428Y-63171428D01*
X95819047Y-63209523D01*
X95704761Y-63209523D01*
X95552380Y-63171428D01*
X95476190Y-63133333D01*
X95400000Y-63057142D01*
X95361904Y-62942857D01*
X95361904Y-62866666D01*
X95400000Y-62752380D01*
X95438095Y-62714285D01*
X95438095Y-62409523D02*
X95400000Y-62371428D01*
X95361904Y-62295238D01*
X95361904Y-62104761D01*
X95400000Y-62028571D01*
X95438095Y-61990476D01*
X95514285Y-61952380D01*
X95590476Y-61952380D01*
X95704761Y-61990476D01*
X96161904Y-62447619D01*
X96161904Y-61952380D01*
X96161904Y-61190476D02*
X96161904Y-61647619D01*
X96161904Y-61419047D02*
X95361904Y-61419047D01*
X95476190Y-61495238D01*
X95552380Y-61571428D01*
X95590476Y-61647619D01*
G04 #@! TO.C,C22*
X76081214Y-45410214D02*
X76043119Y-45448309D01*
X75928833Y-45486404D01*
X75852642Y-45486404D01*
X75738357Y-45448309D01*
X75662166Y-45372119D01*
X75624071Y-45295928D01*
X75585976Y-45143547D01*
X75585976Y-45029261D01*
X75624071Y-44876880D01*
X75662166Y-44800690D01*
X75738357Y-44724500D01*
X75852642Y-44686404D01*
X75928833Y-44686404D01*
X76043119Y-44724500D01*
X76081214Y-44762595D01*
X76385976Y-44762595D02*
X76424071Y-44724500D01*
X76500261Y-44686404D01*
X76690738Y-44686404D01*
X76766928Y-44724500D01*
X76805023Y-44762595D01*
X76843119Y-44838785D01*
X76843119Y-44914976D01*
X76805023Y-45029261D01*
X76347880Y-45486404D01*
X76843119Y-45486404D01*
X77147880Y-44762595D02*
X77185976Y-44724500D01*
X77262166Y-44686404D01*
X77452642Y-44686404D01*
X77528833Y-44724500D01*
X77566928Y-44762595D01*
X77605023Y-44838785D01*
X77605023Y-44914976D01*
X77566928Y-45029261D01*
X77109785Y-45486404D01*
X77605023Y-45486404D01*
G04 #@! TO.C,I2C*
X67861904Y-114680952D02*
X67061904Y-114680952D01*
X67138095Y-114338095D02*
X67100000Y-114300000D01*
X67061904Y-114223809D01*
X67061904Y-114033333D01*
X67100000Y-113957142D01*
X67138095Y-113919047D01*
X67214285Y-113880952D01*
X67290476Y-113880952D01*
X67404761Y-113919047D01*
X67861904Y-114376190D01*
X67861904Y-113880952D01*
X67785714Y-113080952D02*
X67823809Y-113119047D01*
X67861904Y-113233333D01*
X67861904Y-113309523D01*
X67823809Y-113423809D01*
X67747619Y-113500000D01*
X67671428Y-113538095D01*
X67519047Y-113576190D01*
X67404761Y-113576190D01*
X67252380Y-113538095D01*
X67176190Y-113500000D01*
X67100000Y-113423809D01*
X67061904Y-113309523D01*
X67061904Y-113233333D01*
X67100000Y-113119047D01*
X67138095Y-113080952D01*
G04 #@! TO.C,UART*
X62023809Y-109661904D02*
X62023809Y-110309523D01*
X62061904Y-110385714D01*
X62100000Y-110423809D01*
X62176190Y-110461904D01*
X62328571Y-110461904D01*
X62404761Y-110423809D01*
X62442857Y-110385714D01*
X62480952Y-110309523D01*
X62480952Y-109661904D01*
X62823809Y-110233333D02*
X63204761Y-110233333D01*
X62747619Y-110461904D02*
X63014285Y-109661904D01*
X63280952Y-110461904D01*
X64004761Y-110461904D02*
X63738095Y-110080952D01*
X63547619Y-110461904D02*
X63547619Y-109661904D01*
X63852380Y-109661904D01*
X63928571Y-109700000D01*
X63966666Y-109738095D01*
X64004761Y-109814285D01*
X64004761Y-109928571D01*
X63966666Y-110004761D01*
X63928571Y-110042857D01*
X63852380Y-110080952D01*
X63547619Y-110080952D01*
X64233333Y-109661904D02*
X64690476Y-109661904D01*
X64461904Y-110461904D02*
X64461904Y-109661904D01*
G04 #@! TO.C,ADC CTRL*
X57895238Y-53866666D02*
X58371428Y-53866666D01*
X57800000Y-54152380D02*
X58133333Y-53152380D01*
X58466666Y-54152380D01*
X58800000Y-54152380D02*
X58800000Y-53152380D01*
X59038095Y-53152380D01*
X59180952Y-53200000D01*
X59276190Y-53295238D01*
X59323809Y-53390476D01*
X59371428Y-53580952D01*
X59371428Y-53723809D01*
X59323809Y-53914285D01*
X59276190Y-54009523D01*
X59180952Y-54104761D01*
X59038095Y-54152380D01*
X58800000Y-54152380D01*
X60371428Y-54057142D02*
X60323809Y-54104761D01*
X60180952Y-54152380D01*
X60085714Y-54152380D01*
X59942857Y-54104761D01*
X59847619Y-54009523D01*
X59800000Y-53914285D01*
X59752380Y-53723809D01*
X59752380Y-53580952D01*
X59800000Y-53390476D01*
X59847619Y-53295238D01*
X59942857Y-53200000D01*
X60085714Y-53152380D01*
X60180952Y-53152380D01*
X60323809Y-53200000D01*
X60371428Y-53247619D01*
X62133333Y-54057142D02*
X62085714Y-54104761D01*
X61942857Y-54152380D01*
X61847619Y-54152380D01*
X61704761Y-54104761D01*
X61609523Y-54009523D01*
X61561904Y-53914285D01*
X61514285Y-53723809D01*
X61514285Y-53580952D01*
X61561904Y-53390476D01*
X61609523Y-53295238D01*
X61704761Y-53200000D01*
X61847619Y-53152380D01*
X61942857Y-53152380D01*
X62085714Y-53200000D01*
X62133333Y-53247619D01*
X62419047Y-53152380D02*
X62990476Y-53152380D01*
X62704761Y-54152380D02*
X62704761Y-53152380D01*
X63895238Y-54152380D02*
X63561904Y-53676190D01*
X63323809Y-54152380D02*
X63323809Y-53152380D01*
X63704761Y-53152380D01*
X63800000Y-53200000D01*
X63847619Y-53247619D01*
X63895238Y-53342857D01*
X63895238Y-53485714D01*
X63847619Y-53580952D01*
X63800000Y-53628571D01*
X63704761Y-53676190D01*
X63323809Y-53676190D01*
X64800000Y-54152380D02*
X64323809Y-54152380D01*
X64323809Y-53152380D01*
G04 #@! TO.C,ADC IN*
X102195238Y-66533333D02*
X102576190Y-66533333D01*
X102119047Y-66761904D02*
X102385714Y-65961904D01*
X102652380Y-66761904D01*
X102919047Y-66761904D02*
X102919047Y-65961904D01*
X103109523Y-65961904D01*
X103223809Y-66000000D01*
X103300000Y-66076190D01*
X103338095Y-66152380D01*
X103376190Y-66304761D01*
X103376190Y-66419047D01*
X103338095Y-66571428D01*
X103300000Y-66647619D01*
X103223809Y-66723809D01*
X103109523Y-66761904D01*
X102919047Y-66761904D01*
X104176190Y-66685714D02*
X104138095Y-66723809D01*
X104023809Y-66761904D01*
X103947619Y-66761904D01*
X103833333Y-66723809D01*
X103757142Y-66647619D01*
X103719047Y-66571428D01*
X103680952Y-66419047D01*
X103680952Y-66304761D01*
X103719047Y-66152380D01*
X103757142Y-66076190D01*
X103833333Y-66000000D01*
X103947619Y-65961904D01*
X104023809Y-65961904D01*
X104138095Y-66000000D01*
X104176190Y-66038095D01*
X105128571Y-66761904D02*
X105128571Y-65961904D01*
X105509523Y-66761904D02*
X105509523Y-65961904D01*
X105966666Y-66761904D01*
X105966666Y-65961904D01*
G04 #@! TO.C,RPI*
X56187142Y-110391904D02*
X55920476Y-110010952D01*
X55730000Y-110391904D02*
X55730000Y-109591904D01*
X56034761Y-109591904D01*
X56110952Y-109630000D01*
X56149047Y-109668095D01*
X56187142Y-109744285D01*
X56187142Y-109858571D01*
X56149047Y-109934761D01*
X56110952Y-109972857D01*
X56034761Y-110010952D01*
X55730000Y-110010952D01*
X56530000Y-110391904D02*
X56530000Y-109591904D01*
X56834761Y-109591904D01*
X56910952Y-109630000D01*
X56949047Y-109668095D01*
X56987142Y-109744285D01*
X56987142Y-109858571D01*
X56949047Y-109934761D01*
X56910952Y-109972857D01*
X56834761Y-110010952D01*
X56530000Y-110010952D01*
X57330000Y-110391904D02*
X57330000Y-109591904D01*
G04 #@! TO.C,JP1*
X88808833Y-99539404D02*
X88808833Y-100110833D01*
X88770738Y-100225119D01*
X88694547Y-100301309D01*
X88580261Y-100339404D01*
X88504071Y-100339404D01*
X89189785Y-100339404D02*
X89189785Y-99539404D01*
X89494547Y-99539404D01*
X89570738Y-99577500D01*
X89608833Y-99615595D01*
X89646928Y-99691785D01*
X89646928Y-99806071D01*
X89608833Y-99882261D01*
X89570738Y-99920357D01*
X89494547Y-99958452D01*
X89189785Y-99958452D01*
X90408833Y-100339404D02*
X89951690Y-100339404D01*
X90180261Y-100339404D02*
X90180261Y-99539404D01*
X90104071Y-99653690D01*
X90027880Y-99729880D01*
X89951690Y-99767976D01*
G04 #@! TO.C,JP2*
X98597333Y-88933404D02*
X98597333Y-89504833D01*
X98559238Y-89619119D01*
X98483047Y-89695309D01*
X98368761Y-89733404D01*
X98292571Y-89733404D01*
X98978285Y-89733404D02*
X98978285Y-88933404D01*
X99283047Y-88933404D01*
X99359238Y-88971500D01*
X99397333Y-89009595D01*
X99435428Y-89085785D01*
X99435428Y-89200071D01*
X99397333Y-89276261D01*
X99359238Y-89314357D01*
X99283047Y-89352452D01*
X98978285Y-89352452D01*
X99740190Y-89009595D02*
X99778285Y-88971500D01*
X99854476Y-88933404D01*
X100044952Y-88933404D01*
X100121142Y-88971500D01*
X100159238Y-89009595D01*
X100197333Y-89085785D01*
X100197333Y-89161976D01*
X100159238Y-89276261D01*
X99702095Y-89733404D01*
X100197333Y-89733404D01*
G04 #@! TO.C,JP3*
X98660833Y-90049404D02*
X98660833Y-90620833D01*
X98622738Y-90735119D01*
X98546547Y-90811309D01*
X98432261Y-90849404D01*
X98356071Y-90849404D01*
X99041785Y-90849404D02*
X99041785Y-90049404D01*
X99346547Y-90049404D01*
X99422738Y-90087500D01*
X99460833Y-90125595D01*
X99498928Y-90201785D01*
X99498928Y-90316071D01*
X99460833Y-90392261D01*
X99422738Y-90430357D01*
X99346547Y-90468452D01*
X99041785Y-90468452D01*
X99765595Y-90049404D02*
X100260833Y-90049404D01*
X99994166Y-90354166D01*
X100108452Y-90354166D01*
X100184642Y-90392261D01*
X100222738Y-90430357D01*
X100260833Y-90506547D01*
X100260833Y-90697023D01*
X100222738Y-90773214D01*
X100184642Y-90811309D01*
X100108452Y-90849404D01*
X99879880Y-90849404D01*
X99803690Y-90811309D01*
X99765595Y-90773214D01*
G04 #@! TO.C,JP4*
X98660833Y-84434904D02*
X98660833Y-85006333D01*
X98622738Y-85120619D01*
X98546547Y-85196809D01*
X98432261Y-85234904D01*
X98356071Y-85234904D01*
X99041785Y-85234904D02*
X99041785Y-84434904D01*
X99346547Y-84434904D01*
X99422738Y-84473000D01*
X99460833Y-84511095D01*
X99498928Y-84587285D01*
X99498928Y-84701571D01*
X99460833Y-84777761D01*
X99422738Y-84815857D01*
X99346547Y-84853952D01*
X99041785Y-84853952D01*
X100184642Y-84701571D02*
X100184642Y-85234904D01*
X99994166Y-84396809D02*
X99803690Y-84968238D01*
X100298928Y-84968238D01*
G04 #@! TO.C,JP5*
X88681833Y-100745904D02*
X88681833Y-101317333D01*
X88643738Y-101431619D01*
X88567547Y-101507809D01*
X88453261Y-101545904D01*
X88377071Y-101545904D01*
X89062785Y-101545904D02*
X89062785Y-100745904D01*
X89367547Y-100745904D01*
X89443738Y-100784000D01*
X89481833Y-100822095D01*
X89519928Y-100898285D01*
X89519928Y-101012571D01*
X89481833Y-101088761D01*
X89443738Y-101126857D01*
X89367547Y-101164952D01*
X89062785Y-101164952D01*
X90243738Y-100745904D02*
X89862785Y-100745904D01*
X89824690Y-101126857D01*
X89862785Y-101088761D01*
X89938976Y-101050666D01*
X90129452Y-101050666D01*
X90205642Y-101088761D01*
X90243738Y-101126857D01*
X90281833Y-101203047D01*
X90281833Y-101393523D01*
X90243738Y-101469714D01*
X90205642Y-101507809D01*
X90129452Y-101545904D01*
X89938976Y-101545904D01*
X89862785Y-101507809D01*
X89824690Y-101469714D01*
G04 #@! TO.C,JP6*
X98597333Y-85585404D02*
X98597333Y-86156833D01*
X98559238Y-86271119D01*
X98483047Y-86347309D01*
X98368761Y-86385404D01*
X98292571Y-86385404D01*
X98978285Y-86385404D02*
X98978285Y-85585404D01*
X99283047Y-85585404D01*
X99359238Y-85623500D01*
X99397333Y-85661595D01*
X99435428Y-85737785D01*
X99435428Y-85852071D01*
X99397333Y-85928261D01*
X99359238Y-85966357D01*
X99283047Y-86004452D01*
X98978285Y-86004452D01*
X100121142Y-85585404D02*
X99968761Y-85585404D01*
X99892571Y-85623500D01*
X99854476Y-85661595D01*
X99778285Y-85775880D01*
X99740190Y-85928261D01*
X99740190Y-86233023D01*
X99778285Y-86309214D01*
X99816380Y-86347309D01*
X99892571Y-86385404D01*
X100044952Y-86385404D01*
X100121142Y-86347309D01*
X100159238Y-86309214D01*
X100197333Y-86233023D01*
X100197333Y-86042547D01*
X100159238Y-85966357D01*
X100121142Y-85928261D01*
X100044952Y-85890166D01*
X99892571Y-85890166D01*
X99816380Y-85928261D01*
X99778285Y-85966357D01*
X99740190Y-86042547D01*
G04 #@! TO.C,L1*
X85451166Y-72218704D02*
X85070214Y-72218704D01*
X85070214Y-71418704D01*
X86136880Y-72218704D02*
X85679738Y-72218704D01*
X85908309Y-72218704D02*
X85908309Y-71418704D01*
X85832119Y-71532990D01*
X85755928Y-71609180D01*
X85679738Y-71647276D01*
G04 #@! TO.C,L2*
X90161666Y-60525404D02*
X89780714Y-60525404D01*
X89780714Y-59725404D01*
X90390238Y-59801595D02*
X90428333Y-59763500D01*
X90504523Y-59725404D01*
X90695000Y-59725404D01*
X90771190Y-59763500D01*
X90809285Y-59801595D01*
X90847380Y-59877785D01*
X90847380Y-59953976D01*
X90809285Y-60068261D01*
X90352142Y-60525404D01*
X90847380Y-60525404D01*
G04 #@! TO.C,L3*
X74453666Y-38225404D02*
X74072714Y-38225404D01*
X74072714Y-37425404D01*
X74644142Y-37425404D02*
X75139380Y-37425404D01*
X74872714Y-37730166D01*
X74987000Y-37730166D01*
X75063190Y-37768261D01*
X75101285Y-37806357D01*
X75139380Y-37882547D01*
X75139380Y-38073023D01*
X75101285Y-38149214D01*
X75063190Y-38187309D01*
X74987000Y-38225404D01*
X74758428Y-38225404D01*
X74682238Y-38187309D01*
X74644142Y-38149214D01*
G04 #@! TO.C,R1*
X90866166Y-93877904D02*
X90599500Y-93496952D01*
X90409023Y-93877904D02*
X90409023Y-93077904D01*
X90713785Y-93077904D01*
X90789976Y-93116000D01*
X90828071Y-93154095D01*
X90866166Y-93230285D01*
X90866166Y-93344571D01*
X90828071Y-93420761D01*
X90789976Y-93458857D01*
X90713785Y-93496952D01*
X90409023Y-93496952D01*
X91628071Y-93877904D02*
X91170928Y-93877904D01*
X91399500Y-93877904D02*
X91399500Y-93077904D01*
X91323309Y-93192190D01*
X91247119Y-93268380D01*
X91170928Y-93306476D01*
G04 #@! TO.C,R3*
X95652404Y-82800833D02*
X95271452Y-83067500D01*
X95652404Y-83257976D02*
X94852404Y-83257976D01*
X94852404Y-82953214D01*
X94890500Y-82877023D01*
X94928595Y-82838928D01*
X95004785Y-82800833D01*
X95119071Y-82800833D01*
X95195261Y-82838928D01*
X95233357Y-82877023D01*
X95271452Y-82953214D01*
X95271452Y-83257976D01*
X94852404Y-82534166D02*
X94852404Y-82038928D01*
X95157166Y-82305595D01*
X95157166Y-82191309D01*
X95195261Y-82115119D01*
X95233357Y-82077023D01*
X95309547Y-82038928D01*
X95500023Y-82038928D01*
X95576214Y-82077023D01*
X95614309Y-82115119D01*
X95652404Y-82191309D01*
X95652404Y-82419880D01*
X95614309Y-82496071D01*
X95576214Y-82534166D01*
G04 #@! TO.C,R4*
X98878666Y-93081404D02*
X98612000Y-92700452D01*
X98421523Y-93081404D02*
X98421523Y-92281404D01*
X98726285Y-92281404D01*
X98802476Y-92319500D01*
X98840571Y-92357595D01*
X98878666Y-92433785D01*
X98878666Y-92548071D01*
X98840571Y-92624261D01*
X98802476Y-92662357D01*
X98726285Y-92700452D01*
X98421523Y-92700452D01*
X99564380Y-92548071D02*
X99564380Y-93081404D01*
X99373904Y-92243309D02*
X99183428Y-92814738D01*
X99678666Y-92814738D01*
G04 #@! TO.C,R5*
X98876666Y-91965404D02*
X98610000Y-91584452D01*
X98419523Y-91965404D02*
X98419523Y-91165404D01*
X98724285Y-91165404D01*
X98800476Y-91203500D01*
X98838571Y-91241595D01*
X98876666Y-91317785D01*
X98876666Y-91432071D01*
X98838571Y-91508261D01*
X98800476Y-91546357D01*
X98724285Y-91584452D01*
X98419523Y-91584452D01*
X99600476Y-91165404D02*
X99219523Y-91165404D01*
X99181428Y-91546357D01*
X99219523Y-91508261D01*
X99295714Y-91470166D01*
X99486190Y-91470166D01*
X99562380Y-91508261D01*
X99600476Y-91546357D01*
X99638571Y-91622547D01*
X99638571Y-91813023D01*
X99600476Y-91889214D01*
X99562380Y-91927309D01*
X99486190Y-91965404D01*
X99295714Y-91965404D01*
X99219523Y-91927309D01*
X99181428Y-91889214D01*
G04 #@! TO.C,R10*
X95585714Y-38961904D02*
X95319047Y-38580952D01*
X95128571Y-38961904D02*
X95128571Y-38161904D01*
X95433333Y-38161904D01*
X95509523Y-38200000D01*
X95547619Y-38238095D01*
X95585714Y-38314285D01*
X95585714Y-38428571D01*
X95547619Y-38504761D01*
X95509523Y-38542857D01*
X95433333Y-38580952D01*
X95128571Y-38580952D01*
X96347619Y-38961904D02*
X95890476Y-38961904D01*
X96119047Y-38961904D02*
X96119047Y-38161904D01*
X96042857Y-38276190D01*
X95966666Y-38352380D01*
X95890476Y-38390476D01*
X96842857Y-38161904D02*
X96919047Y-38161904D01*
X96995238Y-38200000D01*
X97033333Y-38238095D01*
X97071428Y-38314285D01*
X97109523Y-38466666D01*
X97109523Y-38657142D01*
X97071428Y-38809523D01*
X97033333Y-38885714D01*
X96995238Y-38923809D01*
X96919047Y-38961904D01*
X96842857Y-38961904D01*
X96766666Y-38923809D01*
X96728571Y-38885714D01*
X96690476Y-38809523D01*
X96652380Y-38657142D01*
X96652380Y-38466666D01*
X96690476Y-38314285D01*
X96728571Y-38238095D01*
X96766666Y-38200000D01*
X96842857Y-38161904D01*
G04 #@! TO.C,R11*
X98813214Y-88617404D02*
X98546547Y-88236452D01*
X98356071Y-88617404D02*
X98356071Y-87817404D01*
X98660833Y-87817404D01*
X98737023Y-87855500D01*
X98775119Y-87893595D01*
X98813214Y-87969785D01*
X98813214Y-88084071D01*
X98775119Y-88160261D01*
X98737023Y-88198357D01*
X98660833Y-88236452D01*
X98356071Y-88236452D01*
X99575119Y-88617404D02*
X99117976Y-88617404D01*
X99346547Y-88617404D02*
X99346547Y-87817404D01*
X99270357Y-87931690D01*
X99194166Y-88007880D01*
X99117976Y-88045976D01*
X100337023Y-88617404D02*
X99879880Y-88617404D01*
X100108452Y-88617404D02*
X100108452Y-87817404D01*
X100032261Y-87931690D01*
X99956071Y-88007880D01*
X99879880Y-88045976D01*
G04 #@! TO.C,R12*
X98813214Y-87501404D02*
X98546547Y-87120452D01*
X98356071Y-87501404D02*
X98356071Y-86701404D01*
X98660833Y-86701404D01*
X98737023Y-86739500D01*
X98775119Y-86777595D01*
X98813214Y-86853785D01*
X98813214Y-86968071D01*
X98775119Y-87044261D01*
X98737023Y-87082357D01*
X98660833Y-87120452D01*
X98356071Y-87120452D01*
X99575119Y-87501404D02*
X99117976Y-87501404D01*
X99346547Y-87501404D02*
X99346547Y-86701404D01*
X99270357Y-86815690D01*
X99194166Y-86891880D01*
X99117976Y-86929976D01*
X99879880Y-86777595D02*
X99917976Y-86739500D01*
X99994166Y-86701404D01*
X100184642Y-86701404D01*
X100260833Y-86739500D01*
X100298928Y-86777595D01*
X100337023Y-86853785D01*
X100337023Y-86929976D01*
X100298928Y-87044261D01*
X99841785Y-87501404D01*
X100337023Y-87501404D01*
G04 #@! TO.C,R14*
X63462214Y-39841904D02*
X63195547Y-39460952D01*
X63005071Y-39841904D02*
X63005071Y-39041904D01*
X63309833Y-39041904D01*
X63386023Y-39080000D01*
X63424119Y-39118095D01*
X63462214Y-39194285D01*
X63462214Y-39308571D01*
X63424119Y-39384761D01*
X63386023Y-39422857D01*
X63309833Y-39460952D01*
X63005071Y-39460952D01*
X64224119Y-39841904D02*
X63766976Y-39841904D01*
X63995547Y-39841904D02*
X63995547Y-39041904D01*
X63919357Y-39156190D01*
X63843166Y-39232380D01*
X63766976Y-39270476D01*
X64909833Y-39308571D02*
X64909833Y-39841904D01*
X64719357Y-39003809D02*
X64528880Y-39575238D01*
X65024119Y-39575238D01*
G04 #@! TO.C,R15*
X63525714Y-42381904D02*
X63259047Y-42000952D01*
X63068571Y-42381904D02*
X63068571Y-41581904D01*
X63373333Y-41581904D01*
X63449523Y-41620000D01*
X63487619Y-41658095D01*
X63525714Y-41734285D01*
X63525714Y-41848571D01*
X63487619Y-41924761D01*
X63449523Y-41962857D01*
X63373333Y-42000952D01*
X63068571Y-42000952D01*
X64287619Y-42381904D02*
X63830476Y-42381904D01*
X64059047Y-42381904D02*
X64059047Y-41581904D01*
X63982857Y-41696190D01*
X63906666Y-41772380D01*
X63830476Y-41810476D01*
X65011428Y-41581904D02*
X64630476Y-41581904D01*
X64592380Y-41962857D01*
X64630476Y-41924761D01*
X64706666Y-41886666D01*
X64897142Y-41886666D01*
X64973333Y-41924761D01*
X65011428Y-41962857D01*
X65049523Y-42039047D01*
X65049523Y-42229523D01*
X65011428Y-42305714D01*
X64973333Y-42343809D01*
X64897142Y-42381904D01*
X64706666Y-42381904D01*
X64630476Y-42343809D01*
X64592380Y-42305714D01*
G04 #@! TO.C,R16*
X63525714Y-44794904D02*
X63259047Y-44413952D01*
X63068571Y-44794904D02*
X63068571Y-43994904D01*
X63373333Y-43994904D01*
X63449523Y-44033000D01*
X63487619Y-44071095D01*
X63525714Y-44147285D01*
X63525714Y-44261571D01*
X63487619Y-44337761D01*
X63449523Y-44375857D01*
X63373333Y-44413952D01*
X63068571Y-44413952D01*
X64287619Y-44794904D02*
X63830476Y-44794904D01*
X64059047Y-44794904D02*
X64059047Y-43994904D01*
X63982857Y-44109190D01*
X63906666Y-44185380D01*
X63830476Y-44223476D01*
X64973333Y-43994904D02*
X64820952Y-43994904D01*
X64744761Y-44033000D01*
X64706666Y-44071095D01*
X64630476Y-44185380D01*
X64592380Y-44337761D01*
X64592380Y-44642523D01*
X64630476Y-44718714D01*
X64668571Y-44756809D01*
X64744761Y-44794904D01*
X64897142Y-44794904D01*
X64973333Y-44756809D01*
X65011428Y-44718714D01*
X65049523Y-44642523D01*
X65049523Y-44452047D01*
X65011428Y-44375857D01*
X64973333Y-44337761D01*
X64897142Y-44299666D01*
X64744761Y-44299666D01*
X64668571Y-44337761D01*
X64630476Y-44375857D01*
X64592380Y-44452047D01*
G04 #@! TO.C,R17*
X63462214Y-47334904D02*
X63195547Y-46953952D01*
X63005071Y-47334904D02*
X63005071Y-46534904D01*
X63309833Y-46534904D01*
X63386023Y-46573000D01*
X63424119Y-46611095D01*
X63462214Y-46687285D01*
X63462214Y-46801571D01*
X63424119Y-46877761D01*
X63386023Y-46915857D01*
X63309833Y-46953952D01*
X63005071Y-46953952D01*
X64224119Y-47334904D02*
X63766976Y-47334904D01*
X63995547Y-47334904D02*
X63995547Y-46534904D01*
X63919357Y-46649190D01*
X63843166Y-46725380D01*
X63766976Y-46763476D01*
X64490785Y-46534904D02*
X65024119Y-46534904D01*
X64681261Y-47334904D01*
G04 #@! TO.C,U1*
X83706904Y-76203323D02*
X84354523Y-76203323D01*
X84430714Y-76165228D01*
X84468809Y-76127133D01*
X84506904Y-76050942D01*
X84506904Y-75898561D01*
X84468809Y-75822371D01*
X84430714Y-75784276D01*
X84354523Y-75746180D01*
X83706904Y-75746180D01*
X84506904Y-74946180D02*
X84506904Y-75403323D01*
X84506904Y-75174752D02*
X83706904Y-75174752D01*
X83821190Y-75250942D01*
X83897380Y-75327133D01*
X83935476Y-75403323D01*
G04 #@! TO.C,U3*
X89401504Y-64912923D02*
X90049123Y-64912923D01*
X90125314Y-64874828D01*
X90163409Y-64836733D01*
X90201504Y-64760542D01*
X90201504Y-64608161D01*
X90163409Y-64531971D01*
X90125314Y-64493876D01*
X90049123Y-64455780D01*
X89401504Y-64455780D01*
X89401504Y-64151019D02*
X89401504Y-63655780D01*
X89706266Y-63922447D01*
X89706266Y-63808161D01*
X89744361Y-63731971D01*
X89782457Y-63693876D01*
X89858647Y-63655780D01*
X90049123Y-63655780D01*
X90125314Y-63693876D01*
X90163409Y-63731971D01*
X90201504Y-63808161D01*
X90201504Y-64036733D01*
X90163409Y-64112923D01*
X90125314Y-64151019D01*
G04 #@! TO.C,U4*
X73403404Y-42051023D02*
X74051023Y-42051023D01*
X74127214Y-42012928D01*
X74165309Y-41974833D01*
X74203404Y-41898642D01*
X74203404Y-41746261D01*
X74165309Y-41670071D01*
X74127214Y-41631976D01*
X74051023Y-41593880D01*
X73403404Y-41593880D01*
X73670071Y-40870071D02*
X74203404Y-40870071D01*
X73365309Y-41060547D02*
X73936738Y-41251023D01*
X73936738Y-40755785D01*
G04 #@! TO.C,ADS1241*
X84688333Y-46691238D02*
X84688333Y-46310285D01*
X84916904Y-46767428D02*
X84116904Y-46500761D01*
X84916904Y-46234095D01*
X84916904Y-45967428D02*
X84116904Y-45967428D01*
X84116904Y-45776952D01*
X84155000Y-45662666D01*
X84231190Y-45586476D01*
X84307380Y-45548380D01*
X84459761Y-45510285D01*
X84574047Y-45510285D01*
X84726428Y-45548380D01*
X84802619Y-45586476D01*
X84878809Y-45662666D01*
X84916904Y-45776952D01*
X84916904Y-45967428D01*
X84878809Y-45205523D02*
X84916904Y-45091238D01*
X84916904Y-44900761D01*
X84878809Y-44824571D01*
X84840714Y-44786476D01*
X84764523Y-44748380D01*
X84688333Y-44748380D01*
X84612142Y-44786476D01*
X84574047Y-44824571D01*
X84535952Y-44900761D01*
X84497857Y-45053142D01*
X84459761Y-45129333D01*
X84421666Y-45167428D01*
X84345476Y-45205523D01*
X84269285Y-45205523D01*
X84193095Y-45167428D01*
X84155000Y-45129333D01*
X84116904Y-45053142D01*
X84116904Y-44862666D01*
X84155000Y-44748380D01*
X84916904Y-43986476D02*
X84916904Y-44443619D01*
X84916904Y-44215047D02*
X84116904Y-44215047D01*
X84231190Y-44291238D01*
X84307380Y-44367428D01*
X84345476Y-44443619D01*
X84193095Y-43681714D02*
X84155000Y-43643619D01*
X84116904Y-43567428D01*
X84116904Y-43376952D01*
X84155000Y-43300761D01*
X84193095Y-43262666D01*
X84269285Y-43224571D01*
X84345476Y-43224571D01*
X84459761Y-43262666D01*
X84916904Y-43719809D01*
X84916904Y-43224571D01*
X84383571Y-42538857D02*
X84916904Y-42538857D01*
X84078809Y-42729333D02*
X84650238Y-42919809D01*
X84650238Y-42424571D01*
X84916904Y-41700761D02*
X84916904Y-42157904D01*
X84916904Y-41929333D02*
X84116904Y-41929333D01*
X84231190Y-42005523D01*
X84307380Y-42081714D01*
X84345476Y-42157904D01*
G04 #@! TO.C,R8*
X80731904Y-41233333D02*
X80350952Y-41500000D01*
X80731904Y-41690476D02*
X79931904Y-41690476D01*
X79931904Y-41385714D01*
X79970000Y-41309523D01*
X80008095Y-41271428D01*
X80084285Y-41233333D01*
X80198571Y-41233333D01*
X80274761Y-41271428D01*
X80312857Y-41309523D01*
X80350952Y-41385714D01*
X80350952Y-41690476D01*
X80274761Y-40776190D02*
X80236666Y-40852380D01*
X80198571Y-40890476D01*
X80122380Y-40928571D01*
X80084285Y-40928571D01*
X80008095Y-40890476D01*
X79970000Y-40852380D01*
X79931904Y-40776190D01*
X79931904Y-40623809D01*
X79970000Y-40547619D01*
X80008095Y-40509523D01*
X80084285Y-40471428D01*
X80122380Y-40471428D01*
X80198571Y-40509523D01*
X80236666Y-40547619D01*
X80274761Y-40623809D01*
X80274761Y-40776190D01*
X80312857Y-40852380D01*
X80350952Y-40890476D01*
X80427142Y-40928571D01*
X80579523Y-40928571D01*
X80655714Y-40890476D01*
X80693809Y-40852380D01*
X80731904Y-40776190D01*
X80731904Y-40623809D01*
X80693809Y-40547619D01*
X80655714Y-40509523D01*
X80579523Y-40471428D01*
X80427142Y-40471428D01*
X80350952Y-40509523D01*
X80312857Y-40547619D01*
X80274761Y-40623809D01*
G04 #@! TO.C,D1*
X83870023Y-79194204D02*
X83870023Y-78394204D01*
X84060500Y-78394204D01*
X84174785Y-78432300D01*
X84250976Y-78508490D01*
X84289071Y-78584680D01*
X84327166Y-78737061D01*
X84327166Y-78851347D01*
X84289071Y-79003728D01*
X84250976Y-79079919D01*
X84174785Y-79156109D01*
X84060500Y-79194204D01*
X83870023Y-79194204D01*
X85089071Y-79194204D02*
X84631928Y-79194204D01*
X84860500Y-79194204D02*
X84860500Y-78394204D01*
X84784309Y-78508490D01*
X84708119Y-78584680D01*
X84631928Y-78622776D01*
G04 #@! TO.C,C1*
X87337866Y-92636514D02*
X87299771Y-92674609D01*
X87185485Y-92712704D01*
X87109295Y-92712704D01*
X86995009Y-92674609D01*
X86918819Y-92598419D01*
X86880723Y-92522228D01*
X86842628Y-92369847D01*
X86842628Y-92255561D01*
X86880723Y-92103180D01*
X86918819Y-92026990D01*
X86995009Y-91950800D01*
X87109295Y-91912704D01*
X87185485Y-91912704D01*
X87299771Y-91950800D01*
X87337866Y-91988895D01*
X88099771Y-92712704D02*
X87642628Y-92712704D01*
X87871200Y-92712704D02*
X87871200Y-91912704D01*
X87795009Y-92026990D01*
X87718819Y-92103180D01*
X87642628Y-92141276D01*
G04 #@! TO.C,C3*
X96366666Y-93985714D02*
X96328571Y-94023809D01*
X96214285Y-94061904D01*
X96138095Y-94061904D01*
X96023809Y-94023809D01*
X95947619Y-93947619D01*
X95909523Y-93871428D01*
X95871428Y-93719047D01*
X95871428Y-93604761D01*
X95909523Y-93452380D01*
X95947619Y-93376190D01*
X96023809Y-93300000D01*
X96138095Y-93261904D01*
X96214285Y-93261904D01*
X96328571Y-93300000D01*
X96366666Y-93338095D01*
X96633333Y-93261904D02*
X97128571Y-93261904D01*
X96861904Y-93566666D01*
X96976190Y-93566666D01*
X97052380Y-93604761D01*
X97090476Y-93642857D01*
X97128571Y-93719047D01*
X97128571Y-93909523D01*
X97090476Y-93985714D01*
X97052380Y-94023809D01*
X96976190Y-94061904D01*
X96747619Y-94061904D01*
X96671428Y-94023809D01*
X96633333Y-93985714D01*
G04 #@! TO.C,C7*
X91666214Y-82737333D02*
X91704309Y-82775428D01*
X91742404Y-82889714D01*
X91742404Y-82965904D01*
X91704309Y-83080190D01*
X91628119Y-83156380D01*
X91551928Y-83194476D01*
X91399547Y-83232571D01*
X91285261Y-83232571D01*
X91132880Y-83194476D01*
X91056690Y-83156380D01*
X90980500Y-83080190D01*
X90942404Y-82965904D01*
X90942404Y-82889714D01*
X90980500Y-82775428D01*
X91018595Y-82737333D01*
X90942404Y-82470666D02*
X90942404Y-81937333D01*
X91742404Y-82280190D01*
G04 #@! TO.C,C8*
X84008166Y-98739214D02*
X83970071Y-98777309D01*
X83855785Y-98815404D01*
X83779595Y-98815404D01*
X83665309Y-98777309D01*
X83589119Y-98701119D01*
X83551023Y-98624928D01*
X83512928Y-98472547D01*
X83512928Y-98358261D01*
X83551023Y-98205880D01*
X83589119Y-98129690D01*
X83665309Y-98053500D01*
X83779595Y-98015404D01*
X83855785Y-98015404D01*
X83970071Y-98053500D01*
X84008166Y-98091595D01*
X84465309Y-98358261D02*
X84389119Y-98320166D01*
X84351023Y-98282071D01*
X84312928Y-98205880D01*
X84312928Y-98167785D01*
X84351023Y-98091595D01*
X84389119Y-98053500D01*
X84465309Y-98015404D01*
X84617690Y-98015404D01*
X84693880Y-98053500D01*
X84731976Y-98091595D01*
X84770071Y-98167785D01*
X84770071Y-98205880D01*
X84731976Y-98282071D01*
X84693880Y-98320166D01*
X84617690Y-98358261D01*
X84465309Y-98358261D01*
X84389119Y-98396357D01*
X84351023Y-98434452D01*
X84312928Y-98510642D01*
X84312928Y-98663023D01*
X84351023Y-98739214D01*
X84389119Y-98777309D01*
X84465309Y-98815404D01*
X84617690Y-98815404D01*
X84693880Y-98777309D01*
X84731976Y-98739214D01*
X84770071Y-98663023D01*
X84770071Y-98510642D01*
X84731976Y-98434452D01*
X84693880Y-98396357D01*
X84617690Y-98358261D01*
G04 #@! TO.C,C9*
X94369714Y-82737333D02*
X94407809Y-82775428D01*
X94445904Y-82889714D01*
X94445904Y-82965904D01*
X94407809Y-83080190D01*
X94331619Y-83156380D01*
X94255428Y-83194476D01*
X94103047Y-83232571D01*
X93988761Y-83232571D01*
X93836380Y-83194476D01*
X93760190Y-83156380D01*
X93684000Y-83080190D01*
X93645904Y-82965904D01*
X93645904Y-82889714D01*
X93684000Y-82775428D01*
X93722095Y-82737333D01*
X94445904Y-82356380D02*
X94445904Y-82204000D01*
X94407809Y-82127809D01*
X94369714Y-82089714D01*
X94255428Y-82013523D01*
X94103047Y-81975428D01*
X93798285Y-81975428D01*
X93722095Y-82013523D01*
X93684000Y-82051619D01*
X93645904Y-82127809D01*
X93645904Y-82280190D01*
X93684000Y-82356380D01*
X93722095Y-82394476D01*
X93798285Y-82432571D01*
X93988761Y-82432571D01*
X94064952Y-82394476D01*
X94103047Y-82356380D01*
X94141142Y-82280190D01*
X94141142Y-82127809D01*
X94103047Y-82051619D01*
X94064952Y-82013523D01*
X93988761Y-81975428D01*
G04 #@! TO.C,C10*
X83182714Y-95183214D02*
X83144619Y-95221309D01*
X83030333Y-95259404D01*
X82954142Y-95259404D01*
X82839857Y-95221309D01*
X82763666Y-95145119D01*
X82725571Y-95068928D01*
X82687476Y-94916547D01*
X82687476Y-94802261D01*
X82725571Y-94649880D01*
X82763666Y-94573690D01*
X82839857Y-94497500D01*
X82954142Y-94459404D01*
X83030333Y-94459404D01*
X83144619Y-94497500D01*
X83182714Y-94535595D01*
X83944619Y-95259404D02*
X83487476Y-95259404D01*
X83716047Y-95259404D02*
X83716047Y-94459404D01*
X83639857Y-94573690D01*
X83563666Y-94649880D01*
X83487476Y-94687976D01*
X84439857Y-94459404D02*
X84516047Y-94459404D01*
X84592238Y-94497500D01*
X84630333Y-94535595D01*
X84668428Y-94611785D01*
X84706523Y-94764166D01*
X84706523Y-94954642D01*
X84668428Y-95107023D01*
X84630333Y-95183214D01*
X84592238Y-95221309D01*
X84516047Y-95259404D01*
X84439857Y-95259404D01*
X84363666Y-95221309D01*
X84325571Y-95183214D01*
X84287476Y-95107023D01*
X84249380Y-94954642D01*
X84249380Y-94764166D01*
X84287476Y-94611785D01*
X84325571Y-94535595D01*
X84363666Y-94497500D01*
X84439857Y-94459404D01*
G04 #@! TO.C,C11*
X97978214Y-95500714D02*
X97940119Y-95538809D01*
X97825833Y-95576904D01*
X97749642Y-95576904D01*
X97635357Y-95538809D01*
X97559166Y-95462619D01*
X97521071Y-95386428D01*
X97482976Y-95234047D01*
X97482976Y-95119761D01*
X97521071Y-94967380D01*
X97559166Y-94891190D01*
X97635357Y-94815000D01*
X97749642Y-94776904D01*
X97825833Y-94776904D01*
X97940119Y-94815000D01*
X97978214Y-94853095D01*
X98740119Y-95576904D02*
X98282976Y-95576904D01*
X98511547Y-95576904D02*
X98511547Y-94776904D01*
X98435357Y-94891190D01*
X98359166Y-94967380D01*
X98282976Y-95005476D01*
X99502023Y-95576904D02*
X99044880Y-95576904D01*
X99273452Y-95576904D02*
X99273452Y-94776904D01*
X99197261Y-94891190D01*
X99121071Y-94967380D01*
X99044880Y-95005476D01*
G04 #@! TO.C,C12*
X98041714Y-98739214D02*
X98003619Y-98777309D01*
X97889333Y-98815404D01*
X97813142Y-98815404D01*
X97698857Y-98777309D01*
X97622666Y-98701119D01*
X97584571Y-98624928D01*
X97546476Y-98472547D01*
X97546476Y-98358261D01*
X97584571Y-98205880D01*
X97622666Y-98129690D01*
X97698857Y-98053500D01*
X97813142Y-98015404D01*
X97889333Y-98015404D01*
X98003619Y-98053500D01*
X98041714Y-98091595D01*
X98803619Y-98815404D02*
X98346476Y-98815404D01*
X98575047Y-98815404D02*
X98575047Y-98015404D01*
X98498857Y-98129690D01*
X98422666Y-98205880D01*
X98346476Y-98243976D01*
X99108380Y-98091595D02*
X99146476Y-98053500D01*
X99222666Y-98015404D01*
X99413142Y-98015404D01*
X99489333Y-98053500D01*
X99527428Y-98091595D01*
X99565523Y-98167785D01*
X99565523Y-98243976D01*
X99527428Y-98358261D01*
X99070285Y-98815404D01*
X99565523Y-98815404D01*
G04 #@! TO.C,C13*
X86385714Y-50985714D02*
X86347619Y-51023809D01*
X86233333Y-51061904D01*
X86157142Y-51061904D01*
X86042857Y-51023809D01*
X85966666Y-50947619D01*
X85928571Y-50871428D01*
X85890476Y-50719047D01*
X85890476Y-50604761D01*
X85928571Y-50452380D01*
X85966666Y-50376190D01*
X86042857Y-50300000D01*
X86157142Y-50261904D01*
X86233333Y-50261904D01*
X86347619Y-50300000D01*
X86385714Y-50338095D01*
X87147619Y-51061904D02*
X86690476Y-51061904D01*
X86919047Y-51061904D02*
X86919047Y-50261904D01*
X86842857Y-50376190D01*
X86766666Y-50452380D01*
X86690476Y-50490476D01*
X87414285Y-50261904D02*
X87909523Y-50261904D01*
X87642857Y-50566666D01*
X87757142Y-50566666D01*
X87833333Y-50604761D01*
X87871428Y-50642857D01*
X87909523Y-50719047D01*
X87909523Y-50909523D01*
X87871428Y-50985714D01*
X87833333Y-51023809D01*
X87757142Y-51061904D01*
X87528571Y-51061904D01*
X87452380Y-51023809D01*
X87414285Y-50985714D01*
G04 #@! TO.C,C14*
X88885714Y-50985714D02*
X88847619Y-51023809D01*
X88733333Y-51061904D01*
X88657142Y-51061904D01*
X88542857Y-51023809D01*
X88466666Y-50947619D01*
X88428571Y-50871428D01*
X88390476Y-50719047D01*
X88390476Y-50604761D01*
X88428571Y-50452380D01*
X88466666Y-50376190D01*
X88542857Y-50300000D01*
X88657142Y-50261904D01*
X88733333Y-50261904D01*
X88847619Y-50300000D01*
X88885714Y-50338095D01*
X89647619Y-51061904D02*
X89190476Y-51061904D01*
X89419047Y-51061904D02*
X89419047Y-50261904D01*
X89342857Y-50376190D01*
X89266666Y-50452380D01*
X89190476Y-50490476D01*
X90333333Y-50528571D02*
X90333333Y-51061904D01*
X90142857Y-50223809D02*
X89952380Y-50795238D01*
X90447619Y-50795238D01*
G04 #@! TO.C,C15*
X91385714Y-36014285D02*
X91423809Y-36052380D01*
X91461904Y-36166666D01*
X91461904Y-36242857D01*
X91423809Y-36357142D01*
X91347619Y-36433333D01*
X91271428Y-36471428D01*
X91119047Y-36509523D01*
X91004761Y-36509523D01*
X90852380Y-36471428D01*
X90776190Y-36433333D01*
X90700000Y-36357142D01*
X90661904Y-36242857D01*
X90661904Y-36166666D01*
X90700000Y-36052380D01*
X90738095Y-36014285D01*
X91461904Y-35252380D02*
X91461904Y-35709523D01*
X91461904Y-35480952D02*
X90661904Y-35480952D01*
X90776190Y-35557142D01*
X90852380Y-35633333D01*
X90890476Y-35709523D01*
X90661904Y-34528571D02*
X90661904Y-34909523D01*
X91042857Y-34947619D01*
X91004761Y-34909523D01*
X90966666Y-34833333D01*
X90966666Y-34642857D01*
X91004761Y-34566666D01*
X91042857Y-34528571D01*
X91119047Y-34490476D01*
X91309523Y-34490476D01*
X91385714Y-34528571D01*
X91423809Y-34566666D01*
X91461904Y-34642857D01*
X91461904Y-34833333D01*
X91423809Y-34909523D01*
X91385714Y-34947619D01*
G04 #@! TO.C,C16*
X81385714Y-48385714D02*
X81347619Y-48423809D01*
X81233333Y-48461904D01*
X81157142Y-48461904D01*
X81042857Y-48423809D01*
X80966666Y-48347619D01*
X80928571Y-48271428D01*
X80890476Y-48119047D01*
X80890476Y-48004761D01*
X80928571Y-47852380D01*
X80966666Y-47776190D01*
X81042857Y-47700000D01*
X81157142Y-47661904D01*
X81233333Y-47661904D01*
X81347619Y-47700000D01*
X81385714Y-47738095D01*
X82147619Y-48461904D02*
X81690476Y-48461904D01*
X81919047Y-48461904D02*
X81919047Y-47661904D01*
X81842857Y-47776190D01*
X81766666Y-47852380D01*
X81690476Y-47890476D01*
X82833333Y-47661904D02*
X82680952Y-47661904D01*
X82604761Y-47700000D01*
X82566666Y-47738095D01*
X82490476Y-47852380D01*
X82452380Y-48004761D01*
X82452380Y-48309523D01*
X82490476Y-48385714D01*
X82528571Y-48423809D01*
X82604761Y-48461904D01*
X82757142Y-48461904D01*
X82833333Y-48423809D01*
X82871428Y-48385714D01*
X82909523Y-48309523D01*
X82909523Y-48119047D01*
X82871428Y-48042857D01*
X82833333Y-48004761D01*
X82757142Y-47966666D01*
X82604761Y-47966666D01*
X82528571Y-48004761D01*
X82490476Y-48042857D01*
X82452380Y-48119047D01*
G04 #@! TO.C,C23*
X95585714Y-37685714D02*
X95547619Y-37723809D01*
X95433333Y-37761904D01*
X95357142Y-37761904D01*
X95242857Y-37723809D01*
X95166666Y-37647619D01*
X95128571Y-37571428D01*
X95090476Y-37419047D01*
X95090476Y-37304761D01*
X95128571Y-37152380D01*
X95166666Y-37076190D01*
X95242857Y-37000000D01*
X95357142Y-36961904D01*
X95433333Y-36961904D01*
X95547619Y-37000000D01*
X95585714Y-37038095D01*
X95890476Y-37038095D02*
X95928571Y-37000000D01*
X96004761Y-36961904D01*
X96195238Y-36961904D01*
X96271428Y-37000000D01*
X96309523Y-37038095D01*
X96347619Y-37114285D01*
X96347619Y-37190476D01*
X96309523Y-37304761D01*
X95852380Y-37761904D01*
X96347619Y-37761904D01*
X96614285Y-36961904D02*
X97109523Y-36961904D01*
X96842857Y-37266666D01*
X96957142Y-37266666D01*
X97033333Y-37304761D01*
X97071428Y-37342857D01*
X97109523Y-37419047D01*
X97109523Y-37609523D01*
X97071428Y-37685714D01*
X97033333Y-37723809D01*
X96957142Y-37761904D01*
X96728571Y-37761904D01*
X96652380Y-37723809D01*
X96614285Y-37685714D01*
G04 #@! TO.C,R6*
X90880404Y-76301333D02*
X90499452Y-76568000D01*
X90880404Y-76758476D02*
X90080404Y-76758476D01*
X90080404Y-76453714D01*
X90118500Y-76377523D01*
X90156595Y-76339428D01*
X90232785Y-76301333D01*
X90347071Y-76301333D01*
X90423261Y-76339428D01*
X90461357Y-76377523D01*
X90499452Y-76453714D01*
X90499452Y-76758476D01*
X90080404Y-75615619D02*
X90080404Y-75768000D01*
X90118500Y-75844190D01*
X90156595Y-75882285D01*
X90270880Y-75958476D01*
X90423261Y-75996571D01*
X90728023Y-75996571D01*
X90804214Y-75958476D01*
X90842309Y-75920380D01*
X90880404Y-75844190D01*
X90880404Y-75691809D01*
X90842309Y-75615619D01*
X90804214Y-75577523D01*
X90728023Y-75539428D01*
X90537547Y-75539428D01*
X90461357Y-75577523D01*
X90423261Y-75615619D01*
X90385166Y-75691809D01*
X90385166Y-75844190D01*
X90423261Y-75920380D01*
X90461357Y-75958476D01*
X90537547Y-75996571D01*
G04 #@! TO.C,R7*
X97758904Y-66386833D02*
X97377952Y-66653500D01*
X97758904Y-66843976D02*
X96958904Y-66843976D01*
X96958904Y-66539214D01*
X96997000Y-66463023D01*
X97035095Y-66424928D01*
X97111285Y-66386833D01*
X97225571Y-66386833D01*
X97301761Y-66424928D01*
X97339857Y-66463023D01*
X97377952Y-66539214D01*
X97377952Y-66843976D01*
X96958904Y-66120166D02*
X96958904Y-65586833D01*
X97758904Y-65929690D01*
G04 #@! TO.C,C24*
X91785714Y-50985714D02*
X91747619Y-51023809D01*
X91633333Y-51061904D01*
X91557142Y-51061904D01*
X91442857Y-51023809D01*
X91366666Y-50947619D01*
X91328571Y-50871428D01*
X91290476Y-50719047D01*
X91290476Y-50604761D01*
X91328571Y-50452380D01*
X91366666Y-50376190D01*
X91442857Y-50300000D01*
X91557142Y-50261904D01*
X91633333Y-50261904D01*
X91747619Y-50300000D01*
X91785714Y-50338095D01*
X92090476Y-50338095D02*
X92128571Y-50300000D01*
X92204761Y-50261904D01*
X92395238Y-50261904D01*
X92471428Y-50300000D01*
X92509523Y-50338095D01*
X92547619Y-50414285D01*
X92547619Y-50490476D01*
X92509523Y-50604761D01*
X92052380Y-51061904D01*
X92547619Y-51061904D01*
X93233333Y-50528571D02*
X93233333Y-51061904D01*
X93042857Y-50223809D02*
X92852380Y-50795238D01*
X93347619Y-50795238D01*
G04 #@! TD*
M02*
