G04 #@! TF.GenerationSoftware,KiCad,Pcbnew,(5.1.10)-1*
G04 #@! TF.CreationDate,2021-11-05T11:55:09+00:00*
G04 #@! TF.ProjectId,RasperryPi ECG Hat,52617370-6572-4727-9950-692045434720,rev?*
G04 #@! TF.SameCoordinates,Original*
G04 #@! TF.FileFunction,Soldermask,Top*
G04 #@! TF.FilePolarity,Negative*
%FSLAX46Y46*%
G04 Gerber Fmt 4.6, Leading zero omitted, Abs format (unit mm)*
G04 Created by KiCad (PCBNEW (5.1.10)-1) date 2021-11-05 11:55:09*
%MOMM*%
%LPD*%
G01*
G04 APERTURE LIST*
%ADD10O,1.800000X1.800000*%
G04 APERTURE END LIST*
G04 #@! TO.C,D3*
G36*
G01*
X78818750Y-43725000D02*
X79381250Y-43725000D01*
G75*
G02*
X79625000Y-43968750I0J-243750D01*
G01*
X79625000Y-44456250D01*
G75*
G02*
X79381250Y-44700000I-243750J0D01*
G01*
X78818750Y-44700000D01*
G75*
G02*
X78575000Y-44456250I0J243750D01*
G01*
X78575000Y-43968750D01*
G75*
G02*
X78818750Y-43725000I243750J0D01*
G01*
G37*
G36*
G01*
X78818750Y-45300000D02*
X79381250Y-45300000D01*
G75*
G02*
X79625000Y-45543750I0J-243750D01*
G01*
X79625000Y-46031250D01*
G75*
G02*
X79381250Y-46275000I-243750J0D01*
G01*
X78818750Y-46275000D01*
G75*
G02*
X78575000Y-46031250I0J243750D01*
G01*
X78575000Y-45543750D01*
G75*
G02*
X78818750Y-45300000I243750J0D01*
G01*
G37*
G04 #@! TD*
G04 #@! TO.C,ECG IN*
G36*
G01*
X105548000Y-95162000D02*
X105548000Y-96862000D01*
G75*
G02*
X105498000Y-96912000I-50000J0D01*
G01*
X103798000Y-96912000D01*
G75*
G02*
X103748000Y-96862000I0J50000D01*
G01*
X103748000Y-95162000D01*
G75*
G02*
X103798000Y-95112000I50000J0D01*
G01*
X105498000Y-95112000D01*
G75*
G02*
X105548000Y-95162000I0J-50000D01*
G01*
G37*
D10*
X104648000Y-93472000D03*
X104648000Y-90932000D03*
X104648000Y-88392000D03*
X104648000Y-85852000D03*
X104648000Y-83312000D03*
G04 #@! TD*
G04 #@! TO.C,R13*
G36*
G01*
X64166500Y-38447000D02*
X64166500Y-38027000D01*
G75*
G02*
X64326500Y-37867000I160000J0D01*
G01*
X64646500Y-37867000D01*
G75*
G02*
X64806500Y-38027000I0J-160000D01*
G01*
X64806500Y-38447000D01*
G75*
G02*
X64646500Y-38607000I-160000J0D01*
G01*
X64326500Y-38607000D01*
G75*
G02*
X64166500Y-38447000I0J160000D01*
G01*
G37*
G36*
G01*
X63146500Y-38447000D02*
X63146500Y-38027000D01*
G75*
G02*
X63306500Y-37867000I160000J0D01*
G01*
X63626500Y-37867000D01*
G75*
G02*
X63786500Y-38027000I0J-160000D01*
G01*
X63786500Y-38447000D01*
G75*
G02*
X63626500Y-38607000I-160000J0D01*
G01*
X63306500Y-38607000D01*
G75*
G02*
X63146500Y-38447000I0J160000D01*
G01*
G37*
G04 #@! TD*
G04 #@! TO.C,R9*
G36*
G01*
X92190000Y-37280000D02*
X92610000Y-37280000D01*
G75*
G02*
X92770000Y-37440000I0J-160000D01*
G01*
X92770000Y-37760000D01*
G75*
G02*
X92610000Y-37920000I-160000J0D01*
G01*
X92190000Y-37920000D01*
G75*
G02*
X92030000Y-37760000I0J160000D01*
G01*
X92030000Y-37440000D01*
G75*
G02*
X92190000Y-37280000I160000J0D01*
G01*
G37*
G36*
G01*
X92190000Y-38300000D02*
X92610000Y-38300000D01*
G75*
G02*
X92770000Y-38460000I0J-160000D01*
G01*
X92770000Y-38780000D01*
G75*
G02*
X92610000Y-38940000I-160000J0D01*
G01*
X92190000Y-38940000D01*
G75*
G02*
X92030000Y-38780000I0J160000D01*
G01*
X92030000Y-38460000D01*
G75*
G02*
X92190000Y-38300000I160000J0D01*
G01*
G37*
G04 #@! TD*
G04 #@! TO.C,D2*
G36*
G01*
X93155500Y-66425750D02*
X93155500Y-66988250D01*
G75*
G02*
X92911750Y-67232000I-243750J0D01*
G01*
X92424250Y-67232000D01*
G75*
G02*
X92180500Y-66988250I0J243750D01*
G01*
X92180500Y-66425750D01*
G75*
G02*
X92424250Y-66182000I243750J0D01*
G01*
X92911750Y-66182000D01*
G75*
G02*
X93155500Y-66425750I0J-243750D01*
G01*
G37*
G36*
G01*
X91580500Y-66425750D02*
X91580500Y-66988250D01*
G75*
G02*
X91336750Y-67232000I-243750J0D01*
G01*
X90849250Y-67232000D01*
G75*
G02*
X90605500Y-66988250I0J243750D01*
G01*
X90605500Y-66425750D01*
G75*
G02*
X90849250Y-66182000I243750J0D01*
G01*
X91336750Y-66182000D01*
G75*
G02*
X91580500Y-66425750I0J-243750D01*
G01*
G37*
G04 #@! TD*
G04 #@! TO.C,R2*
G36*
G01*
X93178000Y-84065000D02*
X92758000Y-84065000D01*
G75*
G02*
X92598000Y-83905000I0J160000D01*
G01*
X92598000Y-83585000D01*
G75*
G02*
X92758000Y-83425000I160000J0D01*
G01*
X93178000Y-83425000D01*
G75*
G02*
X93338000Y-83585000I0J-160000D01*
G01*
X93338000Y-83905000D01*
G75*
G02*
X93178000Y-84065000I-160000J0D01*
G01*
G37*
G36*
G01*
X93178000Y-85085000D02*
X92758000Y-85085000D01*
G75*
G02*
X92598000Y-84925000I0J160000D01*
G01*
X92598000Y-84605000D01*
G75*
G02*
X92758000Y-84445000I160000J0D01*
G01*
X93178000Y-84445000D01*
G75*
G02*
X93338000Y-84605000I0J-160000D01*
G01*
X93338000Y-84925000D01*
G75*
G02*
X93178000Y-85085000I-160000J0D01*
G01*
G37*
G04 #@! TD*
G04 #@! TO.C,Y1*
G36*
G01*
X93254000Y-96316000D02*
X97254000Y-96316000D01*
G75*
G02*
X97304000Y-96366000I0J-50000D01*
G01*
X97304000Y-97366000D01*
G75*
G02*
X97254000Y-97416000I-50000J0D01*
G01*
X93254000Y-97416000D01*
G75*
G02*
X93204000Y-97366000I0J50000D01*
G01*
X93204000Y-96366000D01*
G75*
G02*
X93254000Y-96316000I50000J0D01*
G01*
G37*
G36*
G01*
X85126000Y-96316000D02*
X89126000Y-96316000D01*
G75*
G02*
X89176000Y-96366000I0J-50000D01*
G01*
X89176000Y-97366000D01*
G75*
G02*
X89126000Y-97416000I-50000J0D01*
G01*
X85126000Y-97416000D01*
G75*
G02*
X85076000Y-97366000I0J50000D01*
G01*
X85076000Y-96366000D01*
G75*
G02*
X85126000Y-96316000I50000J0D01*
G01*
G37*
G04 #@! TD*
G04 #@! TO.C,C4*
G36*
G01*
X87893500Y-73221800D02*
X87893500Y-72831800D01*
G75*
G02*
X88058500Y-72666800I165000J0D01*
G01*
X88388500Y-72666800D01*
G75*
G02*
X88553500Y-72831800I0J-165000D01*
G01*
X88553500Y-73221800D01*
G75*
G02*
X88388500Y-73386800I-165000J0D01*
G01*
X88058500Y-73386800D01*
G75*
G02*
X87893500Y-73221800I0J165000D01*
G01*
G37*
G36*
G01*
X86933500Y-73221800D02*
X86933500Y-72831800D01*
G75*
G02*
X87098500Y-72666800I165000J0D01*
G01*
X87428500Y-72666800D01*
G75*
G02*
X87593500Y-72831800I0J-165000D01*
G01*
X87593500Y-73221800D01*
G75*
G02*
X87428500Y-73386800I-165000J0D01*
G01*
X87098500Y-73386800D01*
G75*
G02*
X86933500Y-73221800I0J165000D01*
G01*
G37*
G04 #@! TD*
G04 #@! TO.C,C6*
G36*
G01*
X92870000Y-92695000D02*
X92870000Y-92305000D01*
G75*
G02*
X93035000Y-92140000I165000J0D01*
G01*
X93365000Y-92140000D01*
G75*
G02*
X93530000Y-92305000I0J-165000D01*
G01*
X93530000Y-92695000D01*
G75*
G02*
X93365000Y-92860000I-165000J0D01*
G01*
X93035000Y-92860000D01*
G75*
G02*
X92870000Y-92695000I0J165000D01*
G01*
G37*
G36*
G01*
X93830000Y-92695000D02*
X93830000Y-92305000D01*
G75*
G02*
X93995000Y-92140000I165000J0D01*
G01*
X94325000Y-92140000D01*
G75*
G02*
X94490000Y-92305000I0J-165000D01*
G01*
X94490000Y-92695000D01*
G75*
G02*
X94325000Y-92860000I-165000J0D01*
G01*
X93995000Y-92860000D01*
G75*
G02*
X93830000Y-92695000I0J165000D01*
G01*
G37*
G04 #@! TD*
G04 #@! TO.C,Y2*
G36*
G01*
X81926000Y-53350000D02*
X85926000Y-53350000D01*
G75*
G02*
X85976000Y-53400000I0J-50000D01*
G01*
X85976000Y-54400000D01*
G75*
G02*
X85926000Y-54450000I-50000J0D01*
G01*
X81926000Y-54450000D01*
G75*
G02*
X81876000Y-54400000I0J50000D01*
G01*
X81876000Y-53400000D01*
G75*
G02*
X81926000Y-53350000I50000J0D01*
G01*
G37*
G36*
G01*
X90054000Y-53350000D02*
X94054000Y-53350000D01*
G75*
G02*
X94104000Y-53400000I0J-50000D01*
G01*
X94104000Y-54400000D01*
G75*
G02*
X94054000Y-54450000I-50000J0D01*
G01*
X90054000Y-54450000D01*
G75*
G02*
X90004000Y-54400000I0J50000D01*
G01*
X90004000Y-53400000D01*
G75*
G02*
X90054000Y-53350000I50000J0D01*
G01*
G37*
G04 #@! TD*
G04 #@! TO.C,SPI*
X69469000Y-78867000D03*
X69469000Y-76327000D03*
X69469000Y-73787000D03*
X69469000Y-71247000D03*
G36*
G01*
X68569000Y-69557000D02*
X68569000Y-67857000D01*
G75*
G02*
X68619000Y-67807000I50000J0D01*
G01*
X70319000Y-67807000D01*
G75*
G02*
X70369000Y-67857000I0J-50000D01*
G01*
X70369000Y-69557000D01*
G75*
G02*
X70319000Y-69607000I-50000J0D01*
G01*
X68619000Y-69607000D01*
G75*
G02*
X68569000Y-69557000I0J50000D01*
G01*
G37*
G04 #@! TD*
G04 #@! TO.C,RPI GPIO*
G36*
G01*
X102939000Y-107766000D02*
X104639000Y-107766000D01*
G75*
G02*
X104689000Y-107816000I0J-50000D01*
G01*
X104689000Y-109516000D01*
G75*
G02*
X104639000Y-109566000I-50000J0D01*
G01*
X102939000Y-109566000D01*
G75*
G02*
X102889000Y-109516000I0J50000D01*
G01*
X102889000Y-107816000D01*
G75*
G02*
X102939000Y-107766000I50000J0D01*
G01*
G37*
X103789000Y-111206000D03*
X101249000Y-108666000D03*
X101249000Y-111206000D03*
X98709000Y-108666000D03*
X98709000Y-111206000D03*
X96169000Y-108666000D03*
X96169000Y-111206000D03*
X93629000Y-108666000D03*
X93629000Y-111206000D03*
X91089000Y-108666000D03*
X91089000Y-111206000D03*
X88549000Y-108666000D03*
X88549000Y-111206000D03*
X86009000Y-108666000D03*
X86009000Y-111206000D03*
X83469000Y-108666000D03*
X83469000Y-111206000D03*
X80929000Y-108666000D03*
X80929000Y-111206000D03*
X78389000Y-108666000D03*
X78389000Y-111206000D03*
X75849000Y-108666000D03*
X75849000Y-111206000D03*
G04 #@! TD*
G04 #@! TO.C,ADS1293*
G36*
G01*
X90637000Y-90585100D02*
X90637000Y-91522900D01*
G75*
G02*
X90625900Y-91534000I-11100J0D01*
G01*
X90278100Y-91534000D01*
G75*
G02*
X90267000Y-91522900I0J11100D01*
G01*
X90267000Y-90585100D01*
G75*
G02*
X90278100Y-90574000I11100J0D01*
G01*
X90625900Y-90574000D01*
G75*
G02*
X90637000Y-90585100I0J-11100D01*
G01*
G37*
G36*
G01*
X89997000Y-88445100D02*
X89997000Y-88792900D01*
G75*
G02*
X89985900Y-88804000I-11100J0D01*
G01*
X89048100Y-88804000D01*
G75*
G02*
X89037000Y-88792900I0J11100D01*
G01*
X89037000Y-88445100D01*
G75*
G02*
X89048100Y-88434000I11100J0D01*
G01*
X89985900Y-88434000D01*
G75*
G02*
X89997000Y-88445100I0J-11100D01*
G01*
G37*
G36*
G01*
X93637000Y-90585100D02*
X93637000Y-91522900D01*
G75*
G02*
X93625900Y-91534000I-11100J0D01*
G01*
X93278100Y-91534000D01*
G75*
G02*
X93267000Y-91522900I0J11100D01*
G01*
X93267000Y-90585100D01*
G75*
G02*
X93278100Y-90574000I11100J0D01*
G01*
X93625900Y-90574000D01*
G75*
G02*
X93637000Y-90585100I0J-11100D01*
G01*
G37*
G36*
G01*
X93137000Y-85715100D02*
X93137000Y-86652900D01*
G75*
G02*
X93125900Y-86664000I-11100J0D01*
G01*
X92778100Y-86664000D01*
G75*
G02*
X92767000Y-86652900I0J11100D01*
G01*
X92767000Y-85715100D01*
G75*
G02*
X92778100Y-85704000I11100J0D01*
G01*
X93125900Y-85704000D01*
G75*
G02*
X93137000Y-85715100I0J-11100D01*
G01*
G37*
G36*
G01*
X94867000Y-86945100D02*
X94867000Y-87292900D01*
G75*
G02*
X94855900Y-87304000I-11100J0D01*
G01*
X93918100Y-87304000D01*
G75*
G02*
X93907000Y-87292900I0J11100D01*
G01*
X93907000Y-86945100D01*
G75*
G02*
X93918100Y-86934000I11100J0D01*
G01*
X94855900Y-86934000D01*
G75*
G02*
X94867000Y-86945100I0J-11100D01*
G01*
G37*
G36*
G01*
X92137000Y-90585100D02*
X92137000Y-91522900D01*
G75*
G02*
X92125900Y-91534000I-11100J0D01*
G01*
X91778100Y-91534000D01*
G75*
G02*
X91767000Y-91522900I0J11100D01*
G01*
X91767000Y-90585100D01*
G75*
G02*
X91778100Y-90574000I11100J0D01*
G01*
X92125900Y-90574000D01*
G75*
G02*
X92137000Y-90585100I0J-11100D01*
G01*
G37*
G36*
G01*
X93637000Y-85715100D02*
X93637000Y-86652900D01*
G75*
G02*
X93625900Y-86664000I-11100J0D01*
G01*
X93278100Y-86664000D01*
G75*
G02*
X93267000Y-86652900I0J11100D01*
G01*
X93267000Y-85715100D01*
G75*
G02*
X93278100Y-85704000I11100J0D01*
G01*
X93625900Y-85704000D01*
G75*
G02*
X93637000Y-85715100I0J-11100D01*
G01*
G37*
G36*
G01*
X91637000Y-85715100D02*
X91637000Y-86652900D01*
G75*
G02*
X91625900Y-86664000I-11100J0D01*
G01*
X91278100Y-86664000D01*
G75*
G02*
X91267000Y-86652900I0J11100D01*
G01*
X91267000Y-85715100D01*
G75*
G02*
X91278100Y-85704000I11100J0D01*
G01*
X91625900Y-85704000D01*
G75*
G02*
X91637000Y-85715100I0J-11100D01*
G01*
G37*
G36*
G01*
X93137000Y-90585100D02*
X93137000Y-91522900D01*
G75*
G02*
X93125900Y-91534000I-11100J0D01*
G01*
X92778100Y-91534000D01*
G75*
G02*
X92767000Y-91522900I0J11100D01*
G01*
X92767000Y-90585100D01*
G75*
G02*
X92778100Y-90574000I11100J0D01*
G01*
X93125900Y-90574000D01*
G75*
G02*
X93137000Y-90585100I0J-11100D01*
G01*
G37*
G36*
G01*
X89997000Y-87445100D02*
X89997000Y-87792900D01*
G75*
G02*
X89985900Y-87804000I-11100J0D01*
G01*
X89048100Y-87804000D01*
G75*
G02*
X89037000Y-87792900I0J11100D01*
G01*
X89037000Y-87445100D01*
G75*
G02*
X89048100Y-87434000I11100J0D01*
G01*
X89985900Y-87434000D01*
G75*
G02*
X89997000Y-87445100I0J-11100D01*
G01*
G37*
G36*
G01*
X94867000Y-88445100D02*
X94867000Y-88792900D01*
G75*
G02*
X94855900Y-88804000I-11100J0D01*
G01*
X93918100Y-88804000D01*
G75*
G02*
X93907000Y-88792900I0J11100D01*
G01*
X93907000Y-88445100D01*
G75*
G02*
X93918100Y-88434000I11100J0D01*
G01*
X94855900Y-88434000D01*
G75*
G02*
X94867000Y-88445100I0J-11100D01*
G01*
G37*
G36*
G01*
X93502000Y-87119000D02*
X93502000Y-90119000D01*
G75*
G02*
X93452000Y-90169000I-50000J0D01*
G01*
X90452000Y-90169000D01*
G75*
G02*
X90402000Y-90119000I0J50000D01*
G01*
X90402000Y-87119000D01*
G75*
G02*
X90452000Y-87069000I50000J0D01*
G01*
X93452000Y-87069000D01*
G75*
G02*
X93502000Y-87119000I0J-50000D01*
G01*
G37*
G36*
G01*
X89997000Y-89945100D02*
X89997000Y-90292900D01*
G75*
G02*
X89985900Y-90304000I-11100J0D01*
G01*
X89048100Y-90304000D01*
G75*
G02*
X89037000Y-90292900I0J11100D01*
G01*
X89037000Y-89945100D01*
G75*
G02*
X89048100Y-89934000I11100J0D01*
G01*
X89985900Y-89934000D01*
G75*
G02*
X89997000Y-89945100I0J-11100D01*
G01*
G37*
G36*
G01*
X89997000Y-86945100D02*
X89997000Y-87292900D01*
G75*
G02*
X89985900Y-87304000I-11100J0D01*
G01*
X89048100Y-87304000D01*
G75*
G02*
X89037000Y-87292900I0J11100D01*
G01*
X89037000Y-86945100D01*
G75*
G02*
X89048100Y-86934000I11100J0D01*
G01*
X89985900Y-86934000D01*
G75*
G02*
X89997000Y-86945100I0J-11100D01*
G01*
G37*
G36*
G01*
X92637000Y-90585100D02*
X92637000Y-91522900D01*
G75*
G02*
X92625900Y-91534000I-11100J0D01*
G01*
X92278100Y-91534000D01*
G75*
G02*
X92267000Y-91522900I0J11100D01*
G01*
X92267000Y-90585100D01*
G75*
G02*
X92278100Y-90574000I11100J0D01*
G01*
X92625900Y-90574000D01*
G75*
G02*
X92637000Y-90585100I0J-11100D01*
G01*
G37*
G36*
G01*
X94867000Y-89945100D02*
X94867000Y-90292900D01*
G75*
G02*
X94855900Y-90304000I-11100J0D01*
G01*
X93918100Y-90304000D01*
G75*
G02*
X93907000Y-90292900I0J11100D01*
G01*
X93907000Y-89945100D01*
G75*
G02*
X93918100Y-89934000I11100J0D01*
G01*
X94855900Y-89934000D01*
G75*
G02*
X94867000Y-89945100I0J-11100D01*
G01*
G37*
G36*
G01*
X94867000Y-87445100D02*
X94867000Y-87792900D01*
G75*
G02*
X94855900Y-87804000I-11100J0D01*
G01*
X93918100Y-87804000D01*
G75*
G02*
X93907000Y-87792900I0J11100D01*
G01*
X93907000Y-87445100D01*
G75*
G02*
X93918100Y-87434000I11100J0D01*
G01*
X94855900Y-87434000D01*
G75*
G02*
X94867000Y-87445100I0J-11100D01*
G01*
G37*
G36*
G01*
X91137000Y-90585100D02*
X91137000Y-91522900D01*
G75*
G02*
X91125900Y-91534000I-11100J0D01*
G01*
X90778100Y-91534000D01*
G75*
G02*
X90767000Y-91522900I0J11100D01*
G01*
X90767000Y-90585100D01*
G75*
G02*
X90778100Y-90574000I11100J0D01*
G01*
X91125900Y-90574000D01*
G75*
G02*
X91137000Y-90585100I0J-11100D01*
G01*
G37*
G36*
G01*
X91137000Y-85715100D02*
X91137000Y-86652900D01*
G75*
G02*
X91125900Y-86664000I-11100J0D01*
G01*
X90778100Y-86664000D01*
G75*
G02*
X90767000Y-86652900I0J11100D01*
G01*
X90767000Y-85715100D01*
G75*
G02*
X90778100Y-85704000I11100J0D01*
G01*
X91125900Y-85704000D01*
G75*
G02*
X91137000Y-85715100I0J-11100D01*
G01*
G37*
G36*
G01*
X89997000Y-88945100D02*
X89997000Y-89292900D01*
G75*
G02*
X89985900Y-89304000I-11100J0D01*
G01*
X89048100Y-89304000D01*
G75*
G02*
X89037000Y-89292900I0J11100D01*
G01*
X89037000Y-88945100D01*
G75*
G02*
X89048100Y-88934000I11100J0D01*
G01*
X89985900Y-88934000D01*
G75*
G02*
X89997000Y-88945100I0J-11100D01*
G01*
G37*
G36*
G01*
X90637000Y-85715100D02*
X90637000Y-86652900D01*
G75*
G02*
X90625900Y-86664000I-11100J0D01*
G01*
X90278100Y-86664000D01*
G75*
G02*
X90267000Y-86652900I0J11100D01*
G01*
X90267000Y-85715100D01*
G75*
G02*
X90278100Y-85704000I11100J0D01*
G01*
X90625900Y-85704000D01*
G75*
G02*
X90637000Y-85715100I0J-11100D01*
G01*
G37*
G36*
G01*
X89997000Y-89445100D02*
X89997000Y-89792900D01*
G75*
G02*
X89985900Y-89804000I-11100J0D01*
G01*
X89048100Y-89804000D01*
G75*
G02*
X89037000Y-89792900I0J11100D01*
G01*
X89037000Y-89445100D01*
G75*
G02*
X89048100Y-89434000I11100J0D01*
G01*
X89985900Y-89434000D01*
G75*
G02*
X89997000Y-89445100I0J-11100D01*
G01*
G37*
G36*
G01*
X94867000Y-87945100D02*
X94867000Y-88292900D01*
G75*
G02*
X94855900Y-88304000I-11100J0D01*
G01*
X93918100Y-88304000D01*
G75*
G02*
X93907000Y-88292900I0J11100D01*
G01*
X93907000Y-87945100D01*
G75*
G02*
X93918100Y-87934000I11100J0D01*
G01*
X94855900Y-87934000D01*
G75*
G02*
X94867000Y-87945100I0J-11100D01*
G01*
G37*
G36*
G01*
X89997000Y-87945100D02*
X89997000Y-88292900D01*
G75*
G02*
X89985900Y-88304000I-11100J0D01*
G01*
X89048100Y-88304000D01*
G75*
G02*
X89037000Y-88292900I0J11100D01*
G01*
X89037000Y-87945100D01*
G75*
G02*
X89048100Y-87934000I11100J0D01*
G01*
X89985900Y-87934000D01*
G75*
G02*
X89997000Y-87945100I0J-11100D01*
G01*
G37*
G36*
G01*
X91637000Y-90585100D02*
X91637000Y-91522900D01*
G75*
G02*
X91625900Y-91534000I-11100J0D01*
G01*
X91278100Y-91534000D01*
G75*
G02*
X91267000Y-91522900I0J11100D01*
G01*
X91267000Y-90585100D01*
G75*
G02*
X91278100Y-90574000I11100J0D01*
G01*
X91625900Y-90574000D01*
G75*
G02*
X91637000Y-90585100I0J-11100D01*
G01*
G37*
G36*
G01*
X92637000Y-85715100D02*
X92637000Y-86652900D01*
G75*
G02*
X92625900Y-86664000I-11100J0D01*
G01*
X92278100Y-86664000D01*
G75*
G02*
X92267000Y-86652900I0J11100D01*
G01*
X92267000Y-85715100D01*
G75*
G02*
X92278100Y-85704000I11100J0D01*
G01*
X92625900Y-85704000D01*
G75*
G02*
X92637000Y-85715100I0J-11100D01*
G01*
G37*
G36*
G01*
X92137000Y-85715100D02*
X92137000Y-86652900D01*
G75*
G02*
X92125900Y-86664000I-11100J0D01*
G01*
X91778100Y-86664000D01*
G75*
G02*
X91767000Y-86652900I0J11100D01*
G01*
X91767000Y-85715100D01*
G75*
G02*
X91778100Y-85704000I11100J0D01*
G01*
X92125900Y-85704000D01*
G75*
G02*
X92137000Y-85715100I0J-11100D01*
G01*
G37*
G36*
G01*
X94867000Y-88945100D02*
X94867000Y-89292900D01*
G75*
G02*
X94855900Y-89304000I-11100J0D01*
G01*
X93918100Y-89304000D01*
G75*
G02*
X93907000Y-89292900I0J11100D01*
G01*
X93907000Y-88945100D01*
G75*
G02*
X93918100Y-88934000I11100J0D01*
G01*
X94855900Y-88934000D01*
G75*
G02*
X94867000Y-88945100I0J-11100D01*
G01*
G37*
G36*
G01*
X94867000Y-89445100D02*
X94867000Y-89792900D01*
G75*
G02*
X94855900Y-89804000I-11100J0D01*
G01*
X93918100Y-89804000D01*
G75*
G02*
X93907000Y-89792900I0J11100D01*
G01*
X93907000Y-89445100D01*
G75*
G02*
X93918100Y-89434000I11100J0D01*
G01*
X94855900Y-89434000D01*
G75*
G02*
X94867000Y-89445100I0J-11100D01*
G01*
G37*
G04 #@! TD*
G04 #@! TO.C,ECG CTRL*
X104648000Y-78232000D03*
X104648000Y-75692000D03*
X104648000Y-73152000D03*
G36*
G01*
X103748000Y-71462000D02*
X103748000Y-69762000D01*
G75*
G02*
X103798000Y-69712000I50000J0D01*
G01*
X105498000Y-69712000D01*
G75*
G02*
X105548000Y-69762000I0J-50000D01*
G01*
X105548000Y-71462000D01*
G75*
G02*
X105498000Y-71512000I-50000J0D01*
G01*
X103798000Y-71512000D01*
G75*
G02*
X103748000Y-71462000I0J50000D01*
G01*
G37*
G04 #@! TD*
G04 #@! TO.C,C2*
G36*
G01*
X84470500Y-73938300D02*
X84470500Y-74328300D01*
G75*
G02*
X84305500Y-74493300I-165000J0D01*
G01*
X83975500Y-74493300D01*
G75*
G02*
X83810500Y-74328300I0J165000D01*
G01*
X83810500Y-73938300D01*
G75*
G02*
X83975500Y-73773300I165000J0D01*
G01*
X84305500Y-73773300D01*
G75*
G02*
X84470500Y-73938300I0J-165000D01*
G01*
G37*
G36*
G01*
X83510500Y-73938300D02*
X83510500Y-74328300D01*
G75*
G02*
X83345500Y-74493300I-165000J0D01*
G01*
X83015500Y-74493300D01*
G75*
G02*
X82850500Y-74328300I0J165000D01*
G01*
X82850500Y-73938300D01*
G75*
G02*
X83015500Y-73773300I165000J0D01*
G01*
X83345500Y-73773300D01*
G75*
G02*
X83510500Y-73938300I0J-165000D01*
G01*
G37*
G04 #@! TD*
G04 #@! TO.C,C5*
G36*
G01*
X89316500Y-76269300D02*
X88926500Y-76269300D01*
G75*
G02*
X88761500Y-76104300I0J165000D01*
G01*
X88761500Y-75774300D01*
G75*
G02*
X88926500Y-75609300I165000J0D01*
G01*
X89316500Y-75609300D01*
G75*
G02*
X89481500Y-75774300I0J-165000D01*
G01*
X89481500Y-76104300D01*
G75*
G02*
X89316500Y-76269300I-165000J0D01*
G01*
G37*
G36*
G01*
X89316500Y-77229300D02*
X88926500Y-77229300D01*
G75*
G02*
X88761500Y-77064300I0J165000D01*
G01*
X88761500Y-76734300D01*
G75*
G02*
X88926500Y-76569300I165000J0D01*
G01*
X89316500Y-76569300D01*
G75*
G02*
X89481500Y-76734300I0J-165000D01*
G01*
X89481500Y-77064300D01*
G75*
G02*
X89316500Y-77229300I-165000J0D01*
G01*
G37*
G04 #@! TD*
G04 #@! TO.C,C17*
G36*
G01*
X93353500Y-61425000D02*
X93353500Y-61035000D01*
G75*
G02*
X93518500Y-60870000I165000J0D01*
G01*
X93848500Y-60870000D01*
G75*
G02*
X94013500Y-61035000I0J-165000D01*
G01*
X94013500Y-61425000D01*
G75*
G02*
X93848500Y-61590000I-165000J0D01*
G01*
X93518500Y-61590000D01*
G75*
G02*
X93353500Y-61425000I0J165000D01*
G01*
G37*
G36*
G01*
X92393500Y-61425000D02*
X92393500Y-61035000D01*
G75*
G02*
X92558500Y-60870000I165000J0D01*
G01*
X92888500Y-60870000D01*
G75*
G02*
X93053500Y-61035000I0J-165000D01*
G01*
X93053500Y-61425000D01*
G75*
G02*
X92888500Y-61590000I-165000J0D01*
G01*
X92558500Y-61590000D01*
G75*
G02*
X92393500Y-61425000I0J165000D01*
G01*
G37*
G04 #@! TD*
G04 #@! TO.C,C18*
G36*
G01*
X77634500Y-39223500D02*
X77634500Y-38833500D01*
G75*
G02*
X77799500Y-38668500I165000J0D01*
G01*
X78129500Y-38668500D01*
G75*
G02*
X78294500Y-38833500I0J-165000D01*
G01*
X78294500Y-39223500D01*
G75*
G02*
X78129500Y-39388500I-165000J0D01*
G01*
X77799500Y-39388500D01*
G75*
G02*
X77634500Y-39223500I0J165000D01*
G01*
G37*
G36*
G01*
X76674500Y-39223500D02*
X76674500Y-38833500D01*
G75*
G02*
X76839500Y-38668500I165000J0D01*
G01*
X77169500Y-38668500D01*
G75*
G02*
X77334500Y-38833500I0J-165000D01*
G01*
X77334500Y-39223500D01*
G75*
G02*
X77169500Y-39388500I-165000J0D01*
G01*
X76839500Y-39388500D01*
G75*
G02*
X76674500Y-39223500I0J165000D01*
G01*
G37*
G04 #@! TD*
G04 #@! TO.C,C19*
G36*
G01*
X91918000Y-61035000D02*
X91918000Y-61425000D01*
G75*
G02*
X91753000Y-61590000I-165000J0D01*
G01*
X91423000Y-61590000D01*
G75*
G02*
X91258000Y-61425000I0J165000D01*
G01*
X91258000Y-61035000D01*
G75*
G02*
X91423000Y-60870000I165000J0D01*
G01*
X91753000Y-60870000D01*
G75*
G02*
X91918000Y-61035000I0J-165000D01*
G01*
G37*
G36*
G01*
X90958000Y-61035000D02*
X90958000Y-61425000D01*
G75*
G02*
X90793000Y-61590000I-165000J0D01*
G01*
X90463000Y-61590000D01*
G75*
G02*
X90298000Y-61425000I0J165000D01*
G01*
X90298000Y-61035000D01*
G75*
G02*
X90463000Y-60870000I165000J0D01*
G01*
X90793000Y-60870000D01*
G75*
G02*
X90958000Y-61035000I0J-165000D01*
G01*
G37*
G04 #@! TD*
G04 #@! TO.C,C20*
G36*
G01*
X75048500Y-38833500D02*
X75048500Y-39223500D01*
G75*
G02*
X74883500Y-39388500I-165000J0D01*
G01*
X74553500Y-39388500D01*
G75*
G02*
X74388500Y-39223500I0J165000D01*
G01*
X74388500Y-38833500D01*
G75*
G02*
X74553500Y-38668500I165000J0D01*
G01*
X74883500Y-38668500D01*
G75*
G02*
X75048500Y-38833500I0J-165000D01*
G01*
G37*
G36*
G01*
X76008500Y-38833500D02*
X76008500Y-39223500D01*
G75*
G02*
X75843500Y-39388500I-165000J0D01*
G01*
X75513500Y-39388500D01*
G75*
G02*
X75348500Y-39223500I0J165000D01*
G01*
X75348500Y-38833500D01*
G75*
G02*
X75513500Y-38668500I165000J0D01*
G01*
X75843500Y-38668500D01*
G75*
G02*
X76008500Y-38833500I0J-165000D01*
G01*
G37*
G04 #@! TD*
G04 #@! TO.C,C21*
G36*
G01*
X94895000Y-64170000D02*
X94505000Y-64170000D01*
G75*
G02*
X94340000Y-64005000I0J165000D01*
G01*
X94340000Y-63675000D01*
G75*
G02*
X94505000Y-63510000I165000J0D01*
G01*
X94895000Y-63510000D01*
G75*
G02*
X95060000Y-63675000I0J-165000D01*
G01*
X95060000Y-64005000D01*
G75*
G02*
X94895000Y-64170000I-165000J0D01*
G01*
G37*
G36*
G01*
X94895000Y-65130000D02*
X94505000Y-65130000D01*
G75*
G02*
X94340000Y-64965000I0J165000D01*
G01*
X94340000Y-64635000D01*
G75*
G02*
X94505000Y-64470000I165000J0D01*
G01*
X94895000Y-64470000D01*
G75*
G02*
X95060000Y-64635000I0J-165000D01*
G01*
X95060000Y-64965000D01*
G75*
G02*
X94895000Y-65130000I-165000J0D01*
G01*
G37*
G04 #@! TD*
G04 #@! TO.C,C22*
G36*
G01*
X77532500Y-43723000D02*
X77532500Y-44113000D01*
G75*
G02*
X77367500Y-44278000I-165000J0D01*
G01*
X77037500Y-44278000D01*
G75*
G02*
X76872500Y-44113000I0J165000D01*
G01*
X76872500Y-43723000D01*
G75*
G02*
X77037500Y-43558000I165000J0D01*
G01*
X77367500Y-43558000D01*
G75*
G02*
X77532500Y-43723000I0J-165000D01*
G01*
G37*
G36*
G01*
X76572500Y-43723000D02*
X76572500Y-44113000D01*
G75*
G02*
X76407500Y-44278000I-165000J0D01*
G01*
X76077500Y-44278000D01*
G75*
G02*
X75912500Y-44113000I0J165000D01*
G01*
X75912500Y-43723000D01*
G75*
G02*
X76077500Y-43558000I165000J0D01*
G01*
X76407500Y-43558000D01*
G75*
G02*
X76572500Y-43723000I0J-165000D01*
G01*
G37*
G04 #@! TD*
G04 #@! TO.C,I2C*
G36*
G01*
X64174000Y-112892000D02*
X65874000Y-112892000D01*
G75*
G02*
X65924000Y-112942000I0J-50000D01*
G01*
X65924000Y-114642000D01*
G75*
G02*
X65874000Y-114692000I-50000J0D01*
G01*
X64174000Y-114692000D01*
G75*
G02*
X64124000Y-114642000I0J50000D01*
G01*
X64124000Y-112942000D01*
G75*
G02*
X64174000Y-112892000I50000J0D01*
G01*
G37*
X62484000Y-113792000D03*
X59944000Y-113792000D03*
X57404000Y-113792000D03*
G04 #@! TD*
G04 #@! TO.C,UART*
X63246000Y-99949000D03*
X63246000Y-102489000D03*
X63246000Y-105029000D03*
G36*
G01*
X64146000Y-106719000D02*
X64146000Y-108419000D01*
G75*
G02*
X64096000Y-108469000I-50000J0D01*
G01*
X62396000Y-108469000D01*
G75*
G02*
X62346000Y-108419000I0J50000D01*
G01*
X62346000Y-106719000D01*
G75*
G02*
X62396000Y-106669000I50000J0D01*
G01*
X64096000Y-106669000D01*
G75*
G02*
X64146000Y-106719000I0J-50000D01*
G01*
G37*
G04 #@! TD*
G04 #@! TO.C,ADC CTRL*
X61246000Y-50810000D03*
X61246000Y-48270000D03*
X61246000Y-45730000D03*
X61246000Y-43190000D03*
X61246000Y-40650000D03*
G36*
G01*
X60346000Y-38960000D02*
X60346000Y-37260000D01*
G75*
G02*
X60396000Y-37210000I50000J0D01*
G01*
X62096000Y-37210000D01*
G75*
G02*
X62146000Y-37260000I0J-50000D01*
G01*
X62146000Y-38960000D01*
G75*
G02*
X62096000Y-39010000I-50000J0D01*
G01*
X60396000Y-39010000D01*
G75*
G02*
X60346000Y-38960000I0J50000D01*
G01*
G37*
G04 #@! TD*
G04 #@! TO.C,ADC IN*
X105410000Y-63881000D03*
X102870000Y-63881000D03*
X105410000Y-61341000D03*
X102870000Y-61341000D03*
X105410000Y-58801000D03*
X102870000Y-58801000D03*
X105410000Y-56261000D03*
X102870000Y-56261000D03*
X105410000Y-53721000D03*
X102870000Y-53721000D03*
X105410000Y-51181000D03*
X102870000Y-51181000D03*
X105410000Y-48641000D03*
X102870000Y-48641000D03*
X105410000Y-46101000D03*
X102870000Y-46101000D03*
X105410000Y-43561000D03*
X102870000Y-43561000D03*
X105410000Y-41021000D03*
X102870000Y-41021000D03*
X105410000Y-38481000D03*
X102870000Y-38481000D03*
X105410000Y-35941000D03*
G36*
G01*
X101970000Y-36791000D02*
X101970000Y-35091000D01*
G75*
G02*
X102020000Y-35041000I50000J0D01*
G01*
X103720000Y-35041000D01*
G75*
G02*
X103770000Y-35091000I0J-50000D01*
G01*
X103770000Y-36791000D01*
G75*
G02*
X103720000Y-36841000I-50000J0D01*
G01*
X102020000Y-36841000D01*
G75*
G02*
X101970000Y-36791000I0J50000D01*
G01*
G37*
G04 #@! TD*
G04 #@! TO.C,RPI*
G36*
G01*
X58700000Y-106850000D02*
X58700000Y-108550000D01*
G75*
G02*
X58650000Y-108600000I-50000J0D01*
G01*
X56950000Y-108600000D01*
G75*
G02*
X56900000Y-108550000I0J50000D01*
G01*
X56900000Y-106850000D01*
G75*
G02*
X56950000Y-106800000I50000J0D01*
G01*
X58650000Y-106800000D01*
G75*
G02*
X58700000Y-106850000I0J-50000D01*
G01*
G37*
X55260000Y-107700000D03*
X57800000Y-105160000D03*
X55260000Y-105160000D03*
X57800000Y-102620000D03*
X55260000Y-102620000D03*
X57800000Y-100080000D03*
X55260000Y-100080000D03*
X57800000Y-97540000D03*
X55260000Y-97540000D03*
X57800000Y-95000000D03*
X55260000Y-95000000D03*
X57800000Y-92460000D03*
X55260000Y-92460000D03*
X57800000Y-89920000D03*
X55260000Y-89920000D03*
X57800000Y-87380000D03*
X55260000Y-87380000D03*
X57800000Y-84840000D03*
X55260000Y-84840000D03*
X57800000Y-82300000D03*
X55260000Y-82300000D03*
X57800000Y-79760000D03*
X55260000Y-79760000D03*
X57800000Y-77220000D03*
X55260000Y-77220000D03*
X57800000Y-74680000D03*
X55260000Y-74680000D03*
X57800000Y-72140000D03*
X55260000Y-72140000D03*
X57800000Y-69600000D03*
X55260000Y-69600000D03*
X57800000Y-67060000D03*
X55260000Y-67060000D03*
X57800000Y-64520000D03*
X55260000Y-64520000D03*
X57800000Y-61980000D03*
X55260000Y-61980000D03*
X57800000Y-59440000D03*
X55260000Y-59440000D03*
G04 #@! TD*
G04 #@! TO.C,JP1*
G36*
G01*
X91317500Y-99640500D02*
X91317500Y-100060500D01*
G75*
G02*
X91157500Y-100220500I-160000J0D01*
G01*
X90837500Y-100220500D01*
G75*
G02*
X90677500Y-100060500I0J160000D01*
G01*
X90677500Y-99640500D01*
G75*
G02*
X90837500Y-99480500I160000J0D01*
G01*
X91157500Y-99480500D01*
G75*
G02*
X91317500Y-99640500I0J-160000D01*
G01*
G37*
G36*
G01*
X92337500Y-99640500D02*
X92337500Y-100060500D01*
G75*
G02*
X92177500Y-100220500I-160000J0D01*
G01*
X91857500Y-100220500D01*
G75*
G02*
X91697500Y-100060500I0J160000D01*
G01*
X91697500Y-99640500D01*
G75*
G02*
X91857500Y-99480500I160000J0D01*
G01*
X92177500Y-99480500D01*
G75*
G02*
X92337500Y-99640500I0J-160000D01*
G01*
G37*
G04 #@! TD*
G04 #@! TO.C,JP2*
G36*
G01*
X97485500Y-89518000D02*
X97485500Y-89098000D01*
G75*
G02*
X97645500Y-88938000I160000J0D01*
G01*
X97965500Y-88938000D01*
G75*
G02*
X98125500Y-89098000I0J-160000D01*
G01*
X98125500Y-89518000D01*
G75*
G02*
X97965500Y-89678000I-160000J0D01*
G01*
X97645500Y-89678000D01*
G75*
G02*
X97485500Y-89518000I0J160000D01*
G01*
G37*
G36*
G01*
X96465500Y-89518000D02*
X96465500Y-89098000D01*
G75*
G02*
X96625500Y-88938000I160000J0D01*
G01*
X96945500Y-88938000D01*
G75*
G02*
X97105500Y-89098000I0J-160000D01*
G01*
X97105500Y-89518000D01*
G75*
G02*
X96945500Y-89678000I-160000J0D01*
G01*
X96625500Y-89678000D01*
G75*
G02*
X96465500Y-89518000I0J160000D01*
G01*
G37*
G04 #@! TD*
G04 #@! TO.C,JP3*
G36*
G01*
X98125500Y-90214000D02*
X98125500Y-90634000D01*
G75*
G02*
X97965500Y-90794000I-160000J0D01*
G01*
X97645500Y-90794000D01*
G75*
G02*
X97485500Y-90634000I0J160000D01*
G01*
X97485500Y-90214000D01*
G75*
G02*
X97645500Y-90054000I160000J0D01*
G01*
X97965500Y-90054000D01*
G75*
G02*
X98125500Y-90214000I0J-160000D01*
G01*
G37*
G36*
G01*
X97105500Y-90214000D02*
X97105500Y-90634000D01*
G75*
G02*
X96945500Y-90794000I-160000J0D01*
G01*
X96625500Y-90794000D01*
G75*
G02*
X96465500Y-90634000I0J160000D01*
G01*
X96465500Y-90214000D01*
G75*
G02*
X96625500Y-90054000I160000J0D01*
G01*
X96945500Y-90054000D01*
G75*
G02*
X97105500Y-90214000I0J-160000D01*
G01*
G37*
G04 #@! TD*
G04 #@! TO.C,JP4*
G36*
G01*
X96467500Y-85210000D02*
X96467500Y-84790000D01*
G75*
G02*
X96627500Y-84630000I160000J0D01*
G01*
X96947500Y-84630000D01*
G75*
G02*
X97107500Y-84790000I0J-160000D01*
G01*
X97107500Y-85210000D01*
G75*
G02*
X96947500Y-85370000I-160000J0D01*
G01*
X96627500Y-85370000D01*
G75*
G02*
X96467500Y-85210000I0J160000D01*
G01*
G37*
G36*
G01*
X97487500Y-85210000D02*
X97487500Y-84790000D01*
G75*
G02*
X97647500Y-84630000I160000J0D01*
G01*
X97967500Y-84630000D01*
G75*
G02*
X98127500Y-84790000I0J-160000D01*
G01*
X98127500Y-85210000D01*
G75*
G02*
X97967500Y-85370000I-160000J0D01*
G01*
X97647500Y-85370000D01*
G75*
G02*
X97487500Y-85210000I0J160000D01*
G01*
G37*
G04 #@! TD*
G04 #@! TO.C,JP5*
G36*
G01*
X90679500Y-101203500D02*
X90679500Y-100783500D01*
G75*
G02*
X90839500Y-100623500I160000J0D01*
G01*
X91159500Y-100623500D01*
G75*
G02*
X91319500Y-100783500I0J-160000D01*
G01*
X91319500Y-101203500D01*
G75*
G02*
X91159500Y-101363500I-160000J0D01*
G01*
X90839500Y-101363500D01*
G75*
G02*
X90679500Y-101203500I0J160000D01*
G01*
G37*
G36*
G01*
X91699500Y-101203500D02*
X91699500Y-100783500D01*
G75*
G02*
X91859500Y-100623500I160000J0D01*
G01*
X92179500Y-100623500D01*
G75*
G02*
X92339500Y-100783500I0J-160000D01*
G01*
X92339500Y-101203500D01*
G75*
G02*
X92179500Y-101363500I-160000J0D01*
G01*
X91859500Y-101363500D01*
G75*
G02*
X91699500Y-101203500I0J160000D01*
G01*
G37*
G04 #@! TD*
G04 #@! TO.C,JP6*
G36*
G01*
X97105500Y-85877000D02*
X97105500Y-86297000D01*
G75*
G02*
X96945500Y-86457000I-160000J0D01*
G01*
X96625500Y-86457000D01*
G75*
G02*
X96465500Y-86297000I0J160000D01*
G01*
X96465500Y-85877000D01*
G75*
G02*
X96625500Y-85717000I160000J0D01*
G01*
X96945500Y-85717000D01*
G75*
G02*
X97105500Y-85877000I0J-160000D01*
G01*
G37*
G36*
G01*
X98125500Y-85877000D02*
X98125500Y-86297000D01*
G75*
G02*
X97965500Y-86457000I-160000J0D01*
G01*
X97645500Y-86457000D01*
G75*
G02*
X97485500Y-86297000I0J160000D01*
G01*
X97485500Y-85877000D01*
G75*
G02*
X97645500Y-85717000I160000J0D01*
G01*
X97965500Y-85717000D01*
G75*
G02*
X98125500Y-85877000I0J-160000D01*
G01*
G37*
G04 #@! TD*
G04 #@! TO.C,L1*
G36*
G01*
X85774500Y-73236800D02*
X85774500Y-72816800D01*
G75*
G02*
X85934500Y-72656800I160000J0D01*
G01*
X86254500Y-72656800D01*
G75*
G02*
X86414500Y-72816800I0J-160000D01*
G01*
X86414500Y-73236800D01*
G75*
G02*
X86254500Y-73396800I-160000J0D01*
G01*
X85934500Y-73396800D01*
G75*
G02*
X85774500Y-73236800I0J160000D01*
G01*
G37*
G36*
G01*
X84754500Y-73236800D02*
X84754500Y-72816800D01*
G75*
G02*
X84914500Y-72656800I160000J0D01*
G01*
X85234500Y-72656800D01*
G75*
G02*
X85394500Y-72816800I0J-160000D01*
G01*
X85394500Y-73236800D01*
G75*
G02*
X85234500Y-73396800I-160000J0D01*
G01*
X84914500Y-73396800D01*
G75*
G02*
X84754500Y-73236800I0J160000D01*
G01*
G37*
G04 #@! TD*
G04 #@! TO.C,L2*
G36*
G01*
X91370000Y-60310000D02*
X91370000Y-59890000D01*
G75*
G02*
X91530000Y-59730000I160000J0D01*
G01*
X91850000Y-59730000D01*
G75*
G02*
X92010000Y-59890000I0J-160000D01*
G01*
X92010000Y-60310000D01*
G75*
G02*
X91850000Y-60470000I-160000J0D01*
G01*
X91530000Y-60470000D01*
G75*
G02*
X91370000Y-60310000I0J160000D01*
G01*
G37*
G36*
G01*
X92390000Y-60310000D02*
X92390000Y-59890000D01*
G75*
G02*
X92550000Y-59730000I160000J0D01*
G01*
X92870000Y-59730000D01*
G75*
G02*
X93030000Y-59890000I0J-160000D01*
G01*
X93030000Y-60310000D01*
G75*
G02*
X92870000Y-60470000I-160000J0D01*
G01*
X92550000Y-60470000D01*
G75*
G02*
X92390000Y-60310000I0J160000D01*
G01*
G37*
G04 #@! TD*
G04 #@! TO.C,L3*
G36*
G01*
X76680000Y-38010000D02*
X76680000Y-37590000D01*
G75*
G02*
X76840000Y-37430000I160000J0D01*
G01*
X77160000Y-37430000D01*
G75*
G02*
X77320000Y-37590000I0J-160000D01*
G01*
X77320000Y-38010000D01*
G75*
G02*
X77160000Y-38170000I-160000J0D01*
G01*
X76840000Y-38170000D01*
G75*
G02*
X76680000Y-38010000I0J160000D01*
G01*
G37*
G36*
G01*
X75660000Y-38010000D02*
X75660000Y-37590000D01*
G75*
G02*
X75820000Y-37430000I160000J0D01*
G01*
X76140000Y-37430000D01*
G75*
G02*
X76300000Y-37590000I0J-160000D01*
G01*
X76300000Y-38010000D01*
G75*
G02*
X76140000Y-38170000I-160000J0D01*
G01*
X75820000Y-38170000D01*
G75*
G02*
X75660000Y-38010000I0J160000D01*
G01*
G37*
G04 #@! TD*
G04 #@! TO.C,R1*
G36*
G01*
X92289000Y-92820000D02*
X91869000Y-92820000D01*
G75*
G02*
X91709000Y-92660000I0J160000D01*
G01*
X91709000Y-92340000D01*
G75*
G02*
X91869000Y-92180000I160000J0D01*
G01*
X92289000Y-92180000D01*
G75*
G02*
X92449000Y-92340000I0J-160000D01*
G01*
X92449000Y-92660000D01*
G75*
G02*
X92289000Y-92820000I-160000J0D01*
G01*
G37*
G36*
G01*
X92289000Y-93840000D02*
X91869000Y-93840000D01*
G75*
G02*
X91709000Y-93680000I0J160000D01*
G01*
X91709000Y-93360000D01*
G75*
G02*
X91869000Y-93200000I160000J0D01*
G01*
X92289000Y-93200000D01*
G75*
G02*
X92449000Y-93360000I0J-160000D01*
G01*
X92449000Y-93680000D01*
G75*
G02*
X92289000Y-93840000I-160000J0D01*
G01*
G37*
G04 #@! TD*
G04 #@! TO.C,R3*
G36*
G01*
X95310000Y-84065000D02*
X94890000Y-84065000D01*
G75*
G02*
X94730000Y-83905000I0J160000D01*
G01*
X94730000Y-83585000D01*
G75*
G02*
X94890000Y-83425000I160000J0D01*
G01*
X95310000Y-83425000D01*
G75*
G02*
X95470000Y-83585000I0J-160000D01*
G01*
X95470000Y-83905000D01*
G75*
G02*
X95310000Y-84065000I-160000J0D01*
G01*
G37*
G36*
G01*
X95310000Y-85085000D02*
X94890000Y-85085000D01*
G75*
G02*
X94730000Y-84925000I0J160000D01*
G01*
X94730000Y-84605000D01*
G75*
G02*
X94890000Y-84445000I160000J0D01*
G01*
X95310000Y-84445000D01*
G75*
G02*
X95470000Y-84605000I0J-160000D01*
G01*
X95470000Y-84925000D01*
G75*
G02*
X95310000Y-85085000I-160000J0D01*
G01*
G37*
G04 #@! TD*
G04 #@! TO.C,R4*
G36*
G01*
X98125500Y-92446000D02*
X98125500Y-92866000D01*
G75*
G02*
X97965500Y-93026000I-160000J0D01*
G01*
X97645500Y-93026000D01*
G75*
G02*
X97485500Y-92866000I0J160000D01*
G01*
X97485500Y-92446000D01*
G75*
G02*
X97645500Y-92286000I160000J0D01*
G01*
X97965500Y-92286000D01*
G75*
G02*
X98125500Y-92446000I0J-160000D01*
G01*
G37*
G36*
G01*
X97105500Y-92446000D02*
X97105500Y-92866000D01*
G75*
G02*
X96945500Y-93026000I-160000J0D01*
G01*
X96625500Y-93026000D01*
G75*
G02*
X96465500Y-92866000I0J160000D01*
G01*
X96465500Y-92446000D01*
G75*
G02*
X96625500Y-92286000I160000J0D01*
G01*
X96945500Y-92286000D01*
G75*
G02*
X97105500Y-92446000I0J-160000D01*
G01*
G37*
G04 #@! TD*
G04 #@! TO.C,R5*
G36*
G01*
X97105500Y-91330000D02*
X97105500Y-91750000D01*
G75*
G02*
X96945500Y-91910000I-160000J0D01*
G01*
X96625500Y-91910000D01*
G75*
G02*
X96465500Y-91750000I0J160000D01*
G01*
X96465500Y-91330000D01*
G75*
G02*
X96625500Y-91170000I160000J0D01*
G01*
X96945500Y-91170000D01*
G75*
G02*
X97105500Y-91330000I0J-160000D01*
G01*
G37*
G36*
G01*
X98125500Y-91330000D02*
X98125500Y-91750000D01*
G75*
G02*
X97965500Y-91910000I-160000J0D01*
G01*
X97645500Y-91910000D01*
G75*
G02*
X97485500Y-91750000I0J160000D01*
G01*
X97485500Y-91330000D01*
G75*
G02*
X97645500Y-91170000I160000J0D01*
G01*
X97965500Y-91170000D01*
G75*
G02*
X98125500Y-91330000I0J-160000D01*
G01*
G37*
G04 #@! TD*
G04 #@! TO.C,R10*
G36*
G01*
X94212500Y-38848000D02*
X94212500Y-38428000D01*
G75*
G02*
X94372500Y-38268000I160000J0D01*
G01*
X94692500Y-38268000D01*
G75*
G02*
X94852500Y-38428000I0J-160000D01*
G01*
X94852500Y-38848000D01*
G75*
G02*
X94692500Y-39008000I-160000J0D01*
G01*
X94372500Y-39008000D01*
G75*
G02*
X94212500Y-38848000I0J160000D01*
G01*
G37*
G36*
G01*
X93192500Y-38848000D02*
X93192500Y-38428000D01*
G75*
G02*
X93352500Y-38268000I160000J0D01*
G01*
X93672500Y-38268000D01*
G75*
G02*
X93832500Y-38428000I0J-160000D01*
G01*
X93832500Y-38848000D01*
G75*
G02*
X93672500Y-39008000I-160000J0D01*
G01*
X93352500Y-39008000D01*
G75*
G02*
X93192500Y-38848000I0J160000D01*
G01*
G37*
G04 #@! TD*
G04 #@! TO.C,R11*
G36*
G01*
X97105500Y-87982000D02*
X97105500Y-88402000D01*
G75*
G02*
X96945500Y-88562000I-160000J0D01*
G01*
X96625500Y-88562000D01*
G75*
G02*
X96465500Y-88402000I0J160000D01*
G01*
X96465500Y-87982000D01*
G75*
G02*
X96625500Y-87822000I160000J0D01*
G01*
X96945500Y-87822000D01*
G75*
G02*
X97105500Y-87982000I0J-160000D01*
G01*
G37*
G36*
G01*
X98125500Y-87982000D02*
X98125500Y-88402000D01*
G75*
G02*
X97965500Y-88562000I-160000J0D01*
G01*
X97645500Y-88562000D01*
G75*
G02*
X97485500Y-88402000I0J160000D01*
G01*
X97485500Y-87982000D01*
G75*
G02*
X97645500Y-87822000I160000J0D01*
G01*
X97965500Y-87822000D01*
G75*
G02*
X98125500Y-87982000I0J-160000D01*
G01*
G37*
G04 #@! TD*
G04 #@! TO.C,R12*
G36*
G01*
X98125500Y-86929500D02*
X98125500Y-87349500D01*
G75*
G02*
X97965500Y-87509500I-160000J0D01*
G01*
X97645500Y-87509500D01*
G75*
G02*
X97485500Y-87349500I0J160000D01*
G01*
X97485500Y-86929500D01*
G75*
G02*
X97645500Y-86769500I160000J0D01*
G01*
X97965500Y-86769500D01*
G75*
G02*
X98125500Y-86929500I0J-160000D01*
G01*
G37*
G36*
G01*
X97105500Y-86929500D02*
X97105500Y-87349500D01*
G75*
G02*
X96945500Y-87509500I-160000J0D01*
G01*
X96625500Y-87509500D01*
G75*
G02*
X96465500Y-87349500I0J160000D01*
G01*
X96465500Y-86929500D01*
G75*
G02*
X96625500Y-86769500I160000J0D01*
G01*
X96945500Y-86769500D01*
G75*
G02*
X97105500Y-86929500I0J-160000D01*
G01*
G37*
G04 #@! TD*
G04 #@! TO.C,R14*
G36*
G01*
X63146500Y-40860000D02*
X63146500Y-40440000D01*
G75*
G02*
X63306500Y-40280000I160000J0D01*
G01*
X63626500Y-40280000D01*
G75*
G02*
X63786500Y-40440000I0J-160000D01*
G01*
X63786500Y-40860000D01*
G75*
G02*
X63626500Y-41020000I-160000J0D01*
G01*
X63306500Y-41020000D01*
G75*
G02*
X63146500Y-40860000I0J160000D01*
G01*
G37*
G36*
G01*
X64166500Y-40860000D02*
X64166500Y-40440000D01*
G75*
G02*
X64326500Y-40280000I160000J0D01*
G01*
X64646500Y-40280000D01*
G75*
G02*
X64806500Y-40440000I0J-160000D01*
G01*
X64806500Y-40860000D01*
G75*
G02*
X64646500Y-41020000I-160000J0D01*
G01*
X64326500Y-41020000D01*
G75*
G02*
X64166500Y-40860000I0J160000D01*
G01*
G37*
G04 #@! TD*
G04 #@! TO.C,R15*
G36*
G01*
X63210000Y-43400000D02*
X63210000Y-42980000D01*
G75*
G02*
X63370000Y-42820000I160000J0D01*
G01*
X63690000Y-42820000D01*
G75*
G02*
X63850000Y-42980000I0J-160000D01*
G01*
X63850000Y-43400000D01*
G75*
G02*
X63690000Y-43560000I-160000J0D01*
G01*
X63370000Y-43560000D01*
G75*
G02*
X63210000Y-43400000I0J160000D01*
G01*
G37*
G36*
G01*
X64230000Y-43400000D02*
X64230000Y-42980000D01*
G75*
G02*
X64390000Y-42820000I160000J0D01*
G01*
X64710000Y-42820000D01*
G75*
G02*
X64870000Y-42980000I0J-160000D01*
G01*
X64870000Y-43400000D01*
G75*
G02*
X64710000Y-43560000I-160000J0D01*
G01*
X64390000Y-43560000D01*
G75*
G02*
X64230000Y-43400000I0J160000D01*
G01*
G37*
G04 #@! TD*
G04 #@! TO.C,R16*
G36*
G01*
X64230000Y-45813000D02*
X64230000Y-45393000D01*
G75*
G02*
X64390000Y-45233000I160000J0D01*
G01*
X64710000Y-45233000D01*
G75*
G02*
X64870000Y-45393000I0J-160000D01*
G01*
X64870000Y-45813000D01*
G75*
G02*
X64710000Y-45973000I-160000J0D01*
G01*
X64390000Y-45973000D01*
G75*
G02*
X64230000Y-45813000I0J160000D01*
G01*
G37*
G36*
G01*
X63210000Y-45813000D02*
X63210000Y-45393000D01*
G75*
G02*
X63370000Y-45233000I160000J0D01*
G01*
X63690000Y-45233000D01*
G75*
G02*
X63850000Y-45393000I0J-160000D01*
G01*
X63850000Y-45813000D01*
G75*
G02*
X63690000Y-45973000I-160000J0D01*
G01*
X63370000Y-45973000D01*
G75*
G02*
X63210000Y-45813000I0J160000D01*
G01*
G37*
G04 #@! TD*
G04 #@! TO.C,R17*
G36*
G01*
X63273500Y-48353000D02*
X63273500Y-47933000D01*
G75*
G02*
X63433500Y-47773000I160000J0D01*
G01*
X63753500Y-47773000D01*
G75*
G02*
X63913500Y-47933000I0J-160000D01*
G01*
X63913500Y-48353000D01*
G75*
G02*
X63753500Y-48513000I-160000J0D01*
G01*
X63433500Y-48513000D01*
G75*
G02*
X63273500Y-48353000I0J160000D01*
G01*
G37*
G36*
G01*
X64293500Y-48353000D02*
X64293500Y-47933000D01*
G75*
G02*
X64453500Y-47773000I160000J0D01*
G01*
X64773500Y-47773000D01*
G75*
G02*
X64933500Y-47933000I0J-160000D01*
G01*
X64933500Y-48353000D01*
G75*
G02*
X64773500Y-48513000I-160000J0D01*
G01*
X64453500Y-48513000D01*
G75*
G02*
X64293500Y-48353000I0J160000D01*
G01*
G37*
G04 #@! TD*
G04 #@! TO.C,U1*
G36*
G01*
X87045000Y-75093800D02*
X86245000Y-75093800D01*
G75*
G02*
X86195000Y-75043800I0J50000D01*
G01*
X86195000Y-74143800D01*
G75*
G02*
X86245000Y-74093800I50000J0D01*
G01*
X87045000Y-74093800D01*
G75*
G02*
X87095000Y-74143800I0J-50000D01*
G01*
X87095000Y-75043800D01*
G75*
G02*
X87045000Y-75093800I-50000J0D01*
G01*
G37*
G36*
G01*
X87995000Y-77093800D02*
X87195000Y-77093800D01*
G75*
G02*
X87145000Y-77043800I0J50000D01*
G01*
X87145000Y-76143800D01*
G75*
G02*
X87195000Y-76093800I50000J0D01*
G01*
X87995000Y-76093800D01*
G75*
G02*
X88045000Y-76143800I0J-50000D01*
G01*
X88045000Y-77043800D01*
G75*
G02*
X87995000Y-77093800I-50000J0D01*
G01*
G37*
G36*
G01*
X86095000Y-77093800D02*
X85295000Y-77093800D01*
G75*
G02*
X85245000Y-77043800I0J50000D01*
G01*
X85245000Y-76143800D01*
G75*
G02*
X85295000Y-76093800I50000J0D01*
G01*
X86095000Y-76093800D01*
G75*
G02*
X86145000Y-76143800I0J-50000D01*
G01*
X86145000Y-77043800D01*
G75*
G02*
X86095000Y-77093800I-50000J0D01*
G01*
G37*
G04 #@! TD*
G04 #@! TO.C,U3*
G36*
G01*
X92614500Y-63270000D02*
X91814500Y-63270000D01*
G75*
G02*
X91764500Y-63220000I0J50000D01*
G01*
X91764500Y-62320000D01*
G75*
G02*
X91814500Y-62270000I50000J0D01*
G01*
X92614500Y-62270000D01*
G75*
G02*
X92664500Y-62320000I0J-50000D01*
G01*
X92664500Y-63220000D01*
G75*
G02*
X92614500Y-63270000I-50000J0D01*
G01*
G37*
G36*
G01*
X93564500Y-65270000D02*
X92764500Y-65270000D01*
G75*
G02*
X92714500Y-65220000I0J50000D01*
G01*
X92714500Y-64320000D01*
G75*
G02*
X92764500Y-64270000I50000J0D01*
G01*
X93564500Y-64270000D01*
G75*
G02*
X93614500Y-64320000I0J-50000D01*
G01*
X93614500Y-65220000D01*
G75*
G02*
X93564500Y-65270000I-50000J0D01*
G01*
G37*
G36*
G01*
X91664500Y-65270000D02*
X90864500Y-65270000D01*
G75*
G02*
X90814500Y-65220000I0J50000D01*
G01*
X90814500Y-64320000D01*
G75*
G02*
X90864500Y-64270000I50000J0D01*
G01*
X91664500Y-64270000D01*
G75*
G02*
X91714500Y-64320000I0J-50000D01*
G01*
X91714500Y-65220000D01*
G75*
G02*
X91664500Y-65270000I-50000J0D01*
G01*
G37*
G04 #@! TD*
G04 #@! TO.C,U4*
G36*
G01*
X75791500Y-42941500D02*
X74991500Y-42941500D01*
G75*
G02*
X74941500Y-42891500I0J50000D01*
G01*
X74941500Y-41991500D01*
G75*
G02*
X74991500Y-41941500I50000J0D01*
G01*
X75791500Y-41941500D01*
G75*
G02*
X75841500Y-41991500I0J-50000D01*
G01*
X75841500Y-42891500D01*
G75*
G02*
X75791500Y-42941500I-50000J0D01*
G01*
G37*
G36*
G01*
X77691500Y-42941500D02*
X76891500Y-42941500D01*
G75*
G02*
X76841500Y-42891500I0J50000D01*
G01*
X76841500Y-41991500D01*
G75*
G02*
X76891500Y-41941500I50000J0D01*
G01*
X77691500Y-41941500D01*
G75*
G02*
X77741500Y-41991500I0J-50000D01*
G01*
X77741500Y-42891500D01*
G75*
G02*
X77691500Y-42941500I-50000J0D01*
G01*
G37*
G36*
G01*
X76741500Y-40941500D02*
X75941500Y-40941500D01*
G75*
G02*
X75891500Y-40891500I0J50000D01*
G01*
X75891500Y-39991500D01*
G75*
G02*
X75941500Y-39941500I50000J0D01*
G01*
X76741500Y-39941500D01*
G75*
G02*
X76791500Y-39991500I0J-50000D01*
G01*
X76791500Y-40891500D01*
G75*
G02*
X76741500Y-40941500I-50000J0D01*
G01*
G37*
G04 #@! TD*
G04 #@! TO.C,ADS1241*
G36*
G01*
X86805000Y-48721000D02*
X86355000Y-48721000D01*
G75*
G02*
X86305000Y-48671000I0J50000D01*
G01*
X86305000Y-46921000D01*
G75*
G02*
X86355000Y-46871000I50000J0D01*
G01*
X86805000Y-46871000D01*
G75*
G02*
X86855000Y-46921000I0J-50000D01*
G01*
X86855000Y-48671000D01*
G75*
G02*
X86805000Y-48721000I-50000J0D01*
G01*
G37*
G36*
G01*
X87455000Y-48721000D02*
X87005000Y-48721000D01*
G75*
G02*
X86955000Y-48671000I0J50000D01*
G01*
X86955000Y-46921000D01*
G75*
G02*
X87005000Y-46871000I50000J0D01*
G01*
X87455000Y-46871000D01*
G75*
G02*
X87505000Y-46921000I0J-50000D01*
G01*
X87505000Y-48671000D01*
G75*
G02*
X87455000Y-48721000I-50000J0D01*
G01*
G37*
G36*
G01*
X88105000Y-48721000D02*
X87655000Y-48721000D01*
G75*
G02*
X87605000Y-48671000I0J50000D01*
G01*
X87605000Y-46921000D01*
G75*
G02*
X87655000Y-46871000I50000J0D01*
G01*
X88105000Y-46871000D01*
G75*
G02*
X88155000Y-46921000I0J-50000D01*
G01*
X88155000Y-48671000D01*
G75*
G02*
X88105000Y-48721000I-50000J0D01*
G01*
G37*
G36*
G01*
X88755000Y-48721000D02*
X88305000Y-48721000D01*
G75*
G02*
X88255000Y-48671000I0J50000D01*
G01*
X88255000Y-46921000D01*
G75*
G02*
X88305000Y-46871000I50000J0D01*
G01*
X88755000Y-46871000D01*
G75*
G02*
X88805000Y-46921000I0J-50000D01*
G01*
X88805000Y-48671000D01*
G75*
G02*
X88755000Y-48721000I-50000J0D01*
G01*
G37*
G36*
G01*
X89405000Y-48721000D02*
X88955000Y-48721000D01*
G75*
G02*
X88905000Y-48671000I0J50000D01*
G01*
X88905000Y-46921000D01*
G75*
G02*
X88955000Y-46871000I50000J0D01*
G01*
X89405000Y-46871000D01*
G75*
G02*
X89455000Y-46921000I0J-50000D01*
G01*
X89455000Y-48671000D01*
G75*
G02*
X89405000Y-48721000I-50000J0D01*
G01*
G37*
G36*
G01*
X90055000Y-48721000D02*
X89605000Y-48721000D01*
G75*
G02*
X89555000Y-48671000I0J50000D01*
G01*
X89555000Y-46921000D01*
G75*
G02*
X89605000Y-46871000I50000J0D01*
G01*
X90055000Y-46871000D01*
G75*
G02*
X90105000Y-46921000I0J-50000D01*
G01*
X90105000Y-48671000D01*
G75*
G02*
X90055000Y-48721000I-50000J0D01*
G01*
G37*
G36*
G01*
X90705000Y-48721000D02*
X90255000Y-48721000D01*
G75*
G02*
X90205000Y-48671000I0J50000D01*
G01*
X90205000Y-46921000D01*
G75*
G02*
X90255000Y-46871000I50000J0D01*
G01*
X90705000Y-46871000D01*
G75*
G02*
X90755000Y-46921000I0J-50000D01*
G01*
X90755000Y-48671000D01*
G75*
G02*
X90705000Y-48721000I-50000J0D01*
G01*
G37*
G36*
G01*
X91355000Y-48721000D02*
X90905000Y-48721000D01*
G75*
G02*
X90855000Y-48671000I0J50000D01*
G01*
X90855000Y-46921000D01*
G75*
G02*
X90905000Y-46871000I50000J0D01*
G01*
X91355000Y-46871000D01*
G75*
G02*
X91405000Y-46921000I0J-50000D01*
G01*
X91405000Y-48671000D01*
G75*
G02*
X91355000Y-48721000I-50000J0D01*
G01*
G37*
G36*
G01*
X92005000Y-48721000D02*
X91555000Y-48721000D01*
G75*
G02*
X91505000Y-48671000I0J50000D01*
G01*
X91505000Y-46921000D01*
G75*
G02*
X91555000Y-46871000I50000J0D01*
G01*
X92005000Y-46871000D01*
G75*
G02*
X92055000Y-46921000I0J-50000D01*
G01*
X92055000Y-48671000D01*
G75*
G02*
X92005000Y-48721000I-50000J0D01*
G01*
G37*
G36*
G01*
X92655000Y-48721000D02*
X92205000Y-48721000D01*
G75*
G02*
X92155000Y-48671000I0J50000D01*
G01*
X92155000Y-46921000D01*
G75*
G02*
X92205000Y-46871000I50000J0D01*
G01*
X92655000Y-46871000D01*
G75*
G02*
X92705000Y-46921000I0J-50000D01*
G01*
X92705000Y-48671000D01*
G75*
G02*
X92655000Y-48721000I-50000J0D01*
G01*
G37*
G36*
G01*
X93305000Y-48721000D02*
X92855000Y-48721000D01*
G75*
G02*
X92805000Y-48671000I0J50000D01*
G01*
X92805000Y-46921000D01*
G75*
G02*
X92855000Y-46871000I50000J0D01*
G01*
X93305000Y-46871000D01*
G75*
G02*
X93355000Y-46921000I0J-50000D01*
G01*
X93355000Y-48671000D01*
G75*
G02*
X93305000Y-48721000I-50000J0D01*
G01*
G37*
G36*
G01*
X93955000Y-48721000D02*
X93505000Y-48721000D01*
G75*
G02*
X93455000Y-48671000I0J50000D01*
G01*
X93455000Y-46921000D01*
G75*
G02*
X93505000Y-46871000I50000J0D01*
G01*
X93955000Y-46871000D01*
G75*
G02*
X94005000Y-46921000I0J-50000D01*
G01*
X94005000Y-48671000D01*
G75*
G02*
X93955000Y-48721000I-50000J0D01*
G01*
G37*
G36*
G01*
X94605000Y-48721000D02*
X94155000Y-48721000D01*
G75*
G02*
X94105000Y-48671000I0J50000D01*
G01*
X94105000Y-46921000D01*
G75*
G02*
X94155000Y-46871000I50000J0D01*
G01*
X94605000Y-46871000D01*
G75*
G02*
X94655000Y-46921000I0J-50000D01*
G01*
X94655000Y-48671000D01*
G75*
G02*
X94605000Y-48721000I-50000J0D01*
G01*
G37*
G36*
G01*
X95255000Y-48721000D02*
X94805000Y-48721000D01*
G75*
G02*
X94755000Y-48671000I0J50000D01*
G01*
X94755000Y-46921000D01*
G75*
G02*
X94805000Y-46871000I50000J0D01*
G01*
X95255000Y-46871000D01*
G75*
G02*
X95305000Y-46921000I0J-50000D01*
G01*
X95305000Y-48671000D01*
G75*
G02*
X95255000Y-48721000I-50000J0D01*
G01*
G37*
G36*
G01*
X95255000Y-41521000D02*
X94805000Y-41521000D01*
G75*
G02*
X94755000Y-41471000I0J50000D01*
G01*
X94755000Y-39721000D01*
G75*
G02*
X94805000Y-39671000I50000J0D01*
G01*
X95255000Y-39671000D01*
G75*
G02*
X95305000Y-39721000I0J-50000D01*
G01*
X95305000Y-41471000D01*
G75*
G02*
X95255000Y-41521000I-50000J0D01*
G01*
G37*
G36*
G01*
X94605000Y-41521000D02*
X94155000Y-41521000D01*
G75*
G02*
X94105000Y-41471000I0J50000D01*
G01*
X94105000Y-39721000D01*
G75*
G02*
X94155000Y-39671000I50000J0D01*
G01*
X94605000Y-39671000D01*
G75*
G02*
X94655000Y-39721000I0J-50000D01*
G01*
X94655000Y-41471000D01*
G75*
G02*
X94605000Y-41521000I-50000J0D01*
G01*
G37*
G36*
G01*
X93955000Y-41521000D02*
X93505000Y-41521000D01*
G75*
G02*
X93455000Y-41471000I0J50000D01*
G01*
X93455000Y-39721000D01*
G75*
G02*
X93505000Y-39671000I50000J0D01*
G01*
X93955000Y-39671000D01*
G75*
G02*
X94005000Y-39721000I0J-50000D01*
G01*
X94005000Y-41471000D01*
G75*
G02*
X93955000Y-41521000I-50000J0D01*
G01*
G37*
G36*
G01*
X93305000Y-41521000D02*
X92855000Y-41521000D01*
G75*
G02*
X92805000Y-41471000I0J50000D01*
G01*
X92805000Y-39721000D01*
G75*
G02*
X92855000Y-39671000I50000J0D01*
G01*
X93305000Y-39671000D01*
G75*
G02*
X93355000Y-39721000I0J-50000D01*
G01*
X93355000Y-41471000D01*
G75*
G02*
X93305000Y-41521000I-50000J0D01*
G01*
G37*
G36*
G01*
X92655000Y-41521000D02*
X92205000Y-41521000D01*
G75*
G02*
X92155000Y-41471000I0J50000D01*
G01*
X92155000Y-39721000D01*
G75*
G02*
X92205000Y-39671000I50000J0D01*
G01*
X92655000Y-39671000D01*
G75*
G02*
X92705000Y-39721000I0J-50000D01*
G01*
X92705000Y-41471000D01*
G75*
G02*
X92655000Y-41521000I-50000J0D01*
G01*
G37*
G36*
G01*
X92005000Y-41521000D02*
X91555000Y-41521000D01*
G75*
G02*
X91505000Y-41471000I0J50000D01*
G01*
X91505000Y-39721000D01*
G75*
G02*
X91555000Y-39671000I50000J0D01*
G01*
X92005000Y-39671000D01*
G75*
G02*
X92055000Y-39721000I0J-50000D01*
G01*
X92055000Y-41471000D01*
G75*
G02*
X92005000Y-41521000I-50000J0D01*
G01*
G37*
G36*
G01*
X91355000Y-41521000D02*
X90905000Y-41521000D01*
G75*
G02*
X90855000Y-41471000I0J50000D01*
G01*
X90855000Y-39721000D01*
G75*
G02*
X90905000Y-39671000I50000J0D01*
G01*
X91355000Y-39671000D01*
G75*
G02*
X91405000Y-39721000I0J-50000D01*
G01*
X91405000Y-41471000D01*
G75*
G02*
X91355000Y-41521000I-50000J0D01*
G01*
G37*
G36*
G01*
X90705000Y-41521000D02*
X90255000Y-41521000D01*
G75*
G02*
X90205000Y-41471000I0J50000D01*
G01*
X90205000Y-39721000D01*
G75*
G02*
X90255000Y-39671000I50000J0D01*
G01*
X90705000Y-39671000D01*
G75*
G02*
X90755000Y-39721000I0J-50000D01*
G01*
X90755000Y-41471000D01*
G75*
G02*
X90705000Y-41521000I-50000J0D01*
G01*
G37*
G36*
G01*
X90055000Y-41521000D02*
X89605000Y-41521000D01*
G75*
G02*
X89555000Y-41471000I0J50000D01*
G01*
X89555000Y-39721000D01*
G75*
G02*
X89605000Y-39671000I50000J0D01*
G01*
X90055000Y-39671000D01*
G75*
G02*
X90105000Y-39721000I0J-50000D01*
G01*
X90105000Y-41471000D01*
G75*
G02*
X90055000Y-41521000I-50000J0D01*
G01*
G37*
G36*
G01*
X89405000Y-41521000D02*
X88955000Y-41521000D01*
G75*
G02*
X88905000Y-41471000I0J50000D01*
G01*
X88905000Y-39721000D01*
G75*
G02*
X88955000Y-39671000I50000J0D01*
G01*
X89405000Y-39671000D01*
G75*
G02*
X89455000Y-39721000I0J-50000D01*
G01*
X89455000Y-41471000D01*
G75*
G02*
X89405000Y-41521000I-50000J0D01*
G01*
G37*
G36*
G01*
X88755000Y-41521000D02*
X88305000Y-41521000D01*
G75*
G02*
X88255000Y-41471000I0J50000D01*
G01*
X88255000Y-39721000D01*
G75*
G02*
X88305000Y-39671000I50000J0D01*
G01*
X88755000Y-39671000D01*
G75*
G02*
X88805000Y-39721000I0J-50000D01*
G01*
X88805000Y-41471000D01*
G75*
G02*
X88755000Y-41521000I-50000J0D01*
G01*
G37*
G36*
G01*
X88105000Y-41521000D02*
X87655000Y-41521000D01*
G75*
G02*
X87605000Y-41471000I0J50000D01*
G01*
X87605000Y-39721000D01*
G75*
G02*
X87655000Y-39671000I50000J0D01*
G01*
X88105000Y-39671000D01*
G75*
G02*
X88155000Y-39721000I0J-50000D01*
G01*
X88155000Y-41471000D01*
G75*
G02*
X88105000Y-41521000I-50000J0D01*
G01*
G37*
G36*
G01*
X87455000Y-41521000D02*
X87005000Y-41521000D01*
G75*
G02*
X86955000Y-41471000I0J50000D01*
G01*
X86955000Y-39721000D01*
G75*
G02*
X87005000Y-39671000I50000J0D01*
G01*
X87455000Y-39671000D01*
G75*
G02*
X87505000Y-39721000I0J-50000D01*
G01*
X87505000Y-41471000D01*
G75*
G02*
X87455000Y-41521000I-50000J0D01*
G01*
G37*
G36*
G01*
X86805000Y-41521000D02*
X86355000Y-41521000D01*
G75*
G02*
X86305000Y-41471000I0J50000D01*
G01*
X86305000Y-39721000D01*
G75*
G02*
X86355000Y-39671000I50000J0D01*
G01*
X86805000Y-39671000D01*
G75*
G02*
X86855000Y-39721000I0J-50000D01*
G01*
X86855000Y-41471000D01*
G75*
G02*
X86805000Y-41521000I-50000J0D01*
G01*
G37*
G04 #@! TD*
G04 #@! TO.C,R8*
G36*
G01*
X79310000Y-41930000D02*
X78890000Y-41930000D01*
G75*
G02*
X78730000Y-41770000I0J160000D01*
G01*
X78730000Y-41450000D01*
G75*
G02*
X78890000Y-41290000I160000J0D01*
G01*
X79310000Y-41290000D01*
G75*
G02*
X79470000Y-41450000I0J-160000D01*
G01*
X79470000Y-41770000D01*
G75*
G02*
X79310000Y-41930000I-160000J0D01*
G01*
G37*
G36*
G01*
X79310000Y-40910000D02*
X78890000Y-40910000D01*
G75*
G02*
X78730000Y-40750000I0J160000D01*
G01*
X78730000Y-40430000D01*
G75*
G02*
X78890000Y-40270000I160000J0D01*
G01*
X79310000Y-40270000D01*
G75*
G02*
X79470000Y-40430000I0J-160000D01*
G01*
X79470000Y-40750000D01*
G75*
G02*
X79310000Y-40910000I-160000J0D01*
G01*
G37*
G04 #@! TD*
G04 #@! TO.C,D1*
G36*
G01*
X86573500Y-78424050D02*
X86573500Y-78986550D01*
G75*
G02*
X86329750Y-79230300I-243750J0D01*
G01*
X85842250Y-79230300D01*
G75*
G02*
X85598500Y-78986550I0J243750D01*
G01*
X85598500Y-78424050D01*
G75*
G02*
X85842250Y-78180300I243750J0D01*
G01*
X86329750Y-78180300D01*
G75*
G02*
X86573500Y-78424050I0J-243750D01*
G01*
G37*
G36*
G01*
X88148500Y-78424050D02*
X88148500Y-78986550D01*
G75*
G02*
X87904750Y-79230300I-243750J0D01*
G01*
X87417250Y-79230300D01*
G75*
G02*
X87173500Y-78986550I0J243750D01*
G01*
X87173500Y-78424050D01*
G75*
G02*
X87417250Y-78180300I243750J0D01*
G01*
X87904750Y-78180300D01*
G75*
G02*
X88148500Y-78424050I0J-243750D01*
G01*
G37*
G04 #@! TD*
G04 #@! TO.C,C1*
G36*
G01*
X90110000Y-92105000D02*
X90110000Y-92495000D01*
G75*
G02*
X89945000Y-92660000I-165000J0D01*
G01*
X89615000Y-92660000D01*
G75*
G02*
X89450000Y-92495000I0J165000D01*
G01*
X89450000Y-92105000D01*
G75*
G02*
X89615000Y-91940000I165000J0D01*
G01*
X89945000Y-91940000D01*
G75*
G02*
X90110000Y-92105000I0J-165000D01*
G01*
G37*
G36*
G01*
X89150000Y-92105000D02*
X89150000Y-92495000D01*
G75*
G02*
X88985000Y-92660000I-165000J0D01*
G01*
X88655000Y-92660000D01*
G75*
G02*
X88490000Y-92495000I0J165000D01*
G01*
X88490000Y-92105000D01*
G75*
G02*
X88655000Y-91940000I165000J0D01*
G01*
X88985000Y-91940000D01*
G75*
G02*
X89150000Y-92105000I0J-165000D01*
G01*
G37*
G04 #@! TD*
G04 #@! TO.C,C3*
G36*
G01*
X95005000Y-93350000D02*
X95395000Y-93350000D01*
G75*
G02*
X95560000Y-93515000I0J-165000D01*
G01*
X95560000Y-93845000D01*
G75*
G02*
X95395000Y-94010000I-165000J0D01*
G01*
X95005000Y-94010000D01*
G75*
G02*
X94840000Y-93845000I0J165000D01*
G01*
X94840000Y-93515000D01*
G75*
G02*
X95005000Y-93350000I165000J0D01*
G01*
G37*
G36*
G01*
X95005000Y-92390000D02*
X95395000Y-92390000D01*
G75*
G02*
X95560000Y-92555000I0J-165000D01*
G01*
X95560000Y-92885000D01*
G75*
G02*
X95395000Y-93050000I-165000J0D01*
G01*
X95005000Y-93050000D01*
G75*
G02*
X94840000Y-92885000I0J165000D01*
G01*
X94840000Y-92555000D01*
G75*
G02*
X95005000Y-92390000I165000J0D01*
G01*
G37*
G04 #@! TD*
G04 #@! TO.C,C7*
G36*
G01*
X91512000Y-84105000D02*
X91122000Y-84105000D01*
G75*
G02*
X90957000Y-83940000I0J165000D01*
G01*
X90957000Y-83610000D01*
G75*
G02*
X91122000Y-83445000I165000J0D01*
G01*
X91512000Y-83445000D01*
G75*
G02*
X91677000Y-83610000I0J-165000D01*
G01*
X91677000Y-83940000D01*
G75*
G02*
X91512000Y-84105000I-165000J0D01*
G01*
G37*
G36*
G01*
X91512000Y-85065000D02*
X91122000Y-85065000D01*
G75*
G02*
X90957000Y-84900000I0J165000D01*
G01*
X90957000Y-84570000D01*
G75*
G02*
X91122000Y-84405000I165000J0D01*
G01*
X91512000Y-84405000D01*
G75*
G02*
X91677000Y-84570000I0J-165000D01*
G01*
X91677000Y-84900000D01*
G75*
G02*
X91512000Y-85065000I-165000J0D01*
G01*
G37*
G04 #@! TD*
G04 #@! TO.C,C8*
G36*
G01*
X85280000Y-98603500D02*
X85670000Y-98603500D01*
G75*
G02*
X85835000Y-98768500I0J-165000D01*
G01*
X85835000Y-99098500D01*
G75*
G02*
X85670000Y-99263500I-165000J0D01*
G01*
X85280000Y-99263500D01*
G75*
G02*
X85115000Y-99098500I0J165000D01*
G01*
X85115000Y-98768500D01*
G75*
G02*
X85280000Y-98603500I165000J0D01*
G01*
G37*
G36*
G01*
X85280000Y-97643500D02*
X85670000Y-97643500D01*
G75*
G02*
X85835000Y-97808500I0J-165000D01*
G01*
X85835000Y-98138500D01*
G75*
G02*
X85670000Y-98303500I-165000J0D01*
G01*
X85280000Y-98303500D01*
G75*
G02*
X85115000Y-98138500I0J165000D01*
G01*
X85115000Y-97808500D01*
G75*
G02*
X85280000Y-97643500I165000J0D01*
G01*
G37*
G04 #@! TD*
G04 #@! TO.C,C9*
G36*
G01*
X94215500Y-85065000D02*
X93825500Y-85065000D01*
G75*
G02*
X93660500Y-84900000I0J165000D01*
G01*
X93660500Y-84570000D01*
G75*
G02*
X93825500Y-84405000I165000J0D01*
G01*
X94215500Y-84405000D01*
G75*
G02*
X94380500Y-84570000I0J-165000D01*
G01*
X94380500Y-84900000D01*
G75*
G02*
X94215500Y-85065000I-165000J0D01*
G01*
G37*
G36*
G01*
X94215500Y-84105000D02*
X93825500Y-84105000D01*
G75*
G02*
X93660500Y-83940000I0J165000D01*
G01*
X93660500Y-83610000D01*
G75*
G02*
X93825500Y-83445000I165000J0D01*
G01*
X94215500Y-83445000D01*
G75*
G02*
X94380500Y-83610000I0J-165000D01*
G01*
X94380500Y-83940000D01*
G75*
G02*
X94215500Y-84105000I-165000J0D01*
G01*
G37*
G04 #@! TD*
G04 #@! TO.C,C10*
G36*
G01*
X85280000Y-94440500D02*
X85670000Y-94440500D01*
G75*
G02*
X85835000Y-94605500I0J-165000D01*
G01*
X85835000Y-94935500D01*
G75*
G02*
X85670000Y-95100500I-165000J0D01*
G01*
X85280000Y-95100500D01*
G75*
G02*
X85115000Y-94935500I0J165000D01*
G01*
X85115000Y-94605500D01*
G75*
G02*
X85280000Y-94440500I165000J0D01*
G01*
G37*
G36*
G01*
X85280000Y-95400500D02*
X85670000Y-95400500D01*
G75*
G02*
X85835000Y-95565500I0J-165000D01*
G01*
X85835000Y-95895500D01*
G75*
G02*
X85670000Y-96060500I-165000J0D01*
G01*
X85280000Y-96060500D01*
G75*
G02*
X85115000Y-95895500I0J165000D01*
G01*
X85115000Y-95565500D01*
G75*
G02*
X85280000Y-95400500I165000J0D01*
G01*
G37*
G04 #@! TD*
G04 #@! TO.C,C11*
G36*
G01*
X96710000Y-95365000D02*
X97100000Y-95365000D01*
G75*
G02*
X97265000Y-95530000I0J-165000D01*
G01*
X97265000Y-95860000D01*
G75*
G02*
X97100000Y-96025000I-165000J0D01*
G01*
X96710000Y-96025000D01*
G75*
G02*
X96545000Y-95860000I0J165000D01*
G01*
X96545000Y-95530000D01*
G75*
G02*
X96710000Y-95365000I165000J0D01*
G01*
G37*
G36*
G01*
X96710000Y-94405000D02*
X97100000Y-94405000D01*
G75*
G02*
X97265000Y-94570000I0J-165000D01*
G01*
X97265000Y-94900000D01*
G75*
G02*
X97100000Y-95065000I-165000J0D01*
G01*
X96710000Y-95065000D01*
G75*
G02*
X96545000Y-94900000I0J165000D01*
G01*
X96545000Y-94570000D01*
G75*
G02*
X96710000Y-94405000I165000J0D01*
G01*
G37*
G04 #@! TD*
G04 #@! TO.C,C12*
G36*
G01*
X96710000Y-97770500D02*
X97100000Y-97770500D01*
G75*
G02*
X97265000Y-97935500I0J-165000D01*
G01*
X97265000Y-98265500D01*
G75*
G02*
X97100000Y-98430500I-165000J0D01*
G01*
X96710000Y-98430500D01*
G75*
G02*
X96545000Y-98265500I0J165000D01*
G01*
X96545000Y-97935500D01*
G75*
G02*
X96710000Y-97770500I165000J0D01*
G01*
G37*
G36*
G01*
X96710000Y-98730500D02*
X97100000Y-98730500D01*
G75*
G02*
X97265000Y-98895500I0J-165000D01*
G01*
X97265000Y-99225500D01*
G75*
G02*
X97100000Y-99390500I-165000J0D01*
G01*
X96710000Y-99390500D01*
G75*
G02*
X96545000Y-99225500I0J165000D01*
G01*
X96545000Y-98895500D01*
G75*
G02*
X96710000Y-98730500I165000J0D01*
G01*
G37*
G04 #@! TD*
G04 #@! TO.C,C13*
G36*
G01*
X86850000Y-49505000D02*
X86850000Y-49895000D01*
G75*
G02*
X86685000Y-50060000I-165000J0D01*
G01*
X86355000Y-50060000D01*
G75*
G02*
X86190000Y-49895000I0J165000D01*
G01*
X86190000Y-49505000D01*
G75*
G02*
X86355000Y-49340000I165000J0D01*
G01*
X86685000Y-49340000D01*
G75*
G02*
X86850000Y-49505000I0J-165000D01*
G01*
G37*
G36*
G01*
X87810000Y-49505000D02*
X87810000Y-49895000D01*
G75*
G02*
X87645000Y-50060000I-165000J0D01*
G01*
X87315000Y-50060000D01*
G75*
G02*
X87150000Y-49895000I0J165000D01*
G01*
X87150000Y-49505000D01*
G75*
G02*
X87315000Y-49340000I165000J0D01*
G01*
X87645000Y-49340000D01*
G75*
G02*
X87810000Y-49505000I0J-165000D01*
G01*
G37*
G04 #@! TD*
G04 #@! TO.C,C14*
G36*
G01*
X88490000Y-49895000D02*
X88490000Y-49505000D01*
G75*
G02*
X88655000Y-49340000I165000J0D01*
G01*
X88985000Y-49340000D01*
G75*
G02*
X89150000Y-49505000I0J-165000D01*
G01*
X89150000Y-49895000D01*
G75*
G02*
X88985000Y-50060000I-165000J0D01*
G01*
X88655000Y-50060000D01*
G75*
G02*
X88490000Y-49895000I0J165000D01*
G01*
G37*
G36*
G01*
X89450000Y-49895000D02*
X89450000Y-49505000D01*
G75*
G02*
X89615000Y-49340000I165000J0D01*
G01*
X89945000Y-49340000D01*
G75*
G02*
X90110000Y-49505000I0J-165000D01*
G01*
X90110000Y-49895000D01*
G75*
G02*
X89945000Y-50060000I-165000J0D01*
G01*
X89615000Y-50060000D01*
G75*
G02*
X89450000Y-49895000I0J165000D01*
G01*
G37*
G04 #@! TD*
G04 #@! TO.C,C15*
G36*
G01*
X91295000Y-38410000D02*
X90905000Y-38410000D01*
G75*
G02*
X90740000Y-38245000I0J165000D01*
G01*
X90740000Y-37915000D01*
G75*
G02*
X90905000Y-37750000I165000J0D01*
G01*
X91295000Y-37750000D01*
G75*
G02*
X91460000Y-37915000I0J-165000D01*
G01*
X91460000Y-38245000D01*
G75*
G02*
X91295000Y-38410000I-165000J0D01*
G01*
G37*
G36*
G01*
X91295000Y-37450000D02*
X90905000Y-37450000D01*
G75*
G02*
X90740000Y-37285000I0J165000D01*
G01*
X90740000Y-36955000D01*
G75*
G02*
X90905000Y-36790000I165000J0D01*
G01*
X91295000Y-36790000D01*
G75*
G02*
X91460000Y-36955000I0J-165000D01*
G01*
X91460000Y-37285000D01*
G75*
G02*
X91295000Y-37450000I-165000J0D01*
G01*
G37*
G04 #@! TD*
G04 #@! TO.C,C16*
G36*
G01*
X83930000Y-47805000D02*
X83930000Y-48195000D01*
G75*
G02*
X83765000Y-48360000I-165000J0D01*
G01*
X83435000Y-48360000D01*
G75*
G02*
X83270000Y-48195000I0J165000D01*
G01*
X83270000Y-47805000D01*
G75*
G02*
X83435000Y-47640000I165000J0D01*
G01*
X83765000Y-47640000D01*
G75*
G02*
X83930000Y-47805000I0J-165000D01*
G01*
G37*
G36*
G01*
X84890000Y-47805000D02*
X84890000Y-48195000D01*
G75*
G02*
X84725000Y-48360000I-165000J0D01*
G01*
X84395000Y-48360000D01*
G75*
G02*
X84230000Y-48195000I0J165000D01*
G01*
X84230000Y-47805000D01*
G75*
G02*
X84395000Y-47640000I165000J0D01*
G01*
X84725000Y-47640000D01*
G75*
G02*
X84890000Y-47805000I0J-165000D01*
G01*
G37*
G04 #@! TD*
G04 #@! TO.C,C23*
G36*
G01*
X94150000Y-37695000D02*
X94150000Y-37305000D01*
G75*
G02*
X94315000Y-37140000I165000J0D01*
G01*
X94645000Y-37140000D01*
G75*
G02*
X94810000Y-37305000I0J-165000D01*
G01*
X94810000Y-37695000D01*
G75*
G02*
X94645000Y-37860000I-165000J0D01*
G01*
X94315000Y-37860000D01*
G75*
G02*
X94150000Y-37695000I0J165000D01*
G01*
G37*
G36*
G01*
X93190000Y-37695000D02*
X93190000Y-37305000D01*
G75*
G02*
X93355000Y-37140000I165000J0D01*
G01*
X93685000Y-37140000D01*
G75*
G02*
X93850000Y-37305000I0J-165000D01*
G01*
X93850000Y-37695000D01*
G75*
G02*
X93685000Y-37860000I-165000J0D01*
G01*
X93355000Y-37860000D01*
G75*
G02*
X93190000Y-37695000I0J165000D01*
G01*
G37*
G04 #@! TD*
G04 #@! TO.C,R6*
G36*
G01*
X90728500Y-79030000D02*
X90308500Y-79030000D01*
G75*
G02*
X90148500Y-78870000I0J160000D01*
G01*
X90148500Y-78550000D01*
G75*
G02*
X90308500Y-78390000I160000J0D01*
G01*
X90728500Y-78390000D01*
G75*
G02*
X90888500Y-78550000I0J-160000D01*
G01*
X90888500Y-78870000D01*
G75*
G02*
X90728500Y-79030000I-160000J0D01*
G01*
G37*
G36*
G01*
X90728500Y-78010000D02*
X90308500Y-78010000D01*
G75*
G02*
X90148500Y-77850000I0J160000D01*
G01*
X90148500Y-77530000D01*
G75*
G02*
X90308500Y-77370000I160000J0D01*
G01*
X90728500Y-77370000D01*
G75*
G02*
X90888500Y-77530000I0J-160000D01*
G01*
X90888500Y-77850000D01*
G75*
G02*
X90728500Y-78010000I-160000J0D01*
G01*
G37*
G04 #@! TD*
G04 #@! TO.C,R7*
G36*
G01*
X96210000Y-66000000D02*
X95790000Y-66000000D01*
G75*
G02*
X95630000Y-65840000I0J160000D01*
G01*
X95630000Y-65520000D01*
G75*
G02*
X95790000Y-65360000I160000J0D01*
G01*
X96210000Y-65360000D01*
G75*
G02*
X96370000Y-65520000I0J-160000D01*
G01*
X96370000Y-65840000D01*
G75*
G02*
X96210000Y-66000000I-160000J0D01*
G01*
G37*
G36*
G01*
X96210000Y-67020000D02*
X95790000Y-67020000D01*
G75*
G02*
X95630000Y-66860000I0J160000D01*
G01*
X95630000Y-66540000D01*
G75*
G02*
X95790000Y-66380000I160000J0D01*
G01*
X96210000Y-66380000D01*
G75*
G02*
X96370000Y-66540000I0J-160000D01*
G01*
X96370000Y-66860000D01*
G75*
G02*
X96210000Y-67020000I-160000J0D01*
G01*
G37*
G04 #@! TD*
G04 #@! TO.C,C24*
G36*
G01*
X91490000Y-49895000D02*
X91490000Y-49505000D01*
G75*
G02*
X91655000Y-49340000I165000J0D01*
G01*
X91985000Y-49340000D01*
G75*
G02*
X92150000Y-49505000I0J-165000D01*
G01*
X92150000Y-49895000D01*
G75*
G02*
X91985000Y-50060000I-165000J0D01*
G01*
X91655000Y-50060000D01*
G75*
G02*
X91490000Y-49895000I0J165000D01*
G01*
G37*
G36*
G01*
X92450000Y-49895000D02*
X92450000Y-49505000D01*
G75*
G02*
X92615000Y-49340000I165000J0D01*
G01*
X92945000Y-49340000D01*
G75*
G02*
X93110000Y-49505000I0J-165000D01*
G01*
X93110000Y-49895000D01*
G75*
G02*
X92945000Y-50060000I-165000J0D01*
G01*
X92615000Y-50060000D01*
G75*
G02*
X92450000Y-49895000I0J165000D01*
G01*
G37*
G04 #@! TD*
M02*
