M48
; DRILL file {KiCad (5.1.10)-1} date 11/05/21 11:54:57
; FORMAT={-:-/ absolute / inch / decimal}
; #@! TF.CreationDate,2021-11-05T11:54:57+00:00
; #@! TF.GenerationSoftware,Kicad,Pcbnew,(5.1.10)-1
; #@! TF.FileFunction,Plated,1,4,PTH
FMAT,2
INCH
T1C0.0118
T2C0.0394
%
G90
G05
T1
X2.3622Y-3.563
X2.3819Y-3.8622
X2.4636Y-3.2441
X2.4803Y-3.6142
X2.4833Y-3.126
X2.4961Y-1.4646
X2.5Y-1.5591
X2.5Y-1.7598
X2.5039Y-3.5567
X2.5039Y-1.8583
X2.5039Y-2.9764
X2.5047Y-1.6646
X2.5276Y-2.9094
X2.5276Y-3.5709
X2.5502Y-2.9362
X2.5502Y-3.3307
X2.5565Y-3.6111
X2.5709Y-2.8031
X2.5827Y-2.752
X2.5827Y-3.6024
X2.5924Y-3.3543
X2.5945Y-1.7047
X2.6061Y-2.5945
X2.614Y-3.5879
X2.6181Y-1.7441
X2.6181Y-1.8976
X2.6268Y-3.5382
X2.627Y-2.4843
X2.6535Y-3.5315
X2.6575Y-2.3937
X2.67Y-3.3976
X2.685Y-3.4961
X2.7283Y-1.8976
X2.7559Y-2.6496
X2.7717Y-4.4843
X2.8071Y-2.7992
X2.8268Y-2.4094
X2.8492Y-2.4752
X2.874Y-2.878
X2.874Y-2.9764
X2.874Y-3.063
X2.9213Y-1.6732
X2.9409Y-1.5748
X2.9449Y-1.4882
X3.0433Y-1.626
X3.0472Y-2.9252
X3.0709Y-1.5
X3.0866Y-1.6732
X3.1142Y-1.8465
X3.1496Y-1.5945
X3.1545Y-2.4055
X3.1575Y-4.5118
X3.1811Y-1.7953
X3.1969Y-1.7598
X3.2047Y-2.5236
X3.2047Y-2.5551
X3.2047Y-2.5866
X3.2244Y-1.7402
X3.2441Y-2.9173
X3.248Y-1.8898
X3.2913Y-1.8543
X3.2913Y-1.9291
X3.2953Y-2.878
X3.311Y-2.5236
X3.311Y-2.5551
X3.311Y-2.5827
X3.3268Y-3.0157
X3.3307Y-1.8504
X3.3346Y-3.0669
X3.3622Y-1.9567
X3.4016Y-1.8268
X3.4055Y-1.9961
X3.437Y-1.8189
X3.4488Y-2.9685
X3.4606Y-1.6604
X3.4606Y-3.6339
X3.4724Y-3.3701
X3.4724Y-3.5315
X3.4843Y-1.6811
X3.4961Y-3.0669
X3.5079Y-1.7087
X3.5079Y-2.9528
X3.5118Y-2.874
X3.5354Y-1.7008
X3.5354Y-1.9961
X3.5354Y-2.4094
X3.5354Y-2.626
X3.5354Y-3.6732
X3.5472Y-1.4567
X3.5512Y-1.4921
X3.5512Y-2.5512
X3.563Y-3.0197
X3.5709Y-1.9567
X3.5709Y-2.3661
X3.5752Y-3.4439
X3.5752Y-3.4889
X3.5752Y-3.5339
X3.5866Y-1.8189
X3.6142Y-1.6614
X3.6142Y-1.7913
X3.6227Y-3.4439
X3.6227Y-3.4889
X3.6227Y-3.5339
X3.626Y-3.7283
X3.6378Y-1.4449
X3.6378Y-1.8189
X3.6535Y-1.9961
X3.6575Y-3.9764
X3.6614Y-1.7874
X3.6652Y-3.4439
X3.6652Y-3.4889
X3.6652Y-3.5339
X3.6693Y-2.5118
X3.6693Y-2.5906
X3.689Y-1.815
X3.6969Y-1.9567
X3.7027Y-3.6679
X3.7047Y-3.374
X3.7165Y-3.6929
X3.7205Y-2.4094
X3.7283Y-2.4724
X3.7283Y-2.5827
X3.7598Y-1.4803
X3.7598Y-1.5236
X3.7638Y-1.6762
X3.7638Y-3.3937
X3.7638Y-3.4218
X3.7638Y-3.4504
X3.7649Y-3.4792
X3.7672Y-3.5068
X3.7717Y-3.3661
X3.7717Y-3.5354
X3.7717Y-3.563
X3.7717Y-3.6024
X3.7782Y-1.7252
X3.7795Y-2.5512
X3.7835Y-3.685
X3.7953Y-1.5984
X3.8071Y-1.6969
X3.8071Y-3.311
X3.8228Y-2.3583
X3.8425Y-2.3031
X3.8819Y-3.4213
X3.8858Y-3.4488
X3.8898Y-3.3841
T2
X2.1756Y-2.3402
X2.1756Y-2.4402
X2.1756Y-2.5402
X2.1756Y-2.6402
X2.1756Y-2.7402
X2.1756Y-2.8402
X2.1756Y-2.9402
X2.1756Y-3.0402
X2.1756Y-3.1402
X2.1756Y-3.2402
X2.1756Y-3.3402
X2.1756Y-3.4402
X2.1756Y-3.5402
X2.1756Y-3.6402
X2.1756Y-3.7402
X2.1756Y-3.8402
X2.1756Y-3.9402
X2.1756Y-4.0402
X2.1756Y-4.1402
X2.1756Y-4.2402
X2.26Y-4.48
X2.2756Y-2.3402
X2.2756Y-2.4402
X2.2756Y-2.5402
X2.2756Y-2.6402
X2.2756Y-2.7402
X2.2756Y-2.8402
X2.2756Y-2.9402
X2.2756Y-3.0402
X2.2756Y-3.1402
X2.2756Y-3.2402
X2.2756Y-3.3402
X2.2756Y-3.4402
X2.2756Y-3.5402
X2.2756Y-3.6402
X2.2756Y-3.7402
X2.2756Y-3.8402
X2.2756Y-3.9402
X2.2756Y-4.0402
X2.2756Y-4.1402
X2.2756Y-4.2402
X2.36Y-4.48
X2.4113Y-1.5004
X2.4113Y-1.6004
X2.4113Y-1.7004
X2.4113Y-1.8004
X2.4113Y-1.9004
X2.4113Y-2.0004
X2.46Y-4.48
X2.49Y-3.935
X2.49Y-4.035
X2.49Y-4.135
X2.49Y-4.235
X2.56Y-4.48
X2.735Y-2.705
X2.735Y-2.805
X2.735Y-2.905
X2.735Y-3.005
X2.735Y-3.105
X2.9862Y-4.2782
X2.9862Y-4.3782
X3.0862Y-4.2782
X3.0862Y-4.3782
X3.1862Y-4.2782
X3.1862Y-4.3782
X3.2862Y-4.2782
X3.2862Y-4.3782
X3.3862Y-4.2782
X3.3862Y-4.3782
X3.4862Y-4.2782
X3.4862Y-4.3782
X3.5862Y-4.2782
X3.5862Y-4.3782
X3.6862Y-4.2782
X3.6862Y-4.3782
X3.7862Y-4.2782
X3.7862Y-4.3782
X3.8862Y-4.2782
X3.8862Y-4.3782
X3.9862Y-4.2782
X3.9862Y-4.3782
X4.05Y-1.415
X4.05Y-1.515
X4.05Y-1.615
X4.05Y-1.715
X4.05Y-1.815
X4.05Y-1.915
X4.05Y-2.015
X4.05Y-2.115
X4.05Y-2.215
X4.05Y-2.315
X4.05Y-2.415
X4.05Y-2.515
X4.0862Y-4.2782
X4.0862Y-4.3782
X4.12Y-2.78
X4.12Y-2.88
X4.12Y-2.98
X4.12Y-3.08
X4.12Y-3.28
X4.12Y-3.38
X4.12Y-3.48
X4.12Y-3.58
X4.12Y-3.68
X4.12Y-3.78
X4.15Y-1.415
X4.15Y-1.515
X4.15Y-1.615
X4.15Y-1.715
X4.15Y-1.815
X4.15Y-1.915
X4.15Y-2.015
X4.15Y-2.115
X4.15Y-2.215
X4.15Y-2.315
X4.15Y-2.415
X4.15Y-2.515
T0
M30
